G04 #@! TF.GenerationSoftware,KiCad,Pcbnew,(5.1.5)-3*
G04 #@! TF.CreationDate,2020-04-16T13:08:58+02:00*
G04 #@! TF.ProjectId,TGPG_breakoutboard,54475047-5f62-4726-9561-6b6f7574626f,rev?*
G04 #@! TF.SameCoordinates,Original*
G04 #@! TF.FileFunction,Soldermask,Top*
G04 #@! TF.FilePolarity,Negative*
%FSLAX46Y46*%
G04 Gerber Fmt 4.6, Leading zero omitted, Abs format (unit mm)*
G04 Created by KiCad (PCBNEW (5.1.5)-3) date 2020-04-16 13:08:58*
%MOMM*%
%LPD*%
G04 APERTURE LIST*
%ADD10C,0.600000*%
%ADD11C,0.100000*%
G04 APERTURE END LIST*
D10*
G36*
X142150000Y-92150000D02*
G01*
X137850000Y-92150000D01*
X137850000Y-87850000D01*
X142150000Y-87850000D01*
X142150000Y-92150000D01*
G37*
X142150000Y-92150000D02*
X137850000Y-92150000D01*
X137850000Y-87850000D01*
X142150000Y-87850000D01*
X142150000Y-92150000D01*
D11*
G36*
X179719166Y-122762321D02*
G01*
X180729383Y-123180767D01*
X180729385Y-123180768D01*
X180958220Y-123333671D01*
X181638556Y-123788256D01*
X182411744Y-124561444D01*
X183019233Y-125470617D01*
X183437679Y-126480834D01*
X183651000Y-127553273D01*
X183651000Y-128646727D01*
X183437679Y-129719166D01*
X183019233Y-130729383D01*
X182411744Y-131638556D01*
X181638556Y-132411744D01*
X180958220Y-132866329D01*
X180729385Y-133019232D01*
X180729384Y-133019233D01*
X180729383Y-133019233D01*
X179719166Y-133437679D01*
X178646727Y-133651000D01*
X177553273Y-133651000D01*
X176480834Y-133437679D01*
X175470617Y-133019233D01*
X175470616Y-133019233D01*
X175470615Y-133019232D01*
X175241780Y-132866329D01*
X174561444Y-132411744D01*
X173788256Y-131638556D01*
X173180767Y-130729383D01*
X172762321Y-129719166D01*
X172549000Y-128646727D01*
X172549000Y-127553273D01*
X172762321Y-126480834D01*
X173180767Y-125470617D01*
X173788256Y-124561444D01*
X174561444Y-123788256D01*
X175241780Y-123333670D01*
X175470615Y-123180768D01*
X175470617Y-123180767D01*
X176480834Y-122762321D01*
X177553273Y-122549000D01*
X178646727Y-122549000D01*
X179719166Y-122762321D01*
G37*
G36*
X103519166Y-122762321D02*
G01*
X104529383Y-123180767D01*
X104529385Y-123180768D01*
X104758220Y-123333671D01*
X105438556Y-123788256D01*
X106211744Y-124561444D01*
X106819233Y-125470617D01*
X107237679Y-126480834D01*
X107451000Y-127553273D01*
X107451000Y-128646727D01*
X107237679Y-129719166D01*
X106819233Y-130729383D01*
X106211744Y-131638556D01*
X105438556Y-132411744D01*
X104758220Y-132866329D01*
X104529385Y-133019232D01*
X104529384Y-133019233D01*
X104529383Y-133019233D01*
X103519166Y-133437679D01*
X102446727Y-133651000D01*
X101353273Y-133651000D01*
X100280834Y-133437679D01*
X99270617Y-133019233D01*
X99270616Y-133019233D01*
X99270615Y-133019232D01*
X99041780Y-132866329D01*
X98361444Y-132411744D01*
X97588256Y-131638556D01*
X96980767Y-130729383D01*
X96562321Y-129719166D01*
X96349000Y-128646727D01*
X96349000Y-127553273D01*
X96562321Y-126480834D01*
X96980767Y-125470617D01*
X97588256Y-124561444D01*
X98361444Y-123788256D01*
X99041780Y-123333670D01*
X99270615Y-123180768D01*
X99270617Y-123180767D01*
X100280834Y-122762321D01*
X101353273Y-122549000D01*
X102446727Y-122549000D01*
X103519166Y-122762321D01*
G37*
G36*
X110281938Y-120141716D02*
G01*
X110302557Y-120147971D01*
X110321553Y-120158124D01*
X110338208Y-120171792D01*
X110351876Y-120188447D01*
X110362029Y-120207443D01*
X110368284Y-120228062D01*
X110371000Y-120255640D01*
X110371000Y-120714360D01*
X110368284Y-120741938D01*
X110362029Y-120762557D01*
X110351876Y-120781553D01*
X110338208Y-120798208D01*
X110321553Y-120811876D01*
X110302557Y-120822029D01*
X110281938Y-120828284D01*
X110254360Y-120831000D01*
X109745640Y-120831000D01*
X109718062Y-120828284D01*
X109697443Y-120822029D01*
X109678447Y-120811876D01*
X109661792Y-120798208D01*
X109648124Y-120781553D01*
X109637971Y-120762557D01*
X109631716Y-120741938D01*
X109629000Y-120714360D01*
X109629000Y-120255640D01*
X109631716Y-120228062D01*
X109637971Y-120207443D01*
X109648124Y-120188447D01*
X109661792Y-120171792D01*
X109678447Y-120158124D01*
X109697443Y-120147971D01*
X109718062Y-120141716D01*
X109745640Y-120139000D01*
X110254360Y-120139000D01*
X110281938Y-120141716D01*
G37*
G36*
X150281938Y-120141716D02*
G01*
X150302557Y-120147971D01*
X150321553Y-120158124D01*
X150338208Y-120171792D01*
X150351876Y-120188447D01*
X150362029Y-120207443D01*
X150368284Y-120228062D01*
X150371000Y-120255640D01*
X150371000Y-120714360D01*
X150368284Y-120741938D01*
X150362029Y-120762557D01*
X150351876Y-120781553D01*
X150338208Y-120798208D01*
X150321553Y-120811876D01*
X150302557Y-120822029D01*
X150281938Y-120828284D01*
X150254360Y-120831000D01*
X149745640Y-120831000D01*
X149718062Y-120828284D01*
X149697443Y-120822029D01*
X149678447Y-120811876D01*
X149661792Y-120798208D01*
X149648124Y-120781553D01*
X149637971Y-120762557D01*
X149631716Y-120741938D01*
X149629000Y-120714360D01*
X149629000Y-120255640D01*
X149631716Y-120228062D01*
X149637971Y-120207443D01*
X149648124Y-120188447D01*
X149661792Y-120171792D01*
X149678447Y-120158124D01*
X149697443Y-120147971D01*
X149718062Y-120141716D01*
X149745640Y-120139000D01*
X150254360Y-120139000D01*
X150281938Y-120141716D01*
G37*
G36*
X170281938Y-120141716D02*
G01*
X170302557Y-120147971D01*
X170321553Y-120158124D01*
X170338208Y-120171792D01*
X170351876Y-120188447D01*
X170362029Y-120207443D01*
X170368284Y-120228062D01*
X170371000Y-120255640D01*
X170371000Y-120714360D01*
X170368284Y-120741938D01*
X170362029Y-120762557D01*
X170351876Y-120781553D01*
X170338208Y-120798208D01*
X170321553Y-120811876D01*
X170302557Y-120822029D01*
X170281938Y-120828284D01*
X170254360Y-120831000D01*
X169745640Y-120831000D01*
X169718062Y-120828284D01*
X169697443Y-120822029D01*
X169678447Y-120811876D01*
X169661792Y-120798208D01*
X169648124Y-120781553D01*
X169637971Y-120762557D01*
X169631716Y-120741938D01*
X169629000Y-120714360D01*
X169629000Y-120255640D01*
X169631716Y-120228062D01*
X169637971Y-120207443D01*
X169648124Y-120188447D01*
X169661792Y-120171792D01*
X169678447Y-120158124D01*
X169697443Y-120147971D01*
X169718062Y-120141716D01*
X169745640Y-120139000D01*
X170254360Y-120139000D01*
X170281938Y-120141716D01*
G37*
G36*
X130281938Y-120126716D02*
G01*
X130302557Y-120132971D01*
X130321553Y-120143124D01*
X130338208Y-120156792D01*
X130351876Y-120173447D01*
X130362029Y-120192443D01*
X130368284Y-120213062D01*
X130371000Y-120240640D01*
X130371000Y-120699360D01*
X130368284Y-120726938D01*
X130362029Y-120747557D01*
X130351876Y-120766553D01*
X130338208Y-120783208D01*
X130321553Y-120796876D01*
X130302557Y-120807029D01*
X130281938Y-120813284D01*
X130254360Y-120816000D01*
X129745640Y-120816000D01*
X129718062Y-120813284D01*
X129697443Y-120807029D01*
X129678447Y-120796876D01*
X129661792Y-120783208D01*
X129648124Y-120766553D01*
X129637971Y-120747557D01*
X129631716Y-120726938D01*
X129629000Y-120699360D01*
X129629000Y-120240640D01*
X129631716Y-120213062D01*
X129637971Y-120192443D01*
X129648124Y-120173447D01*
X129661792Y-120156792D01*
X129678447Y-120143124D01*
X129697443Y-120132971D01*
X129718062Y-120126716D01*
X129745640Y-120124000D01*
X130254360Y-120124000D01*
X130281938Y-120126716D01*
G37*
G36*
X170281938Y-119171716D02*
G01*
X170302557Y-119177971D01*
X170321553Y-119188124D01*
X170338208Y-119201792D01*
X170351876Y-119218447D01*
X170362029Y-119237443D01*
X170368284Y-119258062D01*
X170371000Y-119285640D01*
X170371000Y-119744360D01*
X170368284Y-119771938D01*
X170362029Y-119792557D01*
X170351876Y-119811553D01*
X170338208Y-119828208D01*
X170321553Y-119841876D01*
X170302557Y-119852029D01*
X170281938Y-119858284D01*
X170254360Y-119861000D01*
X169745640Y-119861000D01*
X169718062Y-119858284D01*
X169697443Y-119852029D01*
X169678447Y-119841876D01*
X169661792Y-119828208D01*
X169648124Y-119811553D01*
X169637971Y-119792557D01*
X169631716Y-119771938D01*
X169629000Y-119744360D01*
X169629000Y-119285640D01*
X169631716Y-119258062D01*
X169637971Y-119237443D01*
X169648124Y-119218447D01*
X169661792Y-119201792D01*
X169678447Y-119188124D01*
X169697443Y-119177971D01*
X169718062Y-119171716D01*
X169745640Y-119169000D01*
X170254360Y-119169000D01*
X170281938Y-119171716D01*
G37*
G36*
X150281938Y-119171716D02*
G01*
X150302557Y-119177971D01*
X150321553Y-119188124D01*
X150338208Y-119201792D01*
X150351876Y-119218447D01*
X150362029Y-119237443D01*
X150368284Y-119258062D01*
X150371000Y-119285640D01*
X150371000Y-119744360D01*
X150368284Y-119771938D01*
X150362029Y-119792557D01*
X150351876Y-119811553D01*
X150338208Y-119828208D01*
X150321553Y-119841876D01*
X150302557Y-119852029D01*
X150281938Y-119858284D01*
X150254360Y-119861000D01*
X149745640Y-119861000D01*
X149718062Y-119858284D01*
X149697443Y-119852029D01*
X149678447Y-119841876D01*
X149661792Y-119828208D01*
X149648124Y-119811553D01*
X149637971Y-119792557D01*
X149631716Y-119771938D01*
X149629000Y-119744360D01*
X149629000Y-119285640D01*
X149631716Y-119258062D01*
X149637971Y-119237443D01*
X149648124Y-119218447D01*
X149661792Y-119201792D01*
X149678447Y-119188124D01*
X149697443Y-119177971D01*
X149718062Y-119171716D01*
X149745640Y-119169000D01*
X150254360Y-119169000D01*
X150281938Y-119171716D01*
G37*
G36*
X110281938Y-119171716D02*
G01*
X110302557Y-119177971D01*
X110321553Y-119188124D01*
X110338208Y-119201792D01*
X110351876Y-119218447D01*
X110362029Y-119237443D01*
X110368284Y-119258062D01*
X110371000Y-119285640D01*
X110371000Y-119744360D01*
X110368284Y-119771938D01*
X110362029Y-119792557D01*
X110351876Y-119811553D01*
X110338208Y-119828208D01*
X110321553Y-119841876D01*
X110302557Y-119852029D01*
X110281938Y-119858284D01*
X110254360Y-119861000D01*
X109745640Y-119861000D01*
X109718062Y-119858284D01*
X109697443Y-119852029D01*
X109678447Y-119841876D01*
X109661792Y-119828208D01*
X109648124Y-119811553D01*
X109637971Y-119792557D01*
X109631716Y-119771938D01*
X109629000Y-119744360D01*
X109629000Y-119285640D01*
X109631716Y-119258062D01*
X109637971Y-119237443D01*
X109648124Y-119218447D01*
X109661792Y-119201792D01*
X109678447Y-119188124D01*
X109697443Y-119177971D01*
X109718062Y-119171716D01*
X109745640Y-119169000D01*
X110254360Y-119169000D01*
X110281938Y-119171716D01*
G37*
G36*
X130281938Y-119156716D02*
G01*
X130302557Y-119162971D01*
X130321553Y-119173124D01*
X130338208Y-119186792D01*
X130351876Y-119203447D01*
X130362029Y-119222443D01*
X130368284Y-119243062D01*
X130371000Y-119270640D01*
X130371000Y-119729360D01*
X130368284Y-119756938D01*
X130362029Y-119777557D01*
X130351876Y-119796553D01*
X130338208Y-119813208D01*
X130321553Y-119826876D01*
X130302557Y-119837029D01*
X130281938Y-119843284D01*
X130254360Y-119846000D01*
X129745640Y-119846000D01*
X129718062Y-119843284D01*
X129697443Y-119837029D01*
X129678447Y-119826876D01*
X129661792Y-119813208D01*
X129648124Y-119796553D01*
X129637971Y-119777557D01*
X129631716Y-119756938D01*
X129629000Y-119729360D01*
X129629000Y-119270640D01*
X129631716Y-119243062D01*
X129637971Y-119222443D01*
X129648124Y-119203447D01*
X129661792Y-119186792D01*
X129678447Y-119173124D01*
X129697443Y-119162971D01*
X129718062Y-119156716D01*
X129745640Y-119154000D01*
X130254360Y-119154000D01*
X130281938Y-119156716D01*
G37*
G36*
X183293512Y-101803927D02*
G01*
X183442812Y-101833624D01*
X183606784Y-101901544D01*
X183754354Y-102000147D01*
X183879853Y-102125646D01*
X183978456Y-102273216D01*
X184046376Y-102437188D01*
X184081000Y-102611259D01*
X184081000Y-102788741D01*
X184046376Y-102962812D01*
X183978456Y-103126784D01*
X183879853Y-103274354D01*
X183754354Y-103399853D01*
X183606784Y-103498456D01*
X183442812Y-103566376D01*
X183293512Y-103596073D01*
X183268742Y-103601000D01*
X183091258Y-103601000D01*
X183066488Y-103596073D01*
X182917188Y-103566376D01*
X182753216Y-103498456D01*
X182605646Y-103399853D01*
X182480147Y-103274354D01*
X182381544Y-103126784D01*
X182313624Y-102962812D01*
X182279000Y-102788741D01*
X182279000Y-102611259D01*
X182313624Y-102437188D01*
X182381544Y-102273216D01*
X182480147Y-102125646D01*
X182605646Y-102000147D01*
X182753216Y-101901544D01*
X182917188Y-101833624D01*
X183066488Y-101803927D01*
X183091258Y-101799000D01*
X183268742Y-101799000D01*
X183293512Y-101803927D01*
G37*
G36*
X183293512Y-99263927D02*
G01*
X183442812Y-99293624D01*
X183606784Y-99361544D01*
X183754354Y-99460147D01*
X183879853Y-99585646D01*
X183978456Y-99733216D01*
X184046376Y-99897188D01*
X184081000Y-100071259D01*
X184081000Y-100248741D01*
X184046376Y-100422812D01*
X183978456Y-100586784D01*
X183879853Y-100734354D01*
X183754354Y-100859853D01*
X183606784Y-100958456D01*
X183442812Y-101026376D01*
X183293512Y-101056073D01*
X183268742Y-101061000D01*
X183091258Y-101061000D01*
X183066488Y-101056073D01*
X182917188Y-101026376D01*
X182753216Y-100958456D01*
X182605646Y-100859853D01*
X182480147Y-100734354D01*
X182381544Y-100586784D01*
X182313624Y-100422812D01*
X182279000Y-100248741D01*
X182279000Y-100071259D01*
X182313624Y-99897188D01*
X182381544Y-99733216D01*
X182480147Y-99585646D01*
X182605646Y-99460147D01*
X182753216Y-99361544D01*
X182917188Y-99293624D01*
X183066488Y-99263927D01*
X183091258Y-99259000D01*
X183268742Y-99259000D01*
X183293512Y-99263927D01*
G37*
G36*
X170281938Y-100141716D02*
G01*
X170302557Y-100147971D01*
X170321553Y-100158124D01*
X170338208Y-100171792D01*
X170351876Y-100188447D01*
X170362029Y-100207443D01*
X170368284Y-100228062D01*
X170371000Y-100255640D01*
X170371000Y-100714360D01*
X170368284Y-100741938D01*
X170362029Y-100762557D01*
X170351876Y-100781553D01*
X170338208Y-100798208D01*
X170321553Y-100811876D01*
X170302557Y-100822029D01*
X170281938Y-100828284D01*
X170254360Y-100831000D01*
X169745640Y-100831000D01*
X169718062Y-100828284D01*
X169697443Y-100822029D01*
X169678447Y-100811876D01*
X169661792Y-100798208D01*
X169648124Y-100781553D01*
X169637971Y-100762557D01*
X169631716Y-100741938D01*
X169629000Y-100714360D01*
X169629000Y-100255640D01*
X169631716Y-100228062D01*
X169637971Y-100207443D01*
X169648124Y-100188447D01*
X169661792Y-100171792D01*
X169678447Y-100158124D01*
X169697443Y-100147971D01*
X169718062Y-100141716D01*
X169745640Y-100139000D01*
X170254360Y-100139000D01*
X170281938Y-100141716D01*
G37*
G36*
X150281938Y-100141716D02*
G01*
X150302557Y-100147971D01*
X150321553Y-100158124D01*
X150338208Y-100171792D01*
X150351876Y-100188447D01*
X150362029Y-100207443D01*
X150368284Y-100228062D01*
X150371000Y-100255640D01*
X150371000Y-100714360D01*
X150368284Y-100741938D01*
X150362029Y-100762557D01*
X150351876Y-100781553D01*
X150338208Y-100798208D01*
X150321553Y-100811876D01*
X150302557Y-100822029D01*
X150281938Y-100828284D01*
X150254360Y-100831000D01*
X149745640Y-100831000D01*
X149718062Y-100828284D01*
X149697443Y-100822029D01*
X149678447Y-100811876D01*
X149661792Y-100798208D01*
X149648124Y-100781553D01*
X149637971Y-100762557D01*
X149631716Y-100741938D01*
X149629000Y-100714360D01*
X149629000Y-100255640D01*
X149631716Y-100228062D01*
X149637971Y-100207443D01*
X149648124Y-100188447D01*
X149661792Y-100171792D01*
X149678447Y-100158124D01*
X149697443Y-100147971D01*
X149718062Y-100141716D01*
X149745640Y-100139000D01*
X150254360Y-100139000D01*
X150281938Y-100141716D01*
G37*
G36*
X110281938Y-100141716D02*
G01*
X110302557Y-100147971D01*
X110321553Y-100158124D01*
X110338208Y-100171792D01*
X110351876Y-100188447D01*
X110362029Y-100207443D01*
X110368284Y-100228062D01*
X110371000Y-100255640D01*
X110371000Y-100714360D01*
X110368284Y-100741938D01*
X110362029Y-100762557D01*
X110351876Y-100781553D01*
X110338208Y-100798208D01*
X110321553Y-100811876D01*
X110302557Y-100822029D01*
X110281938Y-100828284D01*
X110254360Y-100831000D01*
X109745640Y-100831000D01*
X109718062Y-100828284D01*
X109697443Y-100822029D01*
X109678447Y-100811876D01*
X109661792Y-100798208D01*
X109648124Y-100781553D01*
X109637971Y-100762557D01*
X109631716Y-100741938D01*
X109629000Y-100714360D01*
X109629000Y-100255640D01*
X109631716Y-100228062D01*
X109637971Y-100207443D01*
X109648124Y-100188447D01*
X109661792Y-100171792D01*
X109678447Y-100158124D01*
X109697443Y-100147971D01*
X109718062Y-100141716D01*
X109745640Y-100139000D01*
X110254360Y-100139000D01*
X110281938Y-100141716D01*
G37*
G36*
X130281938Y-100126716D02*
G01*
X130302557Y-100132971D01*
X130321553Y-100143124D01*
X130338208Y-100156792D01*
X130351876Y-100173447D01*
X130362029Y-100192443D01*
X130368284Y-100213062D01*
X130371000Y-100240640D01*
X130371000Y-100699360D01*
X130368284Y-100726938D01*
X130362029Y-100747557D01*
X130351876Y-100766553D01*
X130338208Y-100783208D01*
X130321553Y-100796876D01*
X130302557Y-100807029D01*
X130281938Y-100813284D01*
X130254360Y-100816000D01*
X129745640Y-100816000D01*
X129718062Y-100813284D01*
X129697443Y-100807029D01*
X129678447Y-100796876D01*
X129661792Y-100783208D01*
X129648124Y-100766553D01*
X129637971Y-100747557D01*
X129631716Y-100726938D01*
X129629000Y-100699360D01*
X129629000Y-100240640D01*
X129631716Y-100213062D01*
X129637971Y-100192443D01*
X129648124Y-100173447D01*
X129661792Y-100156792D01*
X129678447Y-100143124D01*
X129697443Y-100132971D01*
X129718062Y-100126716D01*
X129745640Y-100124000D01*
X130254360Y-100124000D01*
X130281938Y-100126716D01*
G37*
G36*
X150281938Y-99171716D02*
G01*
X150302557Y-99177971D01*
X150321553Y-99188124D01*
X150338208Y-99201792D01*
X150351876Y-99218447D01*
X150362029Y-99237443D01*
X150368284Y-99258062D01*
X150371000Y-99285640D01*
X150371000Y-99744360D01*
X150368284Y-99771938D01*
X150362029Y-99792557D01*
X150351876Y-99811553D01*
X150338208Y-99828208D01*
X150321553Y-99841876D01*
X150302557Y-99852029D01*
X150281938Y-99858284D01*
X150254360Y-99861000D01*
X149745640Y-99861000D01*
X149718062Y-99858284D01*
X149697443Y-99852029D01*
X149678447Y-99841876D01*
X149661792Y-99828208D01*
X149648124Y-99811553D01*
X149637971Y-99792557D01*
X149631716Y-99771938D01*
X149629000Y-99744360D01*
X149629000Y-99285640D01*
X149631716Y-99258062D01*
X149637971Y-99237443D01*
X149648124Y-99218447D01*
X149661792Y-99201792D01*
X149678447Y-99188124D01*
X149697443Y-99177971D01*
X149718062Y-99171716D01*
X149745640Y-99169000D01*
X150254360Y-99169000D01*
X150281938Y-99171716D01*
G37*
G36*
X170281938Y-99171716D02*
G01*
X170302557Y-99177971D01*
X170321553Y-99188124D01*
X170338208Y-99201792D01*
X170351876Y-99218447D01*
X170362029Y-99237443D01*
X170368284Y-99258062D01*
X170371000Y-99285640D01*
X170371000Y-99744360D01*
X170368284Y-99771938D01*
X170362029Y-99792557D01*
X170351876Y-99811553D01*
X170338208Y-99828208D01*
X170321553Y-99841876D01*
X170302557Y-99852029D01*
X170281938Y-99858284D01*
X170254360Y-99861000D01*
X169745640Y-99861000D01*
X169718062Y-99858284D01*
X169697443Y-99852029D01*
X169678447Y-99841876D01*
X169661792Y-99828208D01*
X169648124Y-99811553D01*
X169637971Y-99792557D01*
X169631716Y-99771938D01*
X169629000Y-99744360D01*
X169629000Y-99285640D01*
X169631716Y-99258062D01*
X169637971Y-99237443D01*
X169648124Y-99218447D01*
X169661792Y-99201792D01*
X169678447Y-99188124D01*
X169697443Y-99177971D01*
X169718062Y-99171716D01*
X169745640Y-99169000D01*
X170254360Y-99169000D01*
X170281938Y-99171716D01*
G37*
G36*
X110281938Y-99171716D02*
G01*
X110302557Y-99177971D01*
X110321553Y-99188124D01*
X110338208Y-99201792D01*
X110351876Y-99218447D01*
X110362029Y-99237443D01*
X110368284Y-99258062D01*
X110371000Y-99285640D01*
X110371000Y-99744360D01*
X110368284Y-99771938D01*
X110362029Y-99792557D01*
X110351876Y-99811553D01*
X110338208Y-99828208D01*
X110321553Y-99841876D01*
X110302557Y-99852029D01*
X110281938Y-99858284D01*
X110254360Y-99861000D01*
X109745640Y-99861000D01*
X109718062Y-99858284D01*
X109697443Y-99852029D01*
X109678447Y-99841876D01*
X109661792Y-99828208D01*
X109648124Y-99811553D01*
X109637971Y-99792557D01*
X109631716Y-99771938D01*
X109629000Y-99744360D01*
X109629000Y-99285640D01*
X109631716Y-99258062D01*
X109637971Y-99237443D01*
X109648124Y-99218447D01*
X109661792Y-99201792D01*
X109678447Y-99188124D01*
X109697443Y-99177971D01*
X109718062Y-99171716D01*
X109745640Y-99169000D01*
X110254360Y-99169000D01*
X110281938Y-99171716D01*
G37*
G36*
X130281938Y-99156716D02*
G01*
X130302557Y-99162971D01*
X130321553Y-99173124D01*
X130338208Y-99186792D01*
X130351876Y-99203447D01*
X130362029Y-99222443D01*
X130368284Y-99243062D01*
X130371000Y-99270640D01*
X130371000Y-99729360D01*
X130368284Y-99756938D01*
X130362029Y-99777557D01*
X130351876Y-99796553D01*
X130338208Y-99813208D01*
X130321553Y-99826876D01*
X130302557Y-99837029D01*
X130281938Y-99843284D01*
X130254360Y-99846000D01*
X129745640Y-99846000D01*
X129718062Y-99843284D01*
X129697443Y-99837029D01*
X129678447Y-99826876D01*
X129661792Y-99813208D01*
X129648124Y-99796553D01*
X129637971Y-99777557D01*
X129631716Y-99756938D01*
X129629000Y-99729360D01*
X129629000Y-99270640D01*
X129631716Y-99243062D01*
X129637971Y-99222443D01*
X129648124Y-99203447D01*
X129661792Y-99186792D01*
X129678447Y-99173124D01*
X129697443Y-99162971D01*
X129718062Y-99156716D01*
X129745640Y-99154000D01*
X130254360Y-99154000D01*
X130281938Y-99156716D01*
G37*
G36*
X183293512Y-96723927D02*
G01*
X183442812Y-96753624D01*
X183606784Y-96821544D01*
X183754354Y-96920147D01*
X183879853Y-97045646D01*
X183978456Y-97193216D01*
X184046376Y-97357188D01*
X184081000Y-97531259D01*
X184081000Y-97708741D01*
X184046376Y-97882812D01*
X183978456Y-98046784D01*
X183879853Y-98194354D01*
X183754354Y-98319853D01*
X183606784Y-98418456D01*
X183442812Y-98486376D01*
X183293512Y-98516073D01*
X183268742Y-98521000D01*
X183091258Y-98521000D01*
X183066488Y-98516073D01*
X182917188Y-98486376D01*
X182753216Y-98418456D01*
X182605646Y-98319853D01*
X182480147Y-98194354D01*
X182381544Y-98046784D01*
X182313624Y-97882812D01*
X182279000Y-97708741D01*
X182279000Y-97531259D01*
X182313624Y-97357188D01*
X182381544Y-97193216D01*
X182480147Y-97045646D01*
X182605646Y-96920147D01*
X182753216Y-96821544D01*
X182917188Y-96753624D01*
X183066488Y-96723927D01*
X183091258Y-96719000D01*
X183268742Y-96719000D01*
X183293512Y-96723927D01*
G37*
G36*
X183293512Y-94183927D02*
G01*
X183442812Y-94213624D01*
X183606784Y-94281544D01*
X183754354Y-94380147D01*
X183879853Y-94505646D01*
X183978456Y-94653216D01*
X184046376Y-94817188D01*
X184081000Y-94991259D01*
X184081000Y-95168741D01*
X184046376Y-95342812D01*
X183978456Y-95506784D01*
X183879853Y-95654354D01*
X183754354Y-95779853D01*
X183606784Y-95878456D01*
X183442812Y-95946376D01*
X183293512Y-95976073D01*
X183268742Y-95981000D01*
X183091258Y-95981000D01*
X183066488Y-95976073D01*
X182917188Y-95946376D01*
X182753216Y-95878456D01*
X182605646Y-95779853D01*
X182480147Y-95654354D01*
X182381544Y-95506784D01*
X182313624Y-95342812D01*
X182279000Y-95168741D01*
X182279000Y-94991259D01*
X182313624Y-94817188D01*
X182381544Y-94653216D01*
X182480147Y-94505646D01*
X182605646Y-94380147D01*
X182753216Y-94281544D01*
X182917188Y-94213624D01*
X183066488Y-94183927D01*
X183091258Y-94179000D01*
X183268742Y-94179000D01*
X183293512Y-94183927D01*
G37*
G36*
X140681938Y-94226716D02*
G01*
X140702557Y-94232971D01*
X140721553Y-94243124D01*
X140738208Y-94256792D01*
X140751876Y-94273447D01*
X140762029Y-94292443D01*
X140768284Y-94313062D01*
X140771000Y-94340640D01*
X140771000Y-94799360D01*
X140768284Y-94826938D01*
X140762029Y-94847557D01*
X140751876Y-94866553D01*
X140738208Y-94883208D01*
X140721553Y-94896876D01*
X140702557Y-94907029D01*
X140681938Y-94913284D01*
X140654360Y-94916000D01*
X140145640Y-94916000D01*
X140118062Y-94913284D01*
X140097443Y-94907029D01*
X140078447Y-94896876D01*
X140061792Y-94883208D01*
X140048124Y-94866553D01*
X140037971Y-94847557D01*
X140031716Y-94826938D01*
X140029000Y-94799360D01*
X140029000Y-94340640D01*
X140031716Y-94313062D01*
X140037971Y-94292443D01*
X140048124Y-94273447D01*
X140061792Y-94256792D01*
X140078447Y-94243124D01*
X140097443Y-94232971D01*
X140118062Y-94226716D01*
X140145640Y-94224000D01*
X140654360Y-94224000D01*
X140681938Y-94226716D01*
G37*
G36*
X141681938Y-94226716D02*
G01*
X141702557Y-94232971D01*
X141721553Y-94243124D01*
X141738208Y-94256792D01*
X141751876Y-94273447D01*
X141762029Y-94292443D01*
X141768284Y-94313062D01*
X141771000Y-94340640D01*
X141771000Y-94799360D01*
X141768284Y-94826938D01*
X141762029Y-94847557D01*
X141751876Y-94866553D01*
X141738208Y-94883208D01*
X141721553Y-94896876D01*
X141702557Y-94907029D01*
X141681938Y-94913284D01*
X141654360Y-94916000D01*
X141145640Y-94916000D01*
X141118062Y-94913284D01*
X141097443Y-94907029D01*
X141078447Y-94896876D01*
X141061792Y-94883208D01*
X141048124Y-94866553D01*
X141037971Y-94847557D01*
X141031716Y-94826938D01*
X141029000Y-94799360D01*
X141029000Y-94340640D01*
X141031716Y-94313062D01*
X141037971Y-94292443D01*
X141048124Y-94273447D01*
X141061792Y-94256792D01*
X141078447Y-94243124D01*
X141097443Y-94232971D01*
X141118062Y-94226716D01*
X141145640Y-94224000D01*
X141654360Y-94224000D01*
X141681938Y-94226716D01*
G37*
G36*
X139681938Y-94226716D02*
G01*
X139702557Y-94232971D01*
X139721553Y-94243124D01*
X139738208Y-94256792D01*
X139751876Y-94273447D01*
X139762029Y-94292443D01*
X139768284Y-94313062D01*
X139771000Y-94340640D01*
X139771000Y-94799360D01*
X139768284Y-94826938D01*
X139762029Y-94847557D01*
X139751876Y-94866553D01*
X139738208Y-94883208D01*
X139721553Y-94896876D01*
X139702557Y-94907029D01*
X139681938Y-94913284D01*
X139654360Y-94916000D01*
X139145640Y-94916000D01*
X139118062Y-94913284D01*
X139097443Y-94907029D01*
X139078447Y-94896876D01*
X139061792Y-94883208D01*
X139048124Y-94866553D01*
X139037971Y-94847557D01*
X139031716Y-94826938D01*
X139029000Y-94799360D01*
X139029000Y-94340640D01*
X139031716Y-94313062D01*
X139037971Y-94292443D01*
X139048124Y-94273447D01*
X139061792Y-94256792D01*
X139078447Y-94243124D01*
X139097443Y-94232971D01*
X139118062Y-94226716D01*
X139145640Y-94224000D01*
X139654360Y-94224000D01*
X139681938Y-94226716D01*
G37*
G36*
X140681938Y-93256716D02*
G01*
X140702557Y-93262971D01*
X140721553Y-93273124D01*
X140738208Y-93286792D01*
X140751876Y-93303447D01*
X140762029Y-93322443D01*
X140768284Y-93343062D01*
X140771000Y-93370640D01*
X140771000Y-93829360D01*
X140768284Y-93856938D01*
X140762029Y-93877557D01*
X140751876Y-93896553D01*
X140738208Y-93913208D01*
X140721553Y-93926876D01*
X140702557Y-93937029D01*
X140681938Y-93943284D01*
X140654360Y-93946000D01*
X140145640Y-93946000D01*
X140118062Y-93943284D01*
X140097443Y-93937029D01*
X140078447Y-93926876D01*
X140061792Y-93913208D01*
X140048124Y-93896553D01*
X140037971Y-93877557D01*
X140031716Y-93856938D01*
X140029000Y-93829360D01*
X140029000Y-93370640D01*
X140031716Y-93343062D01*
X140037971Y-93322443D01*
X140048124Y-93303447D01*
X140061792Y-93286792D01*
X140078447Y-93273124D01*
X140097443Y-93262971D01*
X140118062Y-93256716D01*
X140145640Y-93254000D01*
X140654360Y-93254000D01*
X140681938Y-93256716D01*
G37*
G36*
X141681938Y-93256716D02*
G01*
X141702557Y-93262971D01*
X141721553Y-93273124D01*
X141738208Y-93286792D01*
X141751876Y-93303447D01*
X141762029Y-93322443D01*
X141768284Y-93343062D01*
X141771000Y-93370640D01*
X141771000Y-93829360D01*
X141768284Y-93856938D01*
X141762029Y-93877557D01*
X141751876Y-93896553D01*
X141738208Y-93913208D01*
X141721553Y-93926876D01*
X141702557Y-93937029D01*
X141681938Y-93943284D01*
X141654360Y-93946000D01*
X141145640Y-93946000D01*
X141118062Y-93943284D01*
X141097443Y-93937029D01*
X141078447Y-93926876D01*
X141061792Y-93913208D01*
X141048124Y-93896553D01*
X141037971Y-93877557D01*
X141031716Y-93856938D01*
X141029000Y-93829360D01*
X141029000Y-93370640D01*
X141031716Y-93343062D01*
X141037971Y-93322443D01*
X141048124Y-93303447D01*
X141061792Y-93286792D01*
X141078447Y-93273124D01*
X141097443Y-93262971D01*
X141118062Y-93256716D01*
X141145640Y-93254000D01*
X141654360Y-93254000D01*
X141681938Y-93256716D01*
G37*
G36*
X139681938Y-93256716D02*
G01*
X139702557Y-93262971D01*
X139721553Y-93273124D01*
X139738208Y-93286792D01*
X139751876Y-93303447D01*
X139762029Y-93322443D01*
X139768284Y-93343062D01*
X139771000Y-93370640D01*
X139771000Y-93829360D01*
X139768284Y-93856938D01*
X139762029Y-93877557D01*
X139751876Y-93896553D01*
X139738208Y-93913208D01*
X139721553Y-93926876D01*
X139702557Y-93937029D01*
X139681938Y-93943284D01*
X139654360Y-93946000D01*
X139145640Y-93946000D01*
X139118062Y-93943284D01*
X139097443Y-93937029D01*
X139078447Y-93926876D01*
X139061792Y-93913208D01*
X139048124Y-93896553D01*
X139037971Y-93877557D01*
X139031716Y-93856938D01*
X139029000Y-93829360D01*
X139029000Y-93370640D01*
X139031716Y-93343062D01*
X139037971Y-93322443D01*
X139048124Y-93303447D01*
X139061792Y-93286792D01*
X139078447Y-93273124D01*
X139097443Y-93262971D01*
X139118062Y-93256716D01*
X139145640Y-93254000D01*
X139654360Y-93254000D01*
X139681938Y-93256716D01*
G37*
G36*
X184081000Y-93441000D02*
G01*
X182279000Y-93441000D01*
X182279000Y-91639000D01*
X184081000Y-91639000D01*
X184081000Y-93441000D01*
G37*
G36*
X142102500Y-88032501D02*
G01*
X142104902Y-88056887D01*
X142112015Y-88080336D01*
X142123566Y-88101947D01*
X142139111Y-88120889D01*
X142158053Y-88136434D01*
X142179664Y-88147985D01*
X142203113Y-88155098D01*
X142227499Y-88157500D01*
X142450000Y-88157500D01*
X142450000Y-91832500D01*
X142217499Y-91832500D01*
X142193113Y-91834902D01*
X142169664Y-91842015D01*
X142148053Y-91853566D01*
X142129111Y-91869111D01*
X142113566Y-91888053D01*
X142102015Y-91909664D01*
X142094902Y-91933113D01*
X142092500Y-91957499D01*
X142092500Y-92450000D01*
X137917500Y-92450000D01*
X137917500Y-91967499D01*
X137915098Y-91943113D01*
X137907985Y-91919664D01*
X137896434Y-91898053D01*
X137880889Y-91879111D01*
X137861947Y-91863566D01*
X137840336Y-91852015D01*
X137816887Y-91844902D01*
X137792501Y-91842500D01*
X137550000Y-91842500D01*
X137550000Y-88167500D01*
X137802501Y-88167500D01*
X137826887Y-88165098D01*
X137850336Y-88157985D01*
X137871947Y-88146434D01*
X137890889Y-88130889D01*
X137906434Y-88111947D01*
X137917985Y-88090336D01*
X137925098Y-88066887D01*
X137927500Y-88042501D01*
X137927500Y-87550000D01*
X142102500Y-87550000D01*
X142102500Y-88032501D01*
G37*
G36*
X151071938Y-91231716D02*
G01*
X151092557Y-91237971D01*
X151111553Y-91248124D01*
X151128208Y-91261792D01*
X151141876Y-91278447D01*
X151152029Y-91297443D01*
X151158284Y-91318062D01*
X151161000Y-91345640D01*
X151161000Y-91854360D01*
X151158284Y-91881938D01*
X151152029Y-91902557D01*
X151141876Y-91921553D01*
X151128208Y-91938208D01*
X151111553Y-91951876D01*
X151092557Y-91962029D01*
X151071938Y-91968284D01*
X151044360Y-91971000D01*
X150585640Y-91971000D01*
X150558062Y-91968284D01*
X150537443Y-91962029D01*
X150518447Y-91951876D01*
X150501792Y-91938208D01*
X150488124Y-91921553D01*
X150477971Y-91902557D01*
X150471716Y-91881938D01*
X150469000Y-91854360D01*
X150469000Y-91345640D01*
X150471716Y-91318062D01*
X150477971Y-91297443D01*
X150488124Y-91278447D01*
X150501792Y-91261792D01*
X150518447Y-91248124D01*
X150537443Y-91237971D01*
X150558062Y-91231716D01*
X150585640Y-91229000D01*
X151044360Y-91229000D01*
X151071938Y-91231716D01*
G37*
G36*
X152041938Y-91231716D02*
G01*
X152062557Y-91237971D01*
X152081553Y-91248124D01*
X152098208Y-91261792D01*
X152111876Y-91278447D01*
X152122029Y-91297443D01*
X152128284Y-91318062D01*
X152131000Y-91345640D01*
X152131000Y-91854360D01*
X152128284Y-91881938D01*
X152122029Y-91902557D01*
X152111876Y-91921553D01*
X152098208Y-91938208D01*
X152081553Y-91951876D01*
X152062557Y-91962029D01*
X152041938Y-91968284D01*
X152014360Y-91971000D01*
X151555640Y-91971000D01*
X151528062Y-91968284D01*
X151507443Y-91962029D01*
X151488447Y-91951876D01*
X151471792Y-91938208D01*
X151458124Y-91921553D01*
X151447971Y-91902557D01*
X151441716Y-91881938D01*
X151439000Y-91854360D01*
X151439000Y-91345640D01*
X151441716Y-91318062D01*
X151447971Y-91297443D01*
X151458124Y-91278447D01*
X151471792Y-91261792D01*
X151488447Y-91248124D01*
X151507443Y-91237971D01*
X151528062Y-91231716D01*
X151555640Y-91229000D01*
X152014360Y-91229000D01*
X152041938Y-91231716D01*
G37*
G36*
X153071938Y-91231716D02*
G01*
X153092557Y-91237971D01*
X153111553Y-91248124D01*
X153128208Y-91261792D01*
X153141876Y-91278447D01*
X153152029Y-91297443D01*
X153158284Y-91318062D01*
X153161000Y-91345640D01*
X153161000Y-91854360D01*
X153158284Y-91881938D01*
X153152029Y-91902557D01*
X153141876Y-91921553D01*
X153128208Y-91938208D01*
X153111553Y-91951876D01*
X153092557Y-91962029D01*
X153071938Y-91968284D01*
X153044360Y-91971000D01*
X152585640Y-91971000D01*
X152558062Y-91968284D01*
X152537443Y-91962029D01*
X152518447Y-91951876D01*
X152501792Y-91938208D01*
X152488124Y-91921553D01*
X152477971Y-91902557D01*
X152471716Y-91881938D01*
X152469000Y-91854360D01*
X152469000Y-91345640D01*
X152471716Y-91318062D01*
X152477971Y-91297443D01*
X152488124Y-91278447D01*
X152501792Y-91261792D01*
X152518447Y-91248124D01*
X152537443Y-91237971D01*
X152558062Y-91231716D01*
X152585640Y-91229000D01*
X153044360Y-91229000D01*
X153071938Y-91231716D01*
G37*
G36*
X154041938Y-91231716D02*
G01*
X154062557Y-91237971D01*
X154081553Y-91248124D01*
X154098208Y-91261792D01*
X154111876Y-91278447D01*
X154122029Y-91297443D01*
X154128284Y-91318062D01*
X154131000Y-91345640D01*
X154131000Y-91854360D01*
X154128284Y-91881938D01*
X154122029Y-91902557D01*
X154111876Y-91921553D01*
X154098208Y-91938208D01*
X154081553Y-91951876D01*
X154062557Y-91962029D01*
X154041938Y-91968284D01*
X154014360Y-91971000D01*
X153555640Y-91971000D01*
X153528062Y-91968284D01*
X153507443Y-91962029D01*
X153488447Y-91951876D01*
X153471792Y-91938208D01*
X153458124Y-91921553D01*
X153447971Y-91902557D01*
X153441716Y-91881938D01*
X153439000Y-91854360D01*
X153439000Y-91345640D01*
X153441716Y-91318062D01*
X153447971Y-91297443D01*
X153458124Y-91278447D01*
X153471792Y-91261792D01*
X153488447Y-91248124D01*
X153507443Y-91237971D01*
X153528062Y-91231716D01*
X153555640Y-91229000D01*
X154014360Y-91229000D01*
X154041938Y-91231716D01*
G37*
G36*
X152041938Y-89631716D02*
G01*
X152062557Y-89637971D01*
X152081553Y-89648124D01*
X152098208Y-89661792D01*
X152111876Y-89678447D01*
X152122029Y-89697443D01*
X152128284Y-89718062D01*
X152131000Y-89745640D01*
X152131000Y-90254360D01*
X152128284Y-90281938D01*
X152122029Y-90302557D01*
X152111876Y-90321553D01*
X152098208Y-90338208D01*
X152081553Y-90351876D01*
X152062557Y-90362029D01*
X152041938Y-90368284D01*
X152014360Y-90371000D01*
X151555640Y-90371000D01*
X151528062Y-90368284D01*
X151507443Y-90362029D01*
X151488447Y-90351876D01*
X151471792Y-90338208D01*
X151458124Y-90321553D01*
X151447971Y-90302557D01*
X151441716Y-90281938D01*
X151439000Y-90254360D01*
X151439000Y-89745640D01*
X151441716Y-89718062D01*
X151447971Y-89697443D01*
X151458124Y-89678447D01*
X151471792Y-89661792D01*
X151488447Y-89648124D01*
X151507443Y-89637971D01*
X151528062Y-89631716D01*
X151555640Y-89629000D01*
X152014360Y-89629000D01*
X152041938Y-89631716D01*
G37*
G36*
X151071938Y-89631716D02*
G01*
X151092557Y-89637971D01*
X151111553Y-89648124D01*
X151128208Y-89661792D01*
X151141876Y-89678447D01*
X151152029Y-89697443D01*
X151158284Y-89718062D01*
X151161000Y-89745640D01*
X151161000Y-90254360D01*
X151158284Y-90281938D01*
X151152029Y-90302557D01*
X151141876Y-90321553D01*
X151128208Y-90338208D01*
X151111553Y-90351876D01*
X151092557Y-90362029D01*
X151071938Y-90368284D01*
X151044360Y-90371000D01*
X150585640Y-90371000D01*
X150558062Y-90368284D01*
X150537443Y-90362029D01*
X150518447Y-90351876D01*
X150501792Y-90338208D01*
X150488124Y-90321553D01*
X150477971Y-90302557D01*
X150471716Y-90281938D01*
X150469000Y-90254360D01*
X150469000Y-89745640D01*
X150471716Y-89718062D01*
X150477971Y-89697443D01*
X150488124Y-89678447D01*
X150501792Y-89661792D01*
X150518447Y-89648124D01*
X150537443Y-89637971D01*
X150558062Y-89631716D01*
X150585640Y-89629000D01*
X151044360Y-89629000D01*
X151071938Y-89631716D01*
G37*
G36*
X153071938Y-89631716D02*
G01*
X153092557Y-89637971D01*
X153111553Y-89648124D01*
X153128208Y-89661792D01*
X153141876Y-89678447D01*
X153152029Y-89697443D01*
X153158284Y-89718062D01*
X153161000Y-89745640D01*
X153161000Y-90254360D01*
X153158284Y-90281938D01*
X153152029Y-90302557D01*
X153141876Y-90321553D01*
X153128208Y-90338208D01*
X153111553Y-90351876D01*
X153092557Y-90362029D01*
X153071938Y-90368284D01*
X153044360Y-90371000D01*
X152585640Y-90371000D01*
X152558062Y-90368284D01*
X152537443Y-90362029D01*
X152518447Y-90351876D01*
X152501792Y-90338208D01*
X152488124Y-90321553D01*
X152477971Y-90302557D01*
X152471716Y-90281938D01*
X152469000Y-90254360D01*
X152469000Y-89745640D01*
X152471716Y-89718062D01*
X152477971Y-89697443D01*
X152488124Y-89678447D01*
X152501792Y-89661792D01*
X152518447Y-89648124D01*
X152537443Y-89637971D01*
X152558062Y-89631716D01*
X152585640Y-89629000D01*
X153044360Y-89629000D01*
X153071938Y-89631716D01*
G37*
G36*
X154041938Y-89631716D02*
G01*
X154062557Y-89637971D01*
X154081553Y-89648124D01*
X154098208Y-89661792D01*
X154111876Y-89678447D01*
X154122029Y-89697443D01*
X154128284Y-89718062D01*
X154131000Y-89745640D01*
X154131000Y-90254360D01*
X154128284Y-90281938D01*
X154122029Y-90302557D01*
X154111876Y-90321553D01*
X154098208Y-90338208D01*
X154081553Y-90351876D01*
X154062557Y-90362029D01*
X154041938Y-90368284D01*
X154014360Y-90371000D01*
X153555640Y-90371000D01*
X153528062Y-90368284D01*
X153507443Y-90362029D01*
X153488447Y-90351876D01*
X153471792Y-90338208D01*
X153458124Y-90321553D01*
X153447971Y-90302557D01*
X153441716Y-90281938D01*
X153439000Y-90254360D01*
X153439000Y-89745640D01*
X153441716Y-89718062D01*
X153447971Y-89697443D01*
X153458124Y-89678447D01*
X153471792Y-89661792D01*
X153488447Y-89648124D01*
X153507443Y-89637971D01*
X153528062Y-89631716D01*
X153555640Y-89629000D01*
X154014360Y-89629000D01*
X154041938Y-89631716D01*
G37*
G36*
X151071938Y-88631716D02*
G01*
X151092557Y-88637971D01*
X151111553Y-88648124D01*
X151128208Y-88661792D01*
X151141876Y-88678447D01*
X151152029Y-88697443D01*
X151158284Y-88718062D01*
X151161000Y-88745640D01*
X151161000Y-89254360D01*
X151158284Y-89281938D01*
X151152029Y-89302557D01*
X151141876Y-89321553D01*
X151128208Y-89338208D01*
X151111553Y-89351876D01*
X151092557Y-89362029D01*
X151071938Y-89368284D01*
X151044360Y-89371000D01*
X150585640Y-89371000D01*
X150558062Y-89368284D01*
X150537443Y-89362029D01*
X150518447Y-89351876D01*
X150501792Y-89338208D01*
X150488124Y-89321553D01*
X150477971Y-89302557D01*
X150471716Y-89281938D01*
X150469000Y-89254360D01*
X150469000Y-88745640D01*
X150471716Y-88718062D01*
X150477971Y-88697443D01*
X150488124Y-88678447D01*
X150501792Y-88661792D01*
X150518447Y-88648124D01*
X150537443Y-88637971D01*
X150558062Y-88631716D01*
X150585640Y-88629000D01*
X151044360Y-88629000D01*
X151071938Y-88631716D01*
G37*
G36*
X152041938Y-88631716D02*
G01*
X152062557Y-88637971D01*
X152081553Y-88648124D01*
X152098208Y-88661792D01*
X152111876Y-88678447D01*
X152122029Y-88697443D01*
X152128284Y-88718062D01*
X152131000Y-88745640D01*
X152131000Y-89254360D01*
X152128284Y-89281938D01*
X152122029Y-89302557D01*
X152111876Y-89321553D01*
X152098208Y-89338208D01*
X152081553Y-89351876D01*
X152062557Y-89362029D01*
X152041938Y-89368284D01*
X152014360Y-89371000D01*
X151555640Y-89371000D01*
X151528062Y-89368284D01*
X151507443Y-89362029D01*
X151488447Y-89351876D01*
X151471792Y-89338208D01*
X151458124Y-89321553D01*
X151447971Y-89302557D01*
X151441716Y-89281938D01*
X151439000Y-89254360D01*
X151439000Y-88745640D01*
X151441716Y-88718062D01*
X151447971Y-88697443D01*
X151458124Y-88678447D01*
X151471792Y-88661792D01*
X151488447Y-88648124D01*
X151507443Y-88637971D01*
X151528062Y-88631716D01*
X151555640Y-88629000D01*
X152014360Y-88629000D01*
X152041938Y-88631716D01*
G37*
G36*
X153071938Y-88631716D02*
G01*
X153092557Y-88637971D01*
X153111553Y-88648124D01*
X153128208Y-88661792D01*
X153141876Y-88678447D01*
X153152029Y-88697443D01*
X153158284Y-88718062D01*
X153161000Y-88745640D01*
X153161000Y-89254360D01*
X153158284Y-89281938D01*
X153152029Y-89302557D01*
X153141876Y-89321553D01*
X153128208Y-89338208D01*
X153111553Y-89351876D01*
X153092557Y-89362029D01*
X153071938Y-89368284D01*
X153044360Y-89371000D01*
X152585640Y-89371000D01*
X152558062Y-89368284D01*
X152537443Y-89362029D01*
X152518447Y-89351876D01*
X152501792Y-89338208D01*
X152488124Y-89321553D01*
X152477971Y-89302557D01*
X152471716Y-89281938D01*
X152469000Y-89254360D01*
X152469000Y-88745640D01*
X152471716Y-88718062D01*
X152477971Y-88697443D01*
X152488124Y-88678447D01*
X152501792Y-88661792D01*
X152518447Y-88648124D01*
X152537443Y-88637971D01*
X152558062Y-88631716D01*
X152585640Y-88629000D01*
X153044360Y-88629000D01*
X153071938Y-88631716D01*
G37*
G36*
X154041938Y-88631716D02*
G01*
X154062557Y-88637971D01*
X154081553Y-88648124D01*
X154098208Y-88661792D01*
X154111876Y-88678447D01*
X154122029Y-88697443D01*
X154128284Y-88718062D01*
X154131000Y-88745640D01*
X154131000Y-89254360D01*
X154128284Y-89281938D01*
X154122029Y-89302557D01*
X154111876Y-89321553D01*
X154098208Y-89338208D01*
X154081553Y-89351876D01*
X154062557Y-89362029D01*
X154041938Y-89368284D01*
X154014360Y-89371000D01*
X153555640Y-89371000D01*
X153528062Y-89368284D01*
X153507443Y-89362029D01*
X153488447Y-89351876D01*
X153471792Y-89338208D01*
X153458124Y-89321553D01*
X153447971Y-89302557D01*
X153441716Y-89281938D01*
X153439000Y-89254360D01*
X153439000Y-88745640D01*
X153441716Y-88718062D01*
X153447971Y-88697443D01*
X153458124Y-88678447D01*
X153471792Y-88661792D01*
X153488447Y-88648124D01*
X153507443Y-88637971D01*
X153528062Y-88631716D01*
X153555640Y-88629000D01*
X154014360Y-88629000D01*
X154041938Y-88631716D01*
G37*
G36*
X154041938Y-87631716D02*
G01*
X154062557Y-87637971D01*
X154081553Y-87648124D01*
X154098208Y-87661792D01*
X154111876Y-87678447D01*
X154122029Y-87697443D01*
X154128284Y-87718062D01*
X154131000Y-87745640D01*
X154131000Y-88254360D01*
X154128284Y-88281938D01*
X154122029Y-88302557D01*
X154111876Y-88321553D01*
X154098208Y-88338208D01*
X154081553Y-88351876D01*
X154062557Y-88362029D01*
X154041938Y-88368284D01*
X154014360Y-88371000D01*
X153555640Y-88371000D01*
X153528062Y-88368284D01*
X153507443Y-88362029D01*
X153488447Y-88351876D01*
X153471792Y-88338208D01*
X153458124Y-88321553D01*
X153447971Y-88302557D01*
X153441716Y-88281938D01*
X153439000Y-88254360D01*
X153439000Y-87745640D01*
X153441716Y-87718062D01*
X153447971Y-87697443D01*
X153458124Y-87678447D01*
X153471792Y-87661792D01*
X153488447Y-87648124D01*
X153507443Y-87637971D01*
X153528062Y-87631716D01*
X153555640Y-87629000D01*
X154014360Y-87629000D01*
X154041938Y-87631716D01*
G37*
G36*
X153071938Y-87631716D02*
G01*
X153092557Y-87637971D01*
X153111553Y-87648124D01*
X153128208Y-87661792D01*
X153141876Y-87678447D01*
X153152029Y-87697443D01*
X153158284Y-87718062D01*
X153161000Y-87745640D01*
X153161000Y-88254360D01*
X153158284Y-88281938D01*
X153152029Y-88302557D01*
X153141876Y-88321553D01*
X153128208Y-88338208D01*
X153111553Y-88351876D01*
X153092557Y-88362029D01*
X153071938Y-88368284D01*
X153044360Y-88371000D01*
X152585640Y-88371000D01*
X152558062Y-88368284D01*
X152537443Y-88362029D01*
X152518447Y-88351876D01*
X152501792Y-88338208D01*
X152488124Y-88321553D01*
X152477971Y-88302557D01*
X152471716Y-88281938D01*
X152469000Y-88254360D01*
X152469000Y-87745640D01*
X152471716Y-87718062D01*
X152477971Y-87697443D01*
X152488124Y-87678447D01*
X152501792Y-87661792D01*
X152518447Y-87648124D01*
X152537443Y-87637971D01*
X152558062Y-87631716D01*
X152585640Y-87629000D01*
X153044360Y-87629000D01*
X153071938Y-87631716D01*
G37*
G36*
X152026938Y-87631716D02*
G01*
X152047557Y-87637971D01*
X152066553Y-87648124D01*
X152083208Y-87661792D01*
X152096876Y-87678447D01*
X152107029Y-87697443D01*
X152113284Y-87718062D01*
X152116000Y-87745640D01*
X152116000Y-88254360D01*
X152113284Y-88281938D01*
X152107029Y-88302557D01*
X152096876Y-88321553D01*
X152083208Y-88338208D01*
X152066553Y-88351876D01*
X152047557Y-88362029D01*
X152026938Y-88368284D01*
X151999360Y-88371000D01*
X151540640Y-88371000D01*
X151513062Y-88368284D01*
X151492443Y-88362029D01*
X151473447Y-88351876D01*
X151456792Y-88338208D01*
X151443124Y-88321553D01*
X151432971Y-88302557D01*
X151426716Y-88281938D01*
X151424000Y-88254360D01*
X151424000Y-87745640D01*
X151426716Y-87718062D01*
X151432971Y-87697443D01*
X151443124Y-87678447D01*
X151456792Y-87661792D01*
X151473447Y-87648124D01*
X151492443Y-87637971D01*
X151513062Y-87631716D01*
X151540640Y-87629000D01*
X151999360Y-87629000D01*
X152026938Y-87631716D01*
G37*
G36*
X151056938Y-87631716D02*
G01*
X151077557Y-87637971D01*
X151096553Y-87648124D01*
X151113208Y-87661792D01*
X151126876Y-87678447D01*
X151137029Y-87697443D01*
X151143284Y-87718062D01*
X151146000Y-87745640D01*
X151146000Y-88254360D01*
X151143284Y-88281938D01*
X151137029Y-88302557D01*
X151126876Y-88321553D01*
X151113208Y-88338208D01*
X151096553Y-88351876D01*
X151077557Y-88362029D01*
X151056938Y-88368284D01*
X151029360Y-88371000D01*
X150570640Y-88371000D01*
X150543062Y-88368284D01*
X150522443Y-88362029D01*
X150503447Y-88351876D01*
X150486792Y-88338208D01*
X150473124Y-88321553D01*
X150462971Y-88302557D01*
X150456716Y-88281938D01*
X150454000Y-88254360D01*
X150454000Y-87745640D01*
X150456716Y-87718062D01*
X150462971Y-87697443D01*
X150473124Y-87678447D01*
X150486792Y-87661792D01*
X150503447Y-87648124D01*
X150522443Y-87637971D01*
X150543062Y-87631716D01*
X150570640Y-87629000D01*
X151029360Y-87629000D01*
X151056938Y-87631716D01*
G37*
G36*
X183293512Y-86563927D02*
G01*
X183442812Y-86593624D01*
X183606784Y-86661544D01*
X183754354Y-86760147D01*
X183879853Y-86885646D01*
X183978456Y-87033216D01*
X184046376Y-87197188D01*
X184081000Y-87371259D01*
X184081000Y-87548741D01*
X184046376Y-87722812D01*
X183978456Y-87886784D01*
X183879853Y-88034354D01*
X183754354Y-88159853D01*
X183606784Y-88258456D01*
X183442812Y-88326376D01*
X183293512Y-88356073D01*
X183268742Y-88361000D01*
X183091258Y-88361000D01*
X183066488Y-88356073D01*
X182917188Y-88326376D01*
X182753216Y-88258456D01*
X182605646Y-88159853D01*
X182480147Y-88034354D01*
X182381544Y-87886784D01*
X182313624Y-87722812D01*
X182279000Y-87548741D01*
X182279000Y-87371259D01*
X182313624Y-87197188D01*
X182381544Y-87033216D01*
X182480147Y-86885646D01*
X182605646Y-86760147D01*
X182753216Y-86661544D01*
X182917188Y-86593624D01*
X183066488Y-86563927D01*
X183091258Y-86559000D01*
X183268742Y-86559000D01*
X183293512Y-86563927D01*
G37*
G36*
X187541000Y-88011000D02*
G01*
X186439000Y-88011000D01*
X186439000Y-86909000D01*
X187541000Y-86909000D01*
X187541000Y-88011000D01*
G37*
G36*
X183293512Y-84023927D02*
G01*
X183442812Y-84053624D01*
X183606784Y-84121544D01*
X183754354Y-84220147D01*
X183879853Y-84345646D01*
X183978456Y-84493216D01*
X184046376Y-84657188D01*
X184081000Y-84831259D01*
X184081000Y-85008741D01*
X184046376Y-85182812D01*
X183978456Y-85346784D01*
X183879853Y-85494354D01*
X183754354Y-85619853D01*
X183606784Y-85718456D01*
X183442812Y-85786376D01*
X183293512Y-85816073D01*
X183268742Y-85821000D01*
X183091258Y-85821000D01*
X183066488Y-85816073D01*
X182917188Y-85786376D01*
X182753216Y-85718456D01*
X182605646Y-85619853D01*
X182480147Y-85494354D01*
X182381544Y-85346784D01*
X182313624Y-85182812D01*
X182279000Y-85008741D01*
X182279000Y-84831259D01*
X182313624Y-84657188D01*
X182381544Y-84493216D01*
X182480147Y-84345646D01*
X182605646Y-84220147D01*
X182753216Y-84121544D01*
X182917188Y-84053624D01*
X183066488Y-84023927D01*
X183091258Y-84019000D01*
X183268742Y-84019000D01*
X183293512Y-84023927D01*
G37*
G36*
X187541000Y-85471000D02*
G01*
X186439000Y-85471000D01*
X186439000Y-84369000D01*
X187541000Y-84369000D01*
X187541000Y-85471000D01*
G37*
G36*
X183293512Y-81483927D02*
G01*
X183442812Y-81513624D01*
X183606784Y-81581544D01*
X183754354Y-81680147D01*
X183879853Y-81805646D01*
X183978456Y-81953216D01*
X184046376Y-82117188D01*
X184081000Y-82291259D01*
X184081000Y-82468741D01*
X184046376Y-82642812D01*
X183978456Y-82806784D01*
X183879853Y-82954354D01*
X183754354Y-83079853D01*
X183606784Y-83178456D01*
X183442812Y-83246376D01*
X183293512Y-83276073D01*
X183268742Y-83281000D01*
X183091258Y-83281000D01*
X183066488Y-83276073D01*
X182917188Y-83246376D01*
X182753216Y-83178456D01*
X182605646Y-83079853D01*
X182480147Y-82954354D01*
X182381544Y-82806784D01*
X182313624Y-82642812D01*
X182279000Y-82468741D01*
X182279000Y-82291259D01*
X182313624Y-82117188D01*
X182381544Y-81953216D01*
X182480147Y-81805646D01*
X182605646Y-81680147D01*
X182753216Y-81581544D01*
X182917188Y-81513624D01*
X183066488Y-81483927D01*
X183091258Y-81479000D01*
X183268742Y-81479000D01*
X183293512Y-81483927D01*
G37*
G36*
X130281938Y-80156716D02*
G01*
X130302557Y-80162971D01*
X130321553Y-80173124D01*
X130338208Y-80186792D01*
X130351876Y-80203447D01*
X130362029Y-80222443D01*
X130368284Y-80243062D01*
X130371000Y-80270640D01*
X130371000Y-80729360D01*
X130368284Y-80756938D01*
X130362029Y-80777557D01*
X130351876Y-80796553D01*
X130338208Y-80813208D01*
X130321553Y-80826876D01*
X130302557Y-80837029D01*
X130281938Y-80843284D01*
X130254360Y-80846000D01*
X129745640Y-80846000D01*
X129718062Y-80843284D01*
X129697443Y-80837029D01*
X129678447Y-80826876D01*
X129661792Y-80813208D01*
X129648124Y-80796553D01*
X129637971Y-80777557D01*
X129631716Y-80756938D01*
X129629000Y-80729360D01*
X129629000Y-80270640D01*
X129631716Y-80243062D01*
X129637971Y-80222443D01*
X129648124Y-80203447D01*
X129661792Y-80186792D01*
X129678447Y-80173124D01*
X129697443Y-80162971D01*
X129718062Y-80156716D01*
X129745640Y-80154000D01*
X130254360Y-80154000D01*
X130281938Y-80156716D01*
G37*
G36*
X110281938Y-80151716D02*
G01*
X110302557Y-80157971D01*
X110321553Y-80168124D01*
X110338208Y-80181792D01*
X110351876Y-80198447D01*
X110362029Y-80217443D01*
X110368284Y-80238062D01*
X110371000Y-80265640D01*
X110371000Y-80724360D01*
X110368284Y-80751938D01*
X110362029Y-80772557D01*
X110351876Y-80791553D01*
X110338208Y-80808208D01*
X110321553Y-80821876D01*
X110302557Y-80832029D01*
X110281938Y-80838284D01*
X110254360Y-80841000D01*
X109745640Y-80841000D01*
X109718062Y-80838284D01*
X109697443Y-80832029D01*
X109678447Y-80821876D01*
X109661792Y-80808208D01*
X109648124Y-80791553D01*
X109637971Y-80772557D01*
X109631716Y-80751938D01*
X109629000Y-80724360D01*
X109629000Y-80265640D01*
X109631716Y-80238062D01*
X109637971Y-80217443D01*
X109648124Y-80198447D01*
X109661792Y-80181792D01*
X109678447Y-80168124D01*
X109697443Y-80157971D01*
X109718062Y-80151716D01*
X109745640Y-80149000D01*
X110254360Y-80149000D01*
X110281938Y-80151716D01*
G37*
G36*
X150281938Y-80141716D02*
G01*
X150302557Y-80147971D01*
X150321553Y-80158124D01*
X150338208Y-80171792D01*
X150351876Y-80188447D01*
X150362029Y-80207443D01*
X150368284Y-80228062D01*
X150371000Y-80255640D01*
X150371000Y-80714360D01*
X150368284Y-80741938D01*
X150362029Y-80762557D01*
X150351876Y-80781553D01*
X150338208Y-80798208D01*
X150321553Y-80811876D01*
X150302557Y-80822029D01*
X150281938Y-80828284D01*
X150254360Y-80831000D01*
X149745640Y-80831000D01*
X149718062Y-80828284D01*
X149697443Y-80822029D01*
X149678447Y-80811876D01*
X149661792Y-80798208D01*
X149648124Y-80781553D01*
X149637971Y-80762557D01*
X149631716Y-80741938D01*
X149629000Y-80714360D01*
X149629000Y-80255640D01*
X149631716Y-80228062D01*
X149637971Y-80207443D01*
X149648124Y-80188447D01*
X149661792Y-80171792D01*
X149678447Y-80158124D01*
X149697443Y-80147971D01*
X149718062Y-80141716D01*
X149745640Y-80139000D01*
X150254360Y-80139000D01*
X150281938Y-80141716D01*
G37*
G36*
X170281938Y-80141716D02*
G01*
X170302557Y-80147971D01*
X170321553Y-80158124D01*
X170338208Y-80171792D01*
X170351876Y-80188447D01*
X170362029Y-80207443D01*
X170368284Y-80228062D01*
X170371000Y-80255640D01*
X170371000Y-80714360D01*
X170368284Y-80741938D01*
X170362029Y-80762557D01*
X170351876Y-80781553D01*
X170338208Y-80798208D01*
X170321553Y-80811876D01*
X170302557Y-80822029D01*
X170281938Y-80828284D01*
X170254360Y-80831000D01*
X169745640Y-80831000D01*
X169718062Y-80828284D01*
X169697443Y-80822029D01*
X169678447Y-80811876D01*
X169661792Y-80798208D01*
X169648124Y-80781553D01*
X169637971Y-80762557D01*
X169631716Y-80741938D01*
X169629000Y-80714360D01*
X169629000Y-80255640D01*
X169631716Y-80228062D01*
X169637971Y-80207443D01*
X169648124Y-80188447D01*
X169661792Y-80171792D01*
X169678447Y-80158124D01*
X169697443Y-80147971D01*
X169718062Y-80141716D01*
X169745640Y-80139000D01*
X170254360Y-80139000D01*
X170281938Y-80141716D01*
G37*
G36*
X184081000Y-80741000D02*
G01*
X182279000Y-80741000D01*
X182279000Y-78939000D01*
X184081000Y-78939000D01*
X184081000Y-80741000D01*
G37*
G36*
X130281938Y-79186716D02*
G01*
X130302557Y-79192971D01*
X130321553Y-79203124D01*
X130338208Y-79216792D01*
X130351876Y-79233447D01*
X130362029Y-79252443D01*
X130368284Y-79273062D01*
X130371000Y-79300640D01*
X130371000Y-79759360D01*
X130368284Y-79786938D01*
X130362029Y-79807557D01*
X130351876Y-79826553D01*
X130338208Y-79843208D01*
X130321553Y-79856876D01*
X130302557Y-79867029D01*
X130281938Y-79873284D01*
X130254360Y-79876000D01*
X129745640Y-79876000D01*
X129718062Y-79873284D01*
X129697443Y-79867029D01*
X129678447Y-79856876D01*
X129661792Y-79843208D01*
X129648124Y-79826553D01*
X129637971Y-79807557D01*
X129631716Y-79786938D01*
X129629000Y-79759360D01*
X129629000Y-79300640D01*
X129631716Y-79273062D01*
X129637971Y-79252443D01*
X129648124Y-79233447D01*
X129661792Y-79216792D01*
X129678447Y-79203124D01*
X129697443Y-79192971D01*
X129718062Y-79186716D01*
X129745640Y-79184000D01*
X130254360Y-79184000D01*
X130281938Y-79186716D01*
G37*
G36*
X110281938Y-79181716D02*
G01*
X110302557Y-79187971D01*
X110321553Y-79198124D01*
X110338208Y-79211792D01*
X110351876Y-79228447D01*
X110362029Y-79247443D01*
X110368284Y-79268062D01*
X110371000Y-79295640D01*
X110371000Y-79754360D01*
X110368284Y-79781938D01*
X110362029Y-79802557D01*
X110351876Y-79821553D01*
X110338208Y-79838208D01*
X110321553Y-79851876D01*
X110302557Y-79862029D01*
X110281938Y-79868284D01*
X110254360Y-79871000D01*
X109745640Y-79871000D01*
X109718062Y-79868284D01*
X109697443Y-79862029D01*
X109678447Y-79851876D01*
X109661792Y-79838208D01*
X109648124Y-79821553D01*
X109637971Y-79802557D01*
X109631716Y-79781938D01*
X109629000Y-79754360D01*
X109629000Y-79295640D01*
X109631716Y-79268062D01*
X109637971Y-79247443D01*
X109648124Y-79228447D01*
X109661792Y-79211792D01*
X109678447Y-79198124D01*
X109697443Y-79187971D01*
X109718062Y-79181716D01*
X109745640Y-79179000D01*
X110254360Y-79179000D01*
X110281938Y-79181716D01*
G37*
G36*
X150281938Y-79171716D02*
G01*
X150302557Y-79177971D01*
X150321553Y-79188124D01*
X150338208Y-79201792D01*
X150351876Y-79218447D01*
X150362029Y-79237443D01*
X150368284Y-79258062D01*
X150371000Y-79285640D01*
X150371000Y-79744360D01*
X150368284Y-79771938D01*
X150362029Y-79792557D01*
X150351876Y-79811553D01*
X150338208Y-79828208D01*
X150321553Y-79841876D01*
X150302557Y-79852029D01*
X150281938Y-79858284D01*
X150254360Y-79861000D01*
X149745640Y-79861000D01*
X149718062Y-79858284D01*
X149697443Y-79852029D01*
X149678447Y-79841876D01*
X149661792Y-79828208D01*
X149648124Y-79811553D01*
X149637971Y-79792557D01*
X149631716Y-79771938D01*
X149629000Y-79744360D01*
X149629000Y-79285640D01*
X149631716Y-79258062D01*
X149637971Y-79237443D01*
X149648124Y-79218447D01*
X149661792Y-79201792D01*
X149678447Y-79188124D01*
X149697443Y-79177971D01*
X149718062Y-79171716D01*
X149745640Y-79169000D01*
X150254360Y-79169000D01*
X150281938Y-79171716D01*
G37*
G36*
X170281938Y-79171716D02*
G01*
X170302557Y-79177971D01*
X170321553Y-79188124D01*
X170338208Y-79201792D01*
X170351876Y-79218447D01*
X170362029Y-79237443D01*
X170368284Y-79258062D01*
X170371000Y-79285640D01*
X170371000Y-79744360D01*
X170368284Y-79771938D01*
X170362029Y-79792557D01*
X170351876Y-79811553D01*
X170338208Y-79828208D01*
X170321553Y-79841876D01*
X170302557Y-79852029D01*
X170281938Y-79858284D01*
X170254360Y-79861000D01*
X169745640Y-79861000D01*
X169718062Y-79858284D01*
X169697443Y-79852029D01*
X169678447Y-79841876D01*
X169661792Y-79828208D01*
X169648124Y-79811553D01*
X169637971Y-79792557D01*
X169631716Y-79771938D01*
X169629000Y-79744360D01*
X169629000Y-79285640D01*
X169631716Y-79258062D01*
X169637971Y-79237443D01*
X169648124Y-79218447D01*
X169661792Y-79201792D01*
X169678447Y-79188124D01*
X169697443Y-79177971D01*
X169718062Y-79171716D01*
X169745640Y-79169000D01*
X170254360Y-79169000D01*
X170281938Y-79171716D01*
G37*
G36*
X183921938Y-74391716D02*
G01*
X183942557Y-74397971D01*
X183961553Y-74408124D01*
X183978208Y-74421792D01*
X183991876Y-74438447D01*
X184002029Y-74457443D01*
X184008284Y-74478062D01*
X184011000Y-74505640D01*
X184011000Y-75014360D01*
X184008284Y-75041938D01*
X184002029Y-75062557D01*
X183991876Y-75081553D01*
X183978208Y-75098208D01*
X183961553Y-75111876D01*
X183942557Y-75122029D01*
X183921938Y-75128284D01*
X183894360Y-75131000D01*
X183435640Y-75131000D01*
X183408062Y-75128284D01*
X183387443Y-75122029D01*
X183368447Y-75111876D01*
X183351792Y-75098208D01*
X183338124Y-75081553D01*
X183327971Y-75062557D01*
X183321716Y-75041938D01*
X183319000Y-75014360D01*
X183319000Y-74505640D01*
X183321716Y-74478062D01*
X183327971Y-74457443D01*
X183338124Y-74438447D01*
X183351792Y-74421792D01*
X183368447Y-74408124D01*
X183387443Y-74397971D01*
X183408062Y-74391716D01*
X183435640Y-74389000D01*
X183894360Y-74389000D01*
X183921938Y-74391716D01*
G37*
G36*
X182951938Y-74391716D02*
G01*
X182972557Y-74397971D01*
X182991553Y-74408124D01*
X183008208Y-74421792D01*
X183021876Y-74438447D01*
X183032029Y-74457443D01*
X183038284Y-74478062D01*
X183041000Y-74505640D01*
X183041000Y-75014360D01*
X183038284Y-75041938D01*
X183032029Y-75062557D01*
X183021876Y-75081553D01*
X183008208Y-75098208D01*
X182991553Y-75111876D01*
X182972557Y-75122029D01*
X182951938Y-75128284D01*
X182924360Y-75131000D01*
X182465640Y-75131000D01*
X182438062Y-75128284D01*
X182417443Y-75122029D01*
X182398447Y-75111876D01*
X182381792Y-75098208D01*
X182368124Y-75081553D01*
X182357971Y-75062557D01*
X182351716Y-75041938D01*
X182349000Y-75014360D01*
X182349000Y-74505640D01*
X182351716Y-74478062D01*
X182357971Y-74457443D01*
X182368124Y-74438447D01*
X182381792Y-74421792D01*
X182398447Y-74408124D01*
X182417443Y-74397971D01*
X182438062Y-74391716D01*
X182465640Y-74389000D01*
X182924360Y-74389000D01*
X182951938Y-74391716D01*
G37*
G36*
X183921938Y-70581716D02*
G01*
X183942557Y-70587971D01*
X183961553Y-70598124D01*
X183978208Y-70611792D01*
X183991876Y-70628447D01*
X184002029Y-70647443D01*
X184008284Y-70668062D01*
X184011000Y-70695640D01*
X184011000Y-71204360D01*
X184008284Y-71231938D01*
X184002029Y-71252557D01*
X183991876Y-71271553D01*
X183978208Y-71288208D01*
X183961553Y-71301876D01*
X183942557Y-71312029D01*
X183921938Y-71318284D01*
X183894360Y-71321000D01*
X183435640Y-71321000D01*
X183408062Y-71318284D01*
X183387443Y-71312029D01*
X183368447Y-71301876D01*
X183351792Y-71288208D01*
X183338124Y-71271553D01*
X183327971Y-71252557D01*
X183321716Y-71231938D01*
X183319000Y-71204360D01*
X183319000Y-70695640D01*
X183321716Y-70668062D01*
X183327971Y-70647443D01*
X183338124Y-70628447D01*
X183351792Y-70611792D01*
X183368447Y-70598124D01*
X183387443Y-70587971D01*
X183408062Y-70581716D01*
X183435640Y-70579000D01*
X183894360Y-70579000D01*
X183921938Y-70581716D01*
G37*
G36*
X182951938Y-70581716D02*
G01*
X182972557Y-70587971D01*
X182991553Y-70598124D01*
X183008208Y-70611792D01*
X183021876Y-70628447D01*
X183032029Y-70647443D01*
X183038284Y-70668062D01*
X183041000Y-70695640D01*
X183041000Y-71204360D01*
X183038284Y-71231938D01*
X183032029Y-71252557D01*
X183021876Y-71271553D01*
X183008208Y-71288208D01*
X182991553Y-71301876D01*
X182972557Y-71312029D01*
X182951938Y-71318284D01*
X182924360Y-71321000D01*
X182465640Y-71321000D01*
X182438062Y-71318284D01*
X182417443Y-71312029D01*
X182398447Y-71301876D01*
X182381792Y-71288208D01*
X182368124Y-71271553D01*
X182357971Y-71252557D01*
X182351716Y-71231938D01*
X182349000Y-71204360D01*
X182349000Y-70695640D01*
X182351716Y-70668062D01*
X182357971Y-70647443D01*
X182368124Y-70628447D01*
X182381792Y-70611792D01*
X182398447Y-70598124D01*
X182417443Y-70587971D01*
X182438062Y-70581716D01*
X182465640Y-70579000D01*
X182924360Y-70579000D01*
X182951938Y-70581716D01*
G37*
G36*
X130281938Y-60156716D02*
G01*
X130302557Y-60162971D01*
X130321553Y-60173124D01*
X130338208Y-60186792D01*
X130351876Y-60203447D01*
X130362029Y-60222443D01*
X130368284Y-60243062D01*
X130371000Y-60270640D01*
X130371000Y-60729360D01*
X130368284Y-60756938D01*
X130362029Y-60777557D01*
X130351876Y-60796553D01*
X130338208Y-60813208D01*
X130321553Y-60826876D01*
X130302557Y-60837029D01*
X130281938Y-60843284D01*
X130254360Y-60846000D01*
X129745640Y-60846000D01*
X129718062Y-60843284D01*
X129697443Y-60837029D01*
X129678447Y-60826876D01*
X129661792Y-60813208D01*
X129648124Y-60796553D01*
X129637971Y-60777557D01*
X129631716Y-60756938D01*
X129629000Y-60729360D01*
X129629000Y-60270640D01*
X129631716Y-60243062D01*
X129637971Y-60222443D01*
X129648124Y-60203447D01*
X129661792Y-60186792D01*
X129678447Y-60173124D01*
X129697443Y-60162971D01*
X129718062Y-60156716D01*
X129745640Y-60154000D01*
X130254360Y-60154000D01*
X130281938Y-60156716D01*
G37*
G36*
X170281938Y-60141716D02*
G01*
X170302557Y-60147971D01*
X170321553Y-60158124D01*
X170338208Y-60171792D01*
X170351876Y-60188447D01*
X170362029Y-60207443D01*
X170368284Y-60228062D01*
X170371000Y-60255640D01*
X170371000Y-60714360D01*
X170368284Y-60741938D01*
X170362029Y-60762557D01*
X170351876Y-60781553D01*
X170338208Y-60798208D01*
X170321553Y-60811876D01*
X170302557Y-60822029D01*
X170281938Y-60828284D01*
X170254360Y-60831000D01*
X169745640Y-60831000D01*
X169718062Y-60828284D01*
X169697443Y-60822029D01*
X169678447Y-60811876D01*
X169661792Y-60798208D01*
X169648124Y-60781553D01*
X169637971Y-60762557D01*
X169631716Y-60741938D01*
X169629000Y-60714360D01*
X169629000Y-60255640D01*
X169631716Y-60228062D01*
X169637971Y-60207443D01*
X169648124Y-60188447D01*
X169661792Y-60171792D01*
X169678447Y-60158124D01*
X169697443Y-60147971D01*
X169718062Y-60141716D01*
X169745640Y-60139000D01*
X170254360Y-60139000D01*
X170281938Y-60141716D01*
G37*
G36*
X150281938Y-60141716D02*
G01*
X150302557Y-60147971D01*
X150321553Y-60158124D01*
X150338208Y-60171792D01*
X150351876Y-60188447D01*
X150362029Y-60207443D01*
X150368284Y-60228062D01*
X150371000Y-60255640D01*
X150371000Y-60714360D01*
X150368284Y-60741938D01*
X150362029Y-60762557D01*
X150351876Y-60781553D01*
X150338208Y-60798208D01*
X150321553Y-60811876D01*
X150302557Y-60822029D01*
X150281938Y-60828284D01*
X150254360Y-60831000D01*
X149745640Y-60831000D01*
X149718062Y-60828284D01*
X149697443Y-60822029D01*
X149678447Y-60811876D01*
X149661792Y-60798208D01*
X149648124Y-60781553D01*
X149637971Y-60762557D01*
X149631716Y-60741938D01*
X149629000Y-60714360D01*
X149629000Y-60255640D01*
X149631716Y-60228062D01*
X149637971Y-60207443D01*
X149648124Y-60188447D01*
X149661792Y-60171792D01*
X149678447Y-60158124D01*
X149697443Y-60147971D01*
X149718062Y-60141716D01*
X149745640Y-60139000D01*
X150254360Y-60139000D01*
X150281938Y-60141716D01*
G37*
G36*
X110281938Y-60126716D02*
G01*
X110302557Y-60132971D01*
X110321553Y-60143124D01*
X110338208Y-60156792D01*
X110351876Y-60173447D01*
X110362029Y-60192443D01*
X110368284Y-60213062D01*
X110371000Y-60240640D01*
X110371000Y-60699360D01*
X110368284Y-60726938D01*
X110362029Y-60747557D01*
X110351876Y-60766553D01*
X110338208Y-60783208D01*
X110321553Y-60796876D01*
X110302557Y-60807029D01*
X110281938Y-60813284D01*
X110254360Y-60816000D01*
X109745640Y-60816000D01*
X109718062Y-60813284D01*
X109697443Y-60807029D01*
X109678447Y-60796876D01*
X109661792Y-60783208D01*
X109648124Y-60766553D01*
X109637971Y-60747557D01*
X109631716Y-60726938D01*
X109629000Y-60699360D01*
X109629000Y-60240640D01*
X109631716Y-60213062D01*
X109637971Y-60192443D01*
X109648124Y-60173447D01*
X109661792Y-60156792D01*
X109678447Y-60143124D01*
X109697443Y-60132971D01*
X109718062Y-60126716D01*
X109745640Y-60124000D01*
X110254360Y-60124000D01*
X110281938Y-60126716D01*
G37*
G36*
X130281938Y-59186716D02*
G01*
X130302557Y-59192971D01*
X130321553Y-59203124D01*
X130338208Y-59216792D01*
X130351876Y-59233447D01*
X130362029Y-59252443D01*
X130368284Y-59273062D01*
X130371000Y-59300640D01*
X130371000Y-59759360D01*
X130368284Y-59786938D01*
X130362029Y-59807557D01*
X130351876Y-59826553D01*
X130338208Y-59843208D01*
X130321553Y-59856876D01*
X130302557Y-59867029D01*
X130281938Y-59873284D01*
X130254360Y-59876000D01*
X129745640Y-59876000D01*
X129718062Y-59873284D01*
X129697443Y-59867029D01*
X129678447Y-59856876D01*
X129661792Y-59843208D01*
X129648124Y-59826553D01*
X129637971Y-59807557D01*
X129631716Y-59786938D01*
X129629000Y-59759360D01*
X129629000Y-59300640D01*
X129631716Y-59273062D01*
X129637971Y-59252443D01*
X129648124Y-59233447D01*
X129661792Y-59216792D01*
X129678447Y-59203124D01*
X129697443Y-59192971D01*
X129718062Y-59186716D01*
X129745640Y-59184000D01*
X130254360Y-59184000D01*
X130281938Y-59186716D01*
G37*
G36*
X170281938Y-59171716D02*
G01*
X170302557Y-59177971D01*
X170321553Y-59188124D01*
X170338208Y-59201792D01*
X170351876Y-59218447D01*
X170362029Y-59237443D01*
X170368284Y-59258062D01*
X170371000Y-59285640D01*
X170371000Y-59744360D01*
X170368284Y-59771938D01*
X170362029Y-59792557D01*
X170351876Y-59811553D01*
X170338208Y-59828208D01*
X170321553Y-59841876D01*
X170302557Y-59852029D01*
X170281938Y-59858284D01*
X170254360Y-59861000D01*
X169745640Y-59861000D01*
X169718062Y-59858284D01*
X169697443Y-59852029D01*
X169678447Y-59841876D01*
X169661792Y-59828208D01*
X169648124Y-59811553D01*
X169637971Y-59792557D01*
X169631716Y-59771938D01*
X169629000Y-59744360D01*
X169629000Y-59285640D01*
X169631716Y-59258062D01*
X169637971Y-59237443D01*
X169648124Y-59218447D01*
X169661792Y-59201792D01*
X169678447Y-59188124D01*
X169697443Y-59177971D01*
X169718062Y-59171716D01*
X169745640Y-59169000D01*
X170254360Y-59169000D01*
X170281938Y-59171716D01*
G37*
G36*
X150281938Y-59171716D02*
G01*
X150302557Y-59177971D01*
X150321553Y-59188124D01*
X150338208Y-59201792D01*
X150351876Y-59218447D01*
X150362029Y-59237443D01*
X150368284Y-59258062D01*
X150371000Y-59285640D01*
X150371000Y-59744360D01*
X150368284Y-59771938D01*
X150362029Y-59792557D01*
X150351876Y-59811553D01*
X150338208Y-59828208D01*
X150321553Y-59841876D01*
X150302557Y-59852029D01*
X150281938Y-59858284D01*
X150254360Y-59861000D01*
X149745640Y-59861000D01*
X149718062Y-59858284D01*
X149697443Y-59852029D01*
X149678447Y-59841876D01*
X149661792Y-59828208D01*
X149648124Y-59811553D01*
X149637971Y-59792557D01*
X149631716Y-59771938D01*
X149629000Y-59744360D01*
X149629000Y-59285640D01*
X149631716Y-59258062D01*
X149637971Y-59237443D01*
X149648124Y-59218447D01*
X149661792Y-59201792D01*
X149678447Y-59188124D01*
X149697443Y-59177971D01*
X149718062Y-59171716D01*
X149745640Y-59169000D01*
X150254360Y-59169000D01*
X150281938Y-59171716D01*
G37*
G36*
X110281938Y-59156716D02*
G01*
X110302557Y-59162971D01*
X110321553Y-59173124D01*
X110338208Y-59186792D01*
X110351876Y-59203447D01*
X110362029Y-59222443D01*
X110368284Y-59243062D01*
X110371000Y-59270640D01*
X110371000Y-59729360D01*
X110368284Y-59756938D01*
X110362029Y-59777557D01*
X110351876Y-59796553D01*
X110338208Y-59813208D01*
X110321553Y-59826876D01*
X110302557Y-59837029D01*
X110281938Y-59843284D01*
X110254360Y-59846000D01*
X109745640Y-59846000D01*
X109718062Y-59843284D01*
X109697443Y-59837029D01*
X109678447Y-59826876D01*
X109661792Y-59813208D01*
X109648124Y-59796553D01*
X109637971Y-59777557D01*
X109631716Y-59756938D01*
X109629000Y-59729360D01*
X109629000Y-59270640D01*
X109631716Y-59243062D01*
X109637971Y-59222443D01*
X109648124Y-59203447D01*
X109661792Y-59186792D01*
X109678447Y-59173124D01*
X109697443Y-59162971D01*
X109718062Y-59156716D01*
X109745640Y-59154000D01*
X110254360Y-59154000D01*
X110281938Y-59156716D01*
G37*
G36*
X179719166Y-46562321D02*
G01*
X180729383Y-46980767D01*
X180729385Y-46980768D01*
X180958220Y-47133671D01*
X181638556Y-47588256D01*
X182411744Y-48361444D01*
X183019233Y-49270617D01*
X183437679Y-50280834D01*
X183651000Y-51353273D01*
X183651000Y-52446727D01*
X183437679Y-53519166D01*
X183019233Y-54529383D01*
X182411744Y-55438556D01*
X181638556Y-56211744D01*
X180958220Y-56666330D01*
X180729385Y-56819232D01*
X180729384Y-56819233D01*
X180729383Y-56819233D01*
X179719166Y-57237679D01*
X178646727Y-57451000D01*
X177553273Y-57451000D01*
X176480834Y-57237679D01*
X175470617Y-56819233D01*
X175470616Y-56819233D01*
X175470615Y-56819232D01*
X175241780Y-56666330D01*
X174561444Y-56211744D01*
X173788256Y-55438556D01*
X173180767Y-54529383D01*
X172762321Y-53519166D01*
X172549000Y-52446727D01*
X172549000Y-51353273D01*
X172762321Y-50280834D01*
X173180767Y-49270617D01*
X173788256Y-48361444D01*
X174561444Y-47588256D01*
X175241780Y-47133670D01*
X175470615Y-46980768D01*
X175470617Y-46980767D01*
X176480834Y-46562321D01*
X177553273Y-46349000D01*
X178646727Y-46349000D01*
X179719166Y-46562321D01*
G37*
G36*
X103519166Y-46562321D02*
G01*
X104529383Y-46980767D01*
X104529385Y-46980768D01*
X104758220Y-47133671D01*
X105438556Y-47588256D01*
X106211744Y-48361444D01*
X106819233Y-49270617D01*
X107237679Y-50280834D01*
X107451000Y-51353273D01*
X107451000Y-52446727D01*
X107237679Y-53519166D01*
X106819233Y-54529383D01*
X106211744Y-55438556D01*
X105438556Y-56211744D01*
X104758220Y-56666330D01*
X104529385Y-56819232D01*
X104529384Y-56819233D01*
X104529383Y-56819233D01*
X103519166Y-57237679D01*
X102446727Y-57451000D01*
X101353273Y-57451000D01*
X100280834Y-57237679D01*
X99270617Y-56819233D01*
X99270616Y-56819233D01*
X99270615Y-56819232D01*
X99041780Y-56666330D01*
X98361444Y-56211744D01*
X97588256Y-55438556D01*
X96980767Y-54529383D01*
X96562321Y-53519166D01*
X96349000Y-52446727D01*
X96349000Y-51353273D01*
X96562321Y-50280834D01*
X96980767Y-49270617D01*
X97588256Y-48361444D01*
X98361444Y-47588256D01*
X99041780Y-47133670D01*
X99270615Y-46980768D01*
X99270617Y-46980767D01*
X100280834Y-46562321D01*
X101353273Y-46349000D01*
X102446727Y-46349000D01*
X103519166Y-46562321D01*
G37*
M02*
