M48
; DRILL file {KiCad (5.1.5)-3} date 16-Apr-20 1:09:00 PM
; FORMAT={-:-/ absolute / inch / decimal}
; #@! TF.CreationDate,2020-04-16T13:09:00+02:00
; #@! TF.GenerationSoftware,Kicad,Pcbnew,(5.1.5)-3
; #@! TF.FileFunction,Plated,1,4,PTH
FMAT,2
INCH
T1C0.0118
T2C0.0157
T3C0.0394
T4C0.2165
%
G90
G05
T1
X5.4626Y-3.4941
X5.4626Y-3.5925
X5.5276Y-3.6516
X5.561Y-3.4941
X5.561Y-3.5925
T2
X4.0118Y-2.5433
X4.0118Y-3.0433
X4.0118Y-3.5433
X4.0118Y-4.1433
X4.0118Y-4.5433
X4.3307Y-2.3031
X4.3307Y-2.4213
X4.3307Y-3.0906
X4.3307Y-3.2087
X4.3307Y-3.878
X4.3307Y-3.9961
X4.3307Y-4.6654
X4.3307Y-4.7835
X4.5118Y-2.0433
X5.0118Y-2.0433
X5.1181Y-2.3031
X5.1181Y-2.4213
X5.1181Y-3.0906
X5.1181Y-3.2087
X5.1181Y-3.878
X5.1181Y-3.9961
X5.1181Y-4.6654
X5.1181Y-4.7835
X5.5118Y-2.0433
X5.9055Y-2.3031
X5.9055Y-2.4213
X5.9055Y-3.0906
X5.9055Y-3.2087
X5.9055Y-3.878
X5.9055Y-3.9961
X5.9055Y-4.6654
X5.9055Y-4.7835
X6.0118Y-2.0433
X6.1811Y-3.4646
X6.1811Y-3.5039
X6.1811Y-3.5433
X6.1811Y-3.6063
X6.5118Y-2.0433
X6.6929Y-2.3031
X6.6929Y-2.4213
X6.6929Y-3.0906
X6.6929Y-3.2087
X6.6929Y-3.878
X6.6929Y-3.9961
X6.6929Y-4.6654
X6.6929Y-4.7835
X7.0118Y-2.5433
X7.0118Y-3.0433
X7.0118Y-3.5433
X7.0118Y-4.0433
X7.0118Y-4.5433
X7.1618Y-2.7933
T3
X7.2118Y-3.6433
X7.2118Y-3.7433
X7.2118Y-3.8433
X7.2118Y-3.9433
X7.2118Y-4.0433
X7.2118Y-3.1433
X7.2118Y-3.2433
X7.2118Y-3.3433
X7.2118Y-3.4433
T4
X4.0118Y-2.0433
X7.0118Y-5.0433
X4.0118Y-5.0433
X7.0118Y-2.0433
T0
M30
