G04 #@! TF.GenerationSoftware,KiCad,Pcbnew,(5.1.5)-3*
G04 #@! TF.CreationDate,2020-04-16T13:08:58+02:00*
G04 #@! TF.ProjectId,TGPG_breakoutboard,54475047-5f62-4726-9561-6b6f7574626f,rev?*
G04 #@! TF.SameCoordinates,Original*
G04 #@! TF.FileFunction,Paste,Top*
G04 #@! TF.FilePolarity,Positive*
%FSLAX46Y46*%
G04 Gerber Fmt 4.6, Leading zero omitted, Abs format (unit mm)*
G04 Created by KiCad (PCBNEW (5.1.5)-3) date 2020-04-16 13:08:58*
%MOMM*%
%LPD*%
G04 APERTURE LIST*
%ADD10C,0.100000*%
G04 APERTURE END LIST*
D10*
G36*
X152976958Y-91280710D02*
G01*
X152991276Y-91282834D01*
X153005317Y-91286351D01*
X153018946Y-91291228D01*
X153032031Y-91297417D01*
X153044447Y-91304858D01*
X153056073Y-91313481D01*
X153066798Y-91323202D01*
X153076519Y-91333927D01*
X153085142Y-91345553D01*
X153092583Y-91357969D01*
X153098772Y-91371054D01*
X153103649Y-91384683D01*
X153107166Y-91398724D01*
X153109290Y-91413042D01*
X153110000Y-91427500D01*
X153110000Y-91772500D01*
X153109290Y-91786958D01*
X153107166Y-91801276D01*
X153103649Y-91815317D01*
X153098772Y-91828946D01*
X153092583Y-91842031D01*
X153085142Y-91854447D01*
X153076519Y-91866073D01*
X153066798Y-91876798D01*
X153056073Y-91886519D01*
X153044447Y-91895142D01*
X153032031Y-91902583D01*
X153018946Y-91908772D01*
X153005317Y-91913649D01*
X152991276Y-91917166D01*
X152976958Y-91919290D01*
X152962500Y-91920000D01*
X152667500Y-91920000D01*
X152653042Y-91919290D01*
X152638724Y-91917166D01*
X152624683Y-91913649D01*
X152611054Y-91908772D01*
X152597969Y-91902583D01*
X152585553Y-91895142D01*
X152573927Y-91886519D01*
X152563202Y-91876798D01*
X152553481Y-91866073D01*
X152544858Y-91854447D01*
X152537417Y-91842031D01*
X152531228Y-91828946D01*
X152526351Y-91815317D01*
X152522834Y-91801276D01*
X152520710Y-91786958D01*
X152520000Y-91772500D01*
X152520000Y-91427500D01*
X152520710Y-91413042D01*
X152522834Y-91398724D01*
X152526351Y-91384683D01*
X152531228Y-91371054D01*
X152537417Y-91357969D01*
X152544858Y-91345553D01*
X152553481Y-91333927D01*
X152563202Y-91323202D01*
X152573927Y-91313481D01*
X152585553Y-91304858D01*
X152597969Y-91297417D01*
X152611054Y-91291228D01*
X152624683Y-91286351D01*
X152638724Y-91282834D01*
X152653042Y-91280710D01*
X152667500Y-91280000D01*
X152962500Y-91280000D01*
X152976958Y-91280710D01*
G37*
G36*
X153946958Y-91280710D02*
G01*
X153961276Y-91282834D01*
X153975317Y-91286351D01*
X153988946Y-91291228D01*
X154002031Y-91297417D01*
X154014447Y-91304858D01*
X154026073Y-91313481D01*
X154036798Y-91323202D01*
X154046519Y-91333927D01*
X154055142Y-91345553D01*
X154062583Y-91357969D01*
X154068772Y-91371054D01*
X154073649Y-91384683D01*
X154077166Y-91398724D01*
X154079290Y-91413042D01*
X154080000Y-91427500D01*
X154080000Y-91772500D01*
X154079290Y-91786958D01*
X154077166Y-91801276D01*
X154073649Y-91815317D01*
X154068772Y-91828946D01*
X154062583Y-91842031D01*
X154055142Y-91854447D01*
X154046519Y-91866073D01*
X154036798Y-91876798D01*
X154026073Y-91886519D01*
X154014447Y-91895142D01*
X154002031Y-91902583D01*
X153988946Y-91908772D01*
X153975317Y-91913649D01*
X153961276Y-91917166D01*
X153946958Y-91919290D01*
X153932500Y-91920000D01*
X153637500Y-91920000D01*
X153623042Y-91919290D01*
X153608724Y-91917166D01*
X153594683Y-91913649D01*
X153581054Y-91908772D01*
X153567969Y-91902583D01*
X153555553Y-91895142D01*
X153543927Y-91886519D01*
X153533202Y-91876798D01*
X153523481Y-91866073D01*
X153514858Y-91854447D01*
X153507417Y-91842031D01*
X153501228Y-91828946D01*
X153496351Y-91815317D01*
X153492834Y-91801276D01*
X153490710Y-91786958D01*
X153490000Y-91772500D01*
X153490000Y-91427500D01*
X153490710Y-91413042D01*
X153492834Y-91398724D01*
X153496351Y-91384683D01*
X153501228Y-91371054D01*
X153507417Y-91357969D01*
X153514858Y-91345553D01*
X153523481Y-91333927D01*
X153533202Y-91323202D01*
X153543927Y-91313481D01*
X153555553Y-91304858D01*
X153567969Y-91297417D01*
X153581054Y-91291228D01*
X153594683Y-91286351D01*
X153608724Y-91282834D01*
X153623042Y-91280710D01*
X153637500Y-91280000D01*
X153932500Y-91280000D01*
X153946958Y-91280710D01*
G37*
G36*
X151946958Y-91280710D02*
G01*
X151961276Y-91282834D01*
X151975317Y-91286351D01*
X151988946Y-91291228D01*
X152002031Y-91297417D01*
X152014447Y-91304858D01*
X152026073Y-91313481D01*
X152036798Y-91323202D01*
X152046519Y-91333927D01*
X152055142Y-91345553D01*
X152062583Y-91357969D01*
X152068772Y-91371054D01*
X152073649Y-91384683D01*
X152077166Y-91398724D01*
X152079290Y-91413042D01*
X152080000Y-91427500D01*
X152080000Y-91772500D01*
X152079290Y-91786958D01*
X152077166Y-91801276D01*
X152073649Y-91815317D01*
X152068772Y-91828946D01*
X152062583Y-91842031D01*
X152055142Y-91854447D01*
X152046519Y-91866073D01*
X152036798Y-91876798D01*
X152026073Y-91886519D01*
X152014447Y-91895142D01*
X152002031Y-91902583D01*
X151988946Y-91908772D01*
X151975317Y-91913649D01*
X151961276Y-91917166D01*
X151946958Y-91919290D01*
X151932500Y-91920000D01*
X151637500Y-91920000D01*
X151623042Y-91919290D01*
X151608724Y-91917166D01*
X151594683Y-91913649D01*
X151581054Y-91908772D01*
X151567969Y-91902583D01*
X151555553Y-91895142D01*
X151543927Y-91886519D01*
X151533202Y-91876798D01*
X151523481Y-91866073D01*
X151514858Y-91854447D01*
X151507417Y-91842031D01*
X151501228Y-91828946D01*
X151496351Y-91815317D01*
X151492834Y-91801276D01*
X151490710Y-91786958D01*
X151490000Y-91772500D01*
X151490000Y-91427500D01*
X151490710Y-91413042D01*
X151492834Y-91398724D01*
X151496351Y-91384683D01*
X151501228Y-91371054D01*
X151507417Y-91357969D01*
X151514858Y-91345553D01*
X151523481Y-91333927D01*
X151533202Y-91323202D01*
X151543927Y-91313481D01*
X151555553Y-91304858D01*
X151567969Y-91297417D01*
X151581054Y-91291228D01*
X151594683Y-91286351D01*
X151608724Y-91282834D01*
X151623042Y-91280710D01*
X151637500Y-91280000D01*
X151932500Y-91280000D01*
X151946958Y-91280710D01*
G37*
G36*
X150976958Y-91280710D02*
G01*
X150991276Y-91282834D01*
X151005317Y-91286351D01*
X151018946Y-91291228D01*
X151032031Y-91297417D01*
X151044447Y-91304858D01*
X151056073Y-91313481D01*
X151066798Y-91323202D01*
X151076519Y-91333927D01*
X151085142Y-91345553D01*
X151092583Y-91357969D01*
X151098772Y-91371054D01*
X151103649Y-91384683D01*
X151107166Y-91398724D01*
X151109290Y-91413042D01*
X151110000Y-91427500D01*
X151110000Y-91772500D01*
X151109290Y-91786958D01*
X151107166Y-91801276D01*
X151103649Y-91815317D01*
X151098772Y-91828946D01*
X151092583Y-91842031D01*
X151085142Y-91854447D01*
X151076519Y-91866073D01*
X151066798Y-91876798D01*
X151056073Y-91886519D01*
X151044447Y-91895142D01*
X151032031Y-91902583D01*
X151018946Y-91908772D01*
X151005317Y-91913649D01*
X150991276Y-91917166D01*
X150976958Y-91919290D01*
X150962500Y-91920000D01*
X150667500Y-91920000D01*
X150653042Y-91919290D01*
X150638724Y-91917166D01*
X150624683Y-91913649D01*
X150611054Y-91908772D01*
X150597969Y-91902583D01*
X150585553Y-91895142D01*
X150573927Y-91886519D01*
X150563202Y-91876798D01*
X150553481Y-91866073D01*
X150544858Y-91854447D01*
X150537417Y-91842031D01*
X150531228Y-91828946D01*
X150526351Y-91815317D01*
X150522834Y-91801276D01*
X150520710Y-91786958D01*
X150520000Y-91772500D01*
X150520000Y-91427500D01*
X150520710Y-91413042D01*
X150522834Y-91398724D01*
X150526351Y-91384683D01*
X150531228Y-91371054D01*
X150537417Y-91357969D01*
X150544858Y-91345553D01*
X150553481Y-91333927D01*
X150563202Y-91323202D01*
X150573927Y-91313481D01*
X150585553Y-91304858D01*
X150597969Y-91297417D01*
X150611054Y-91291228D01*
X150624683Y-91286351D01*
X150638724Y-91282834D01*
X150653042Y-91280710D01*
X150667500Y-91280000D01*
X150962500Y-91280000D01*
X150976958Y-91280710D01*
G37*
G36*
X152976958Y-89680710D02*
G01*
X152991276Y-89682834D01*
X153005317Y-89686351D01*
X153018946Y-89691228D01*
X153032031Y-89697417D01*
X153044447Y-89704858D01*
X153056073Y-89713481D01*
X153066798Y-89723202D01*
X153076519Y-89733927D01*
X153085142Y-89745553D01*
X153092583Y-89757969D01*
X153098772Y-89771054D01*
X153103649Y-89784683D01*
X153107166Y-89798724D01*
X153109290Y-89813042D01*
X153110000Y-89827500D01*
X153110000Y-90172500D01*
X153109290Y-90186958D01*
X153107166Y-90201276D01*
X153103649Y-90215317D01*
X153098772Y-90228946D01*
X153092583Y-90242031D01*
X153085142Y-90254447D01*
X153076519Y-90266073D01*
X153066798Y-90276798D01*
X153056073Y-90286519D01*
X153044447Y-90295142D01*
X153032031Y-90302583D01*
X153018946Y-90308772D01*
X153005317Y-90313649D01*
X152991276Y-90317166D01*
X152976958Y-90319290D01*
X152962500Y-90320000D01*
X152667500Y-90320000D01*
X152653042Y-90319290D01*
X152638724Y-90317166D01*
X152624683Y-90313649D01*
X152611054Y-90308772D01*
X152597969Y-90302583D01*
X152585553Y-90295142D01*
X152573927Y-90286519D01*
X152563202Y-90276798D01*
X152553481Y-90266073D01*
X152544858Y-90254447D01*
X152537417Y-90242031D01*
X152531228Y-90228946D01*
X152526351Y-90215317D01*
X152522834Y-90201276D01*
X152520710Y-90186958D01*
X152520000Y-90172500D01*
X152520000Y-89827500D01*
X152520710Y-89813042D01*
X152522834Y-89798724D01*
X152526351Y-89784683D01*
X152531228Y-89771054D01*
X152537417Y-89757969D01*
X152544858Y-89745553D01*
X152553481Y-89733927D01*
X152563202Y-89723202D01*
X152573927Y-89713481D01*
X152585553Y-89704858D01*
X152597969Y-89697417D01*
X152611054Y-89691228D01*
X152624683Y-89686351D01*
X152638724Y-89682834D01*
X152653042Y-89680710D01*
X152667500Y-89680000D01*
X152962500Y-89680000D01*
X152976958Y-89680710D01*
G37*
G36*
X153946958Y-89680710D02*
G01*
X153961276Y-89682834D01*
X153975317Y-89686351D01*
X153988946Y-89691228D01*
X154002031Y-89697417D01*
X154014447Y-89704858D01*
X154026073Y-89713481D01*
X154036798Y-89723202D01*
X154046519Y-89733927D01*
X154055142Y-89745553D01*
X154062583Y-89757969D01*
X154068772Y-89771054D01*
X154073649Y-89784683D01*
X154077166Y-89798724D01*
X154079290Y-89813042D01*
X154080000Y-89827500D01*
X154080000Y-90172500D01*
X154079290Y-90186958D01*
X154077166Y-90201276D01*
X154073649Y-90215317D01*
X154068772Y-90228946D01*
X154062583Y-90242031D01*
X154055142Y-90254447D01*
X154046519Y-90266073D01*
X154036798Y-90276798D01*
X154026073Y-90286519D01*
X154014447Y-90295142D01*
X154002031Y-90302583D01*
X153988946Y-90308772D01*
X153975317Y-90313649D01*
X153961276Y-90317166D01*
X153946958Y-90319290D01*
X153932500Y-90320000D01*
X153637500Y-90320000D01*
X153623042Y-90319290D01*
X153608724Y-90317166D01*
X153594683Y-90313649D01*
X153581054Y-90308772D01*
X153567969Y-90302583D01*
X153555553Y-90295142D01*
X153543927Y-90286519D01*
X153533202Y-90276798D01*
X153523481Y-90266073D01*
X153514858Y-90254447D01*
X153507417Y-90242031D01*
X153501228Y-90228946D01*
X153496351Y-90215317D01*
X153492834Y-90201276D01*
X153490710Y-90186958D01*
X153490000Y-90172500D01*
X153490000Y-89827500D01*
X153490710Y-89813042D01*
X153492834Y-89798724D01*
X153496351Y-89784683D01*
X153501228Y-89771054D01*
X153507417Y-89757969D01*
X153514858Y-89745553D01*
X153523481Y-89733927D01*
X153533202Y-89723202D01*
X153543927Y-89713481D01*
X153555553Y-89704858D01*
X153567969Y-89697417D01*
X153581054Y-89691228D01*
X153594683Y-89686351D01*
X153608724Y-89682834D01*
X153623042Y-89680710D01*
X153637500Y-89680000D01*
X153932500Y-89680000D01*
X153946958Y-89680710D01*
G37*
G36*
X152976958Y-88680710D02*
G01*
X152991276Y-88682834D01*
X153005317Y-88686351D01*
X153018946Y-88691228D01*
X153032031Y-88697417D01*
X153044447Y-88704858D01*
X153056073Y-88713481D01*
X153066798Y-88723202D01*
X153076519Y-88733927D01*
X153085142Y-88745553D01*
X153092583Y-88757969D01*
X153098772Y-88771054D01*
X153103649Y-88784683D01*
X153107166Y-88798724D01*
X153109290Y-88813042D01*
X153110000Y-88827500D01*
X153110000Y-89172500D01*
X153109290Y-89186958D01*
X153107166Y-89201276D01*
X153103649Y-89215317D01*
X153098772Y-89228946D01*
X153092583Y-89242031D01*
X153085142Y-89254447D01*
X153076519Y-89266073D01*
X153066798Y-89276798D01*
X153056073Y-89286519D01*
X153044447Y-89295142D01*
X153032031Y-89302583D01*
X153018946Y-89308772D01*
X153005317Y-89313649D01*
X152991276Y-89317166D01*
X152976958Y-89319290D01*
X152962500Y-89320000D01*
X152667500Y-89320000D01*
X152653042Y-89319290D01*
X152638724Y-89317166D01*
X152624683Y-89313649D01*
X152611054Y-89308772D01*
X152597969Y-89302583D01*
X152585553Y-89295142D01*
X152573927Y-89286519D01*
X152563202Y-89276798D01*
X152553481Y-89266073D01*
X152544858Y-89254447D01*
X152537417Y-89242031D01*
X152531228Y-89228946D01*
X152526351Y-89215317D01*
X152522834Y-89201276D01*
X152520710Y-89186958D01*
X152520000Y-89172500D01*
X152520000Y-88827500D01*
X152520710Y-88813042D01*
X152522834Y-88798724D01*
X152526351Y-88784683D01*
X152531228Y-88771054D01*
X152537417Y-88757969D01*
X152544858Y-88745553D01*
X152553481Y-88733927D01*
X152563202Y-88723202D01*
X152573927Y-88713481D01*
X152585553Y-88704858D01*
X152597969Y-88697417D01*
X152611054Y-88691228D01*
X152624683Y-88686351D01*
X152638724Y-88682834D01*
X152653042Y-88680710D01*
X152667500Y-88680000D01*
X152962500Y-88680000D01*
X152976958Y-88680710D01*
G37*
G36*
X153946958Y-88680710D02*
G01*
X153961276Y-88682834D01*
X153975317Y-88686351D01*
X153988946Y-88691228D01*
X154002031Y-88697417D01*
X154014447Y-88704858D01*
X154026073Y-88713481D01*
X154036798Y-88723202D01*
X154046519Y-88733927D01*
X154055142Y-88745553D01*
X154062583Y-88757969D01*
X154068772Y-88771054D01*
X154073649Y-88784683D01*
X154077166Y-88798724D01*
X154079290Y-88813042D01*
X154080000Y-88827500D01*
X154080000Y-89172500D01*
X154079290Y-89186958D01*
X154077166Y-89201276D01*
X154073649Y-89215317D01*
X154068772Y-89228946D01*
X154062583Y-89242031D01*
X154055142Y-89254447D01*
X154046519Y-89266073D01*
X154036798Y-89276798D01*
X154026073Y-89286519D01*
X154014447Y-89295142D01*
X154002031Y-89302583D01*
X153988946Y-89308772D01*
X153975317Y-89313649D01*
X153961276Y-89317166D01*
X153946958Y-89319290D01*
X153932500Y-89320000D01*
X153637500Y-89320000D01*
X153623042Y-89319290D01*
X153608724Y-89317166D01*
X153594683Y-89313649D01*
X153581054Y-89308772D01*
X153567969Y-89302583D01*
X153555553Y-89295142D01*
X153543927Y-89286519D01*
X153533202Y-89276798D01*
X153523481Y-89266073D01*
X153514858Y-89254447D01*
X153507417Y-89242031D01*
X153501228Y-89228946D01*
X153496351Y-89215317D01*
X153492834Y-89201276D01*
X153490710Y-89186958D01*
X153490000Y-89172500D01*
X153490000Y-88827500D01*
X153490710Y-88813042D01*
X153492834Y-88798724D01*
X153496351Y-88784683D01*
X153501228Y-88771054D01*
X153507417Y-88757969D01*
X153514858Y-88745553D01*
X153523481Y-88733927D01*
X153533202Y-88723202D01*
X153543927Y-88713481D01*
X153555553Y-88704858D01*
X153567969Y-88697417D01*
X153581054Y-88691228D01*
X153594683Y-88686351D01*
X153608724Y-88682834D01*
X153623042Y-88680710D01*
X153637500Y-88680000D01*
X153932500Y-88680000D01*
X153946958Y-88680710D01*
G37*
G36*
X152976958Y-87680710D02*
G01*
X152991276Y-87682834D01*
X153005317Y-87686351D01*
X153018946Y-87691228D01*
X153032031Y-87697417D01*
X153044447Y-87704858D01*
X153056073Y-87713481D01*
X153066798Y-87723202D01*
X153076519Y-87733927D01*
X153085142Y-87745553D01*
X153092583Y-87757969D01*
X153098772Y-87771054D01*
X153103649Y-87784683D01*
X153107166Y-87798724D01*
X153109290Y-87813042D01*
X153110000Y-87827500D01*
X153110000Y-88172500D01*
X153109290Y-88186958D01*
X153107166Y-88201276D01*
X153103649Y-88215317D01*
X153098772Y-88228946D01*
X153092583Y-88242031D01*
X153085142Y-88254447D01*
X153076519Y-88266073D01*
X153066798Y-88276798D01*
X153056073Y-88286519D01*
X153044447Y-88295142D01*
X153032031Y-88302583D01*
X153018946Y-88308772D01*
X153005317Y-88313649D01*
X152991276Y-88317166D01*
X152976958Y-88319290D01*
X152962500Y-88320000D01*
X152667500Y-88320000D01*
X152653042Y-88319290D01*
X152638724Y-88317166D01*
X152624683Y-88313649D01*
X152611054Y-88308772D01*
X152597969Y-88302583D01*
X152585553Y-88295142D01*
X152573927Y-88286519D01*
X152563202Y-88276798D01*
X152553481Y-88266073D01*
X152544858Y-88254447D01*
X152537417Y-88242031D01*
X152531228Y-88228946D01*
X152526351Y-88215317D01*
X152522834Y-88201276D01*
X152520710Y-88186958D01*
X152520000Y-88172500D01*
X152520000Y-87827500D01*
X152520710Y-87813042D01*
X152522834Y-87798724D01*
X152526351Y-87784683D01*
X152531228Y-87771054D01*
X152537417Y-87757969D01*
X152544858Y-87745553D01*
X152553481Y-87733927D01*
X152563202Y-87723202D01*
X152573927Y-87713481D01*
X152585553Y-87704858D01*
X152597969Y-87697417D01*
X152611054Y-87691228D01*
X152624683Y-87686351D01*
X152638724Y-87682834D01*
X152653042Y-87680710D01*
X152667500Y-87680000D01*
X152962500Y-87680000D01*
X152976958Y-87680710D01*
G37*
G36*
X153946958Y-87680710D02*
G01*
X153961276Y-87682834D01*
X153975317Y-87686351D01*
X153988946Y-87691228D01*
X154002031Y-87697417D01*
X154014447Y-87704858D01*
X154026073Y-87713481D01*
X154036798Y-87723202D01*
X154046519Y-87733927D01*
X154055142Y-87745553D01*
X154062583Y-87757969D01*
X154068772Y-87771054D01*
X154073649Y-87784683D01*
X154077166Y-87798724D01*
X154079290Y-87813042D01*
X154080000Y-87827500D01*
X154080000Y-88172500D01*
X154079290Y-88186958D01*
X154077166Y-88201276D01*
X154073649Y-88215317D01*
X154068772Y-88228946D01*
X154062583Y-88242031D01*
X154055142Y-88254447D01*
X154046519Y-88266073D01*
X154036798Y-88276798D01*
X154026073Y-88286519D01*
X154014447Y-88295142D01*
X154002031Y-88302583D01*
X153988946Y-88308772D01*
X153975317Y-88313649D01*
X153961276Y-88317166D01*
X153946958Y-88319290D01*
X153932500Y-88320000D01*
X153637500Y-88320000D01*
X153623042Y-88319290D01*
X153608724Y-88317166D01*
X153594683Y-88313649D01*
X153581054Y-88308772D01*
X153567969Y-88302583D01*
X153555553Y-88295142D01*
X153543927Y-88286519D01*
X153533202Y-88276798D01*
X153523481Y-88266073D01*
X153514858Y-88254447D01*
X153507417Y-88242031D01*
X153501228Y-88228946D01*
X153496351Y-88215317D01*
X153492834Y-88201276D01*
X153490710Y-88186958D01*
X153490000Y-88172500D01*
X153490000Y-87827500D01*
X153490710Y-87813042D01*
X153492834Y-87798724D01*
X153496351Y-87784683D01*
X153501228Y-87771054D01*
X153507417Y-87757969D01*
X153514858Y-87745553D01*
X153523481Y-87733927D01*
X153533202Y-87723202D01*
X153543927Y-87713481D01*
X153555553Y-87704858D01*
X153567969Y-87697417D01*
X153581054Y-87691228D01*
X153594683Y-87686351D01*
X153608724Y-87682834D01*
X153623042Y-87680710D01*
X153637500Y-87680000D01*
X153932500Y-87680000D01*
X153946958Y-87680710D01*
G37*
G36*
X151946958Y-89680710D02*
G01*
X151961276Y-89682834D01*
X151975317Y-89686351D01*
X151988946Y-89691228D01*
X152002031Y-89697417D01*
X152014447Y-89704858D01*
X152026073Y-89713481D01*
X152036798Y-89723202D01*
X152046519Y-89733927D01*
X152055142Y-89745553D01*
X152062583Y-89757969D01*
X152068772Y-89771054D01*
X152073649Y-89784683D01*
X152077166Y-89798724D01*
X152079290Y-89813042D01*
X152080000Y-89827500D01*
X152080000Y-90172500D01*
X152079290Y-90186958D01*
X152077166Y-90201276D01*
X152073649Y-90215317D01*
X152068772Y-90228946D01*
X152062583Y-90242031D01*
X152055142Y-90254447D01*
X152046519Y-90266073D01*
X152036798Y-90276798D01*
X152026073Y-90286519D01*
X152014447Y-90295142D01*
X152002031Y-90302583D01*
X151988946Y-90308772D01*
X151975317Y-90313649D01*
X151961276Y-90317166D01*
X151946958Y-90319290D01*
X151932500Y-90320000D01*
X151637500Y-90320000D01*
X151623042Y-90319290D01*
X151608724Y-90317166D01*
X151594683Y-90313649D01*
X151581054Y-90308772D01*
X151567969Y-90302583D01*
X151555553Y-90295142D01*
X151543927Y-90286519D01*
X151533202Y-90276798D01*
X151523481Y-90266073D01*
X151514858Y-90254447D01*
X151507417Y-90242031D01*
X151501228Y-90228946D01*
X151496351Y-90215317D01*
X151492834Y-90201276D01*
X151490710Y-90186958D01*
X151490000Y-90172500D01*
X151490000Y-89827500D01*
X151490710Y-89813042D01*
X151492834Y-89798724D01*
X151496351Y-89784683D01*
X151501228Y-89771054D01*
X151507417Y-89757969D01*
X151514858Y-89745553D01*
X151523481Y-89733927D01*
X151533202Y-89723202D01*
X151543927Y-89713481D01*
X151555553Y-89704858D01*
X151567969Y-89697417D01*
X151581054Y-89691228D01*
X151594683Y-89686351D01*
X151608724Y-89682834D01*
X151623042Y-89680710D01*
X151637500Y-89680000D01*
X151932500Y-89680000D01*
X151946958Y-89680710D01*
G37*
G36*
X150976958Y-89680710D02*
G01*
X150991276Y-89682834D01*
X151005317Y-89686351D01*
X151018946Y-89691228D01*
X151032031Y-89697417D01*
X151044447Y-89704858D01*
X151056073Y-89713481D01*
X151066798Y-89723202D01*
X151076519Y-89733927D01*
X151085142Y-89745553D01*
X151092583Y-89757969D01*
X151098772Y-89771054D01*
X151103649Y-89784683D01*
X151107166Y-89798724D01*
X151109290Y-89813042D01*
X151110000Y-89827500D01*
X151110000Y-90172500D01*
X151109290Y-90186958D01*
X151107166Y-90201276D01*
X151103649Y-90215317D01*
X151098772Y-90228946D01*
X151092583Y-90242031D01*
X151085142Y-90254447D01*
X151076519Y-90266073D01*
X151066798Y-90276798D01*
X151056073Y-90286519D01*
X151044447Y-90295142D01*
X151032031Y-90302583D01*
X151018946Y-90308772D01*
X151005317Y-90313649D01*
X150991276Y-90317166D01*
X150976958Y-90319290D01*
X150962500Y-90320000D01*
X150667500Y-90320000D01*
X150653042Y-90319290D01*
X150638724Y-90317166D01*
X150624683Y-90313649D01*
X150611054Y-90308772D01*
X150597969Y-90302583D01*
X150585553Y-90295142D01*
X150573927Y-90286519D01*
X150563202Y-90276798D01*
X150553481Y-90266073D01*
X150544858Y-90254447D01*
X150537417Y-90242031D01*
X150531228Y-90228946D01*
X150526351Y-90215317D01*
X150522834Y-90201276D01*
X150520710Y-90186958D01*
X150520000Y-90172500D01*
X150520000Y-89827500D01*
X150520710Y-89813042D01*
X150522834Y-89798724D01*
X150526351Y-89784683D01*
X150531228Y-89771054D01*
X150537417Y-89757969D01*
X150544858Y-89745553D01*
X150553481Y-89733927D01*
X150563202Y-89723202D01*
X150573927Y-89713481D01*
X150585553Y-89704858D01*
X150597969Y-89697417D01*
X150611054Y-89691228D01*
X150624683Y-89686351D01*
X150638724Y-89682834D01*
X150653042Y-89680710D01*
X150667500Y-89680000D01*
X150962500Y-89680000D01*
X150976958Y-89680710D01*
G37*
G36*
X151946958Y-88680710D02*
G01*
X151961276Y-88682834D01*
X151975317Y-88686351D01*
X151988946Y-88691228D01*
X152002031Y-88697417D01*
X152014447Y-88704858D01*
X152026073Y-88713481D01*
X152036798Y-88723202D01*
X152046519Y-88733927D01*
X152055142Y-88745553D01*
X152062583Y-88757969D01*
X152068772Y-88771054D01*
X152073649Y-88784683D01*
X152077166Y-88798724D01*
X152079290Y-88813042D01*
X152080000Y-88827500D01*
X152080000Y-89172500D01*
X152079290Y-89186958D01*
X152077166Y-89201276D01*
X152073649Y-89215317D01*
X152068772Y-89228946D01*
X152062583Y-89242031D01*
X152055142Y-89254447D01*
X152046519Y-89266073D01*
X152036798Y-89276798D01*
X152026073Y-89286519D01*
X152014447Y-89295142D01*
X152002031Y-89302583D01*
X151988946Y-89308772D01*
X151975317Y-89313649D01*
X151961276Y-89317166D01*
X151946958Y-89319290D01*
X151932500Y-89320000D01*
X151637500Y-89320000D01*
X151623042Y-89319290D01*
X151608724Y-89317166D01*
X151594683Y-89313649D01*
X151581054Y-89308772D01*
X151567969Y-89302583D01*
X151555553Y-89295142D01*
X151543927Y-89286519D01*
X151533202Y-89276798D01*
X151523481Y-89266073D01*
X151514858Y-89254447D01*
X151507417Y-89242031D01*
X151501228Y-89228946D01*
X151496351Y-89215317D01*
X151492834Y-89201276D01*
X151490710Y-89186958D01*
X151490000Y-89172500D01*
X151490000Y-88827500D01*
X151490710Y-88813042D01*
X151492834Y-88798724D01*
X151496351Y-88784683D01*
X151501228Y-88771054D01*
X151507417Y-88757969D01*
X151514858Y-88745553D01*
X151523481Y-88733927D01*
X151533202Y-88723202D01*
X151543927Y-88713481D01*
X151555553Y-88704858D01*
X151567969Y-88697417D01*
X151581054Y-88691228D01*
X151594683Y-88686351D01*
X151608724Y-88682834D01*
X151623042Y-88680710D01*
X151637500Y-88680000D01*
X151932500Y-88680000D01*
X151946958Y-88680710D01*
G37*
G36*
X150976958Y-88680710D02*
G01*
X150991276Y-88682834D01*
X151005317Y-88686351D01*
X151018946Y-88691228D01*
X151032031Y-88697417D01*
X151044447Y-88704858D01*
X151056073Y-88713481D01*
X151066798Y-88723202D01*
X151076519Y-88733927D01*
X151085142Y-88745553D01*
X151092583Y-88757969D01*
X151098772Y-88771054D01*
X151103649Y-88784683D01*
X151107166Y-88798724D01*
X151109290Y-88813042D01*
X151110000Y-88827500D01*
X151110000Y-89172500D01*
X151109290Y-89186958D01*
X151107166Y-89201276D01*
X151103649Y-89215317D01*
X151098772Y-89228946D01*
X151092583Y-89242031D01*
X151085142Y-89254447D01*
X151076519Y-89266073D01*
X151066798Y-89276798D01*
X151056073Y-89286519D01*
X151044447Y-89295142D01*
X151032031Y-89302583D01*
X151018946Y-89308772D01*
X151005317Y-89313649D01*
X150991276Y-89317166D01*
X150976958Y-89319290D01*
X150962500Y-89320000D01*
X150667500Y-89320000D01*
X150653042Y-89319290D01*
X150638724Y-89317166D01*
X150624683Y-89313649D01*
X150611054Y-89308772D01*
X150597969Y-89302583D01*
X150585553Y-89295142D01*
X150573927Y-89286519D01*
X150563202Y-89276798D01*
X150553481Y-89266073D01*
X150544858Y-89254447D01*
X150537417Y-89242031D01*
X150531228Y-89228946D01*
X150526351Y-89215317D01*
X150522834Y-89201276D01*
X150520710Y-89186958D01*
X150520000Y-89172500D01*
X150520000Y-88827500D01*
X150520710Y-88813042D01*
X150522834Y-88798724D01*
X150526351Y-88784683D01*
X150531228Y-88771054D01*
X150537417Y-88757969D01*
X150544858Y-88745553D01*
X150553481Y-88733927D01*
X150563202Y-88723202D01*
X150573927Y-88713481D01*
X150585553Y-88704858D01*
X150597969Y-88697417D01*
X150611054Y-88691228D01*
X150624683Y-88686351D01*
X150638724Y-88682834D01*
X150653042Y-88680710D01*
X150667500Y-88680000D01*
X150962500Y-88680000D01*
X150976958Y-88680710D01*
G37*
G36*
X151931958Y-87680710D02*
G01*
X151946276Y-87682834D01*
X151960317Y-87686351D01*
X151973946Y-87691228D01*
X151987031Y-87697417D01*
X151999447Y-87704858D01*
X152011073Y-87713481D01*
X152021798Y-87723202D01*
X152031519Y-87733927D01*
X152040142Y-87745553D01*
X152047583Y-87757969D01*
X152053772Y-87771054D01*
X152058649Y-87784683D01*
X152062166Y-87798724D01*
X152064290Y-87813042D01*
X152065000Y-87827500D01*
X152065000Y-88172500D01*
X152064290Y-88186958D01*
X152062166Y-88201276D01*
X152058649Y-88215317D01*
X152053772Y-88228946D01*
X152047583Y-88242031D01*
X152040142Y-88254447D01*
X152031519Y-88266073D01*
X152021798Y-88276798D01*
X152011073Y-88286519D01*
X151999447Y-88295142D01*
X151987031Y-88302583D01*
X151973946Y-88308772D01*
X151960317Y-88313649D01*
X151946276Y-88317166D01*
X151931958Y-88319290D01*
X151917500Y-88320000D01*
X151622500Y-88320000D01*
X151608042Y-88319290D01*
X151593724Y-88317166D01*
X151579683Y-88313649D01*
X151566054Y-88308772D01*
X151552969Y-88302583D01*
X151540553Y-88295142D01*
X151528927Y-88286519D01*
X151518202Y-88276798D01*
X151508481Y-88266073D01*
X151499858Y-88254447D01*
X151492417Y-88242031D01*
X151486228Y-88228946D01*
X151481351Y-88215317D01*
X151477834Y-88201276D01*
X151475710Y-88186958D01*
X151475000Y-88172500D01*
X151475000Y-87827500D01*
X151475710Y-87813042D01*
X151477834Y-87798724D01*
X151481351Y-87784683D01*
X151486228Y-87771054D01*
X151492417Y-87757969D01*
X151499858Y-87745553D01*
X151508481Y-87733927D01*
X151518202Y-87723202D01*
X151528927Y-87713481D01*
X151540553Y-87704858D01*
X151552969Y-87697417D01*
X151566054Y-87691228D01*
X151579683Y-87686351D01*
X151593724Y-87682834D01*
X151608042Y-87680710D01*
X151622500Y-87680000D01*
X151917500Y-87680000D01*
X151931958Y-87680710D01*
G37*
G36*
X150961958Y-87680710D02*
G01*
X150976276Y-87682834D01*
X150990317Y-87686351D01*
X151003946Y-87691228D01*
X151017031Y-87697417D01*
X151029447Y-87704858D01*
X151041073Y-87713481D01*
X151051798Y-87723202D01*
X151061519Y-87733927D01*
X151070142Y-87745553D01*
X151077583Y-87757969D01*
X151083772Y-87771054D01*
X151088649Y-87784683D01*
X151092166Y-87798724D01*
X151094290Y-87813042D01*
X151095000Y-87827500D01*
X151095000Y-88172500D01*
X151094290Y-88186958D01*
X151092166Y-88201276D01*
X151088649Y-88215317D01*
X151083772Y-88228946D01*
X151077583Y-88242031D01*
X151070142Y-88254447D01*
X151061519Y-88266073D01*
X151051798Y-88276798D01*
X151041073Y-88286519D01*
X151029447Y-88295142D01*
X151017031Y-88302583D01*
X151003946Y-88308772D01*
X150990317Y-88313649D01*
X150976276Y-88317166D01*
X150961958Y-88319290D01*
X150947500Y-88320000D01*
X150652500Y-88320000D01*
X150638042Y-88319290D01*
X150623724Y-88317166D01*
X150609683Y-88313649D01*
X150596054Y-88308772D01*
X150582969Y-88302583D01*
X150570553Y-88295142D01*
X150558927Y-88286519D01*
X150548202Y-88276798D01*
X150538481Y-88266073D01*
X150529858Y-88254447D01*
X150522417Y-88242031D01*
X150516228Y-88228946D01*
X150511351Y-88215317D01*
X150507834Y-88201276D01*
X150505710Y-88186958D01*
X150505000Y-88172500D01*
X150505000Y-87827500D01*
X150505710Y-87813042D01*
X150507834Y-87798724D01*
X150511351Y-87784683D01*
X150516228Y-87771054D01*
X150522417Y-87757969D01*
X150529858Y-87745553D01*
X150538481Y-87733927D01*
X150548202Y-87723202D01*
X150558927Y-87713481D01*
X150570553Y-87704858D01*
X150582969Y-87697417D01*
X150596054Y-87691228D01*
X150609683Y-87686351D01*
X150623724Y-87682834D01*
X150638042Y-87680710D01*
X150652500Y-87680000D01*
X150947500Y-87680000D01*
X150961958Y-87680710D01*
G37*
G36*
X183826958Y-74440710D02*
G01*
X183841276Y-74442834D01*
X183855317Y-74446351D01*
X183868946Y-74451228D01*
X183882031Y-74457417D01*
X183894447Y-74464858D01*
X183906073Y-74473481D01*
X183916798Y-74483202D01*
X183926519Y-74493927D01*
X183935142Y-74505553D01*
X183942583Y-74517969D01*
X183948772Y-74531054D01*
X183953649Y-74544683D01*
X183957166Y-74558724D01*
X183959290Y-74573042D01*
X183960000Y-74587500D01*
X183960000Y-74932500D01*
X183959290Y-74946958D01*
X183957166Y-74961276D01*
X183953649Y-74975317D01*
X183948772Y-74988946D01*
X183942583Y-75002031D01*
X183935142Y-75014447D01*
X183926519Y-75026073D01*
X183916798Y-75036798D01*
X183906073Y-75046519D01*
X183894447Y-75055142D01*
X183882031Y-75062583D01*
X183868946Y-75068772D01*
X183855317Y-75073649D01*
X183841276Y-75077166D01*
X183826958Y-75079290D01*
X183812500Y-75080000D01*
X183517500Y-75080000D01*
X183503042Y-75079290D01*
X183488724Y-75077166D01*
X183474683Y-75073649D01*
X183461054Y-75068772D01*
X183447969Y-75062583D01*
X183435553Y-75055142D01*
X183423927Y-75046519D01*
X183413202Y-75036798D01*
X183403481Y-75026073D01*
X183394858Y-75014447D01*
X183387417Y-75002031D01*
X183381228Y-74988946D01*
X183376351Y-74975317D01*
X183372834Y-74961276D01*
X183370710Y-74946958D01*
X183370000Y-74932500D01*
X183370000Y-74587500D01*
X183370710Y-74573042D01*
X183372834Y-74558724D01*
X183376351Y-74544683D01*
X183381228Y-74531054D01*
X183387417Y-74517969D01*
X183394858Y-74505553D01*
X183403481Y-74493927D01*
X183413202Y-74483202D01*
X183423927Y-74473481D01*
X183435553Y-74464858D01*
X183447969Y-74457417D01*
X183461054Y-74451228D01*
X183474683Y-74446351D01*
X183488724Y-74442834D01*
X183503042Y-74440710D01*
X183517500Y-74440000D01*
X183812500Y-74440000D01*
X183826958Y-74440710D01*
G37*
G36*
X182856958Y-74440710D02*
G01*
X182871276Y-74442834D01*
X182885317Y-74446351D01*
X182898946Y-74451228D01*
X182912031Y-74457417D01*
X182924447Y-74464858D01*
X182936073Y-74473481D01*
X182946798Y-74483202D01*
X182956519Y-74493927D01*
X182965142Y-74505553D01*
X182972583Y-74517969D01*
X182978772Y-74531054D01*
X182983649Y-74544683D01*
X182987166Y-74558724D01*
X182989290Y-74573042D01*
X182990000Y-74587500D01*
X182990000Y-74932500D01*
X182989290Y-74946958D01*
X182987166Y-74961276D01*
X182983649Y-74975317D01*
X182978772Y-74988946D01*
X182972583Y-75002031D01*
X182965142Y-75014447D01*
X182956519Y-75026073D01*
X182946798Y-75036798D01*
X182936073Y-75046519D01*
X182924447Y-75055142D01*
X182912031Y-75062583D01*
X182898946Y-75068772D01*
X182885317Y-75073649D01*
X182871276Y-75077166D01*
X182856958Y-75079290D01*
X182842500Y-75080000D01*
X182547500Y-75080000D01*
X182533042Y-75079290D01*
X182518724Y-75077166D01*
X182504683Y-75073649D01*
X182491054Y-75068772D01*
X182477969Y-75062583D01*
X182465553Y-75055142D01*
X182453927Y-75046519D01*
X182443202Y-75036798D01*
X182433481Y-75026073D01*
X182424858Y-75014447D01*
X182417417Y-75002031D01*
X182411228Y-74988946D01*
X182406351Y-74975317D01*
X182402834Y-74961276D01*
X182400710Y-74946958D01*
X182400000Y-74932500D01*
X182400000Y-74587500D01*
X182400710Y-74573042D01*
X182402834Y-74558724D01*
X182406351Y-74544683D01*
X182411228Y-74531054D01*
X182417417Y-74517969D01*
X182424858Y-74505553D01*
X182433481Y-74493927D01*
X182443202Y-74483202D01*
X182453927Y-74473481D01*
X182465553Y-74464858D01*
X182477969Y-74457417D01*
X182491054Y-74451228D01*
X182504683Y-74446351D01*
X182518724Y-74442834D01*
X182533042Y-74440710D01*
X182547500Y-74440000D01*
X182842500Y-74440000D01*
X182856958Y-74440710D01*
G37*
G36*
X183826958Y-70630710D02*
G01*
X183841276Y-70632834D01*
X183855317Y-70636351D01*
X183868946Y-70641228D01*
X183882031Y-70647417D01*
X183894447Y-70654858D01*
X183906073Y-70663481D01*
X183916798Y-70673202D01*
X183926519Y-70683927D01*
X183935142Y-70695553D01*
X183942583Y-70707969D01*
X183948772Y-70721054D01*
X183953649Y-70734683D01*
X183957166Y-70748724D01*
X183959290Y-70763042D01*
X183960000Y-70777500D01*
X183960000Y-71122500D01*
X183959290Y-71136958D01*
X183957166Y-71151276D01*
X183953649Y-71165317D01*
X183948772Y-71178946D01*
X183942583Y-71192031D01*
X183935142Y-71204447D01*
X183926519Y-71216073D01*
X183916798Y-71226798D01*
X183906073Y-71236519D01*
X183894447Y-71245142D01*
X183882031Y-71252583D01*
X183868946Y-71258772D01*
X183855317Y-71263649D01*
X183841276Y-71267166D01*
X183826958Y-71269290D01*
X183812500Y-71270000D01*
X183517500Y-71270000D01*
X183503042Y-71269290D01*
X183488724Y-71267166D01*
X183474683Y-71263649D01*
X183461054Y-71258772D01*
X183447969Y-71252583D01*
X183435553Y-71245142D01*
X183423927Y-71236519D01*
X183413202Y-71226798D01*
X183403481Y-71216073D01*
X183394858Y-71204447D01*
X183387417Y-71192031D01*
X183381228Y-71178946D01*
X183376351Y-71165317D01*
X183372834Y-71151276D01*
X183370710Y-71136958D01*
X183370000Y-71122500D01*
X183370000Y-70777500D01*
X183370710Y-70763042D01*
X183372834Y-70748724D01*
X183376351Y-70734683D01*
X183381228Y-70721054D01*
X183387417Y-70707969D01*
X183394858Y-70695553D01*
X183403481Y-70683927D01*
X183413202Y-70673202D01*
X183423927Y-70663481D01*
X183435553Y-70654858D01*
X183447969Y-70647417D01*
X183461054Y-70641228D01*
X183474683Y-70636351D01*
X183488724Y-70632834D01*
X183503042Y-70630710D01*
X183517500Y-70630000D01*
X183812500Y-70630000D01*
X183826958Y-70630710D01*
G37*
G36*
X182856958Y-70630710D02*
G01*
X182871276Y-70632834D01*
X182885317Y-70636351D01*
X182898946Y-70641228D01*
X182912031Y-70647417D01*
X182924447Y-70654858D01*
X182936073Y-70663481D01*
X182946798Y-70673202D01*
X182956519Y-70683927D01*
X182965142Y-70695553D01*
X182972583Y-70707969D01*
X182978772Y-70721054D01*
X182983649Y-70734683D01*
X182987166Y-70748724D01*
X182989290Y-70763042D01*
X182990000Y-70777500D01*
X182990000Y-71122500D01*
X182989290Y-71136958D01*
X182987166Y-71151276D01*
X182983649Y-71165317D01*
X182978772Y-71178946D01*
X182972583Y-71192031D01*
X182965142Y-71204447D01*
X182956519Y-71216073D01*
X182946798Y-71226798D01*
X182936073Y-71236519D01*
X182924447Y-71245142D01*
X182912031Y-71252583D01*
X182898946Y-71258772D01*
X182885317Y-71263649D01*
X182871276Y-71267166D01*
X182856958Y-71269290D01*
X182842500Y-71270000D01*
X182547500Y-71270000D01*
X182533042Y-71269290D01*
X182518724Y-71267166D01*
X182504683Y-71263649D01*
X182491054Y-71258772D01*
X182477969Y-71252583D01*
X182465553Y-71245142D01*
X182453927Y-71236519D01*
X182443202Y-71226798D01*
X182433481Y-71216073D01*
X182424858Y-71204447D01*
X182417417Y-71192031D01*
X182411228Y-71178946D01*
X182406351Y-71165317D01*
X182402834Y-71151276D01*
X182400710Y-71136958D01*
X182400000Y-71122500D01*
X182400000Y-70777500D01*
X182400710Y-70763042D01*
X182402834Y-70748724D01*
X182406351Y-70734683D01*
X182411228Y-70721054D01*
X182417417Y-70707969D01*
X182424858Y-70695553D01*
X182433481Y-70683927D01*
X182443202Y-70673202D01*
X182453927Y-70663481D01*
X182465553Y-70654858D01*
X182477969Y-70647417D01*
X182491054Y-70641228D01*
X182504683Y-70636351D01*
X182518724Y-70632834D01*
X182533042Y-70630710D01*
X182547500Y-70630000D01*
X182842500Y-70630000D01*
X182856958Y-70630710D01*
G37*
G36*
X139586958Y-94275710D02*
G01*
X139601276Y-94277834D01*
X139615317Y-94281351D01*
X139628946Y-94286228D01*
X139642031Y-94292417D01*
X139654447Y-94299858D01*
X139666073Y-94308481D01*
X139676798Y-94318202D01*
X139686519Y-94328927D01*
X139695142Y-94340553D01*
X139702583Y-94352969D01*
X139708772Y-94366054D01*
X139713649Y-94379683D01*
X139717166Y-94393724D01*
X139719290Y-94408042D01*
X139720000Y-94422500D01*
X139720000Y-94717500D01*
X139719290Y-94731958D01*
X139717166Y-94746276D01*
X139713649Y-94760317D01*
X139708772Y-94773946D01*
X139702583Y-94787031D01*
X139695142Y-94799447D01*
X139686519Y-94811073D01*
X139676798Y-94821798D01*
X139666073Y-94831519D01*
X139654447Y-94840142D01*
X139642031Y-94847583D01*
X139628946Y-94853772D01*
X139615317Y-94858649D01*
X139601276Y-94862166D01*
X139586958Y-94864290D01*
X139572500Y-94865000D01*
X139227500Y-94865000D01*
X139213042Y-94864290D01*
X139198724Y-94862166D01*
X139184683Y-94858649D01*
X139171054Y-94853772D01*
X139157969Y-94847583D01*
X139145553Y-94840142D01*
X139133927Y-94831519D01*
X139123202Y-94821798D01*
X139113481Y-94811073D01*
X139104858Y-94799447D01*
X139097417Y-94787031D01*
X139091228Y-94773946D01*
X139086351Y-94760317D01*
X139082834Y-94746276D01*
X139080710Y-94731958D01*
X139080000Y-94717500D01*
X139080000Y-94422500D01*
X139080710Y-94408042D01*
X139082834Y-94393724D01*
X139086351Y-94379683D01*
X139091228Y-94366054D01*
X139097417Y-94352969D01*
X139104858Y-94340553D01*
X139113481Y-94328927D01*
X139123202Y-94318202D01*
X139133927Y-94308481D01*
X139145553Y-94299858D01*
X139157969Y-94292417D01*
X139171054Y-94286228D01*
X139184683Y-94281351D01*
X139198724Y-94277834D01*
X139213042Y-94275710D01*
X139227500Y-94275000D01*
X139572500Y-94275000D01*
X139586958Y-94275710D01*
G37*
G36*
X139586958Y-93305710D02*
G01*
X139601276Y-93307834D01*
X139615317Y-93311351D01*
X139628946Y-93316228D01*
X139642031Y-93322417D01*
X139654447Y-93329858D01*
X139666073Y-93338481D01*
X139676798Y-93348202D01*
X139686519Y-93358927D01*
X139695142Y-93370553D01*
X139702583Y-93382969D01*
X139708772Y-93396054D01*
X139713649Y-93409683D01*
X139717166Y-93423724D01*
X139719290Y-93438042D01*
X139720000Y-93452500D01*
X139720000Y-93747500D01*
X139719290Y-93761958D01*
X139717166Y-93776276D01*
X139713649Y-93790317D01*
X139708772Y-93803946D01*
X139702583Y-93817031D01*
X139695142Y-93829447D01*
X139686519Y-93841073D01*
X139676798Y-93851798D01*
X139666073Y-93861519D01*
X139654447Y-93870142D01*
X139642031Y-93877583D01*
X139628946Y-93883772D01*
X139615317Y-93888649D01*
X139601276Y-93892166D01*
X139586958Y-93894290D01*
X139572500Y-93895000D01*
X139227500Y-93895000D01*
X139213042Y-93894290D01*
X139198724Y-93892166D01*
X139184683Y-93888649D01*
X139171054Y-93883772D01*
X139157969Y-93877583D01*
X139145553Y-93870142D01*
X139133927Y-93861519D01*
X139123202Y-93851798D01*
X139113481Y-93841073D01*
X139104858Y-93829447D01*
X139097417Y-93817031D01*
X139091228Y-93803946D01*
X139086351Y-93790317D01*
X139082834Y-93776276D01*
X139080710Y-93761958D01*
X139080000Y-93747500D01*
X139080000Y-93452500D01*
X139080710Y-93438042D01*
X139082834Y-93423724D01*
X139086351Y-93409683D01*
X139091228Y-93396054D01*
X139097417Y-93382969D01*
X139104858Y-93370553D01*
X139113481Y-93358927D01*
X139123202Y-93348202D01*
X139133927Y-93338481D01*
X139145553Y-93329858D01*
X139157969Y-93322417D01*
X139171054Y-93316228D01*
X139184683Y-93311351D01*
X139198724Y-93307834D01*
X139213042Y-93305710D01*
X139227500Y-93305000D01*
X139572500Y-93305000D01*
X139586958Y-93305710D01*
G37*
G36*
X141586958Y-94275710D02*
G01*
X141601276Y-94277834D01*
X141615317Y-94281351D01*
X141628946Y-94286228D01*
X141642031Y-94292417D01*
X141654447Y-94299858D01*
X141666073Y-94308481D01*
X141676798Y-94318202D01*
X141686519Y-94328927D01*
X141695142Y-94340553D01*
X141702583Y-94352969D01*
X141708772Y-94366054D01*
X141713649Y-94379683D01*
X141717166Y-94393724D01*
X141719290Y-94408042D01*
X141720000Y-94422500D01*
X141720000Y-94717500D01*
X141719290Y-94731958D01*
X141717166Y-94746276D01*
X141713649Y-94760317D01*
X141708772Y-94773946D01*
X141702583Y-94787031D01*
X141695142Y-94799447D01*
X141686519Y-94811073D01*
X141676798Y-94821798D01*
X141666073Y-94831519D01*
X141654447Y-94840142D01*
X141642031Y-94847583D01*
X141628946Y-94853772D01*
X141615317Y-94858649D01*
X141601276Y-94862166D01*
X141586958Y-94864290D01*
X141572500Y-94865000D01*
X141227500Y-94865000D01*
X141213042Y-94864290D01*
X141198724Y-94862166D01*
X141184683Y-94858649D01*
X141171054Y-94853772D01*
X141157969Y-94847583D01*
X141145553Y-94840142D01*
X141133927Y-94831519D01*
X141123202Y-94821798D01*
X141113481Y-94811073D01*
X141104858Y-94799447D01*
X141097417Y-94787031D01*
X141091228Y-94773946D01*
X141086351Y-94760317D01*
X141082834Y-94746276D01*
X141080710Y-94731958D01*
X141080000Y-94717500D01*
X141080000Y-94422500D01*
X141080710Y-94408042D01*
X141082834Y-94393724D01*
X141086351Y-94379683D01*
X141091228Y-94366054D01*
X141097417Y-94352969D01*
X141104858Y-94340553D01*
X141113481Y-94328927D01*
X141123202Y-94318202D01*
X141133927Y-94308481D01*
X141145553Y-94299858D01*
X141157969Y-94292417D01*
X141171054Y-94286228D01*
X141184683Y-94281351D01*
X141198724Y-94277834D01*
X141213042Y-94275710D01*
X141227500Y-94275000D01*
X141572500Y-94275000D01*
X141586958Y-94275710D01*
G37*
G36*
X141586958Y-93305710D02*
G01*
X141601276Y-93307834D01*
X141615317Y-93311351D01*
X141628946Y-93316228D01*
X141642031Y-93322417D01*
X141654447Y-93329858D01*
X141666073Y-93338481D01*
X141676798Y-93348202D01*
X141686519Y-93358927D01*
X141695142Y-93370553D01*
X141702583Y-93382969D01*
X141708772Y-93396054D01*
X141713649Y-93409683D01*
X141717166Y-93423724D01*
X141719290Y-93438042D01*
X141720000Y-93452500D01*
X141720000Y-93747500D01*
X141719290Y-93761958D01*
X141717166Y-93776276D01*
X141713649Y-93790317D01*
X141708772Y-93803946D01*
X141702583Y-93817031D01*
X141695142Y-93829447D01*
X141686519Y-93841073D01*
X141676798Y-93851798D01*
X141666073Y-93861519D01*
X141654447Y-93870142D01*
X141642031Y-93877583D01*
X141628946Y-93883772D01*
X141615317Y-93888649D01*
X141601276Y-93892166D01*
X141586958Y-93894290D01*
X141572500Y-93895000D01*
X141227500Y-93895000D01*
X141213042Y-93894290D01*
X141198724Y-93892166D01*
X141184683Y-93888649D01*
X141171054Y-93883772D01*
X141157969Y-93877583D01*
X141145553Y-93870142D01*
X141133927Y-93861519D01*
X141123202Y-93851798D01*
X141113481Y-93841073D01*
X141104858Y-93829447D01*
X141097417Y-93817031D01*
X141091228Y-93803946D01*
X141086351Y-93790317D01*
X141082834Y-93776276D01*
X141080710Y-93761958D01*
X141080000Y-93747500D01*
X141080000Y-93452500D01*
X141080710Y-93438042D01*
X141082834Y-93423724D01*
X141086351Y-93409683D01*
X141091228Y-93396054D01*
X141097417Y-93382969D01*
X141104858Y-93370553D01*
X141113481Y-93358927D01*
X141123202Y-93348202D01*
X141133927Y-93338481D01*
X141145553Y-93329858D01*
X141157969Y-93322417D01*
X141171054Y-93316228D01*
X141184683Y-93311351D01*
X141198724Y-93307834D01*
X141213042Y-93305710D01*
X141227500Y-93305000D01*
X141572500Y-93305000D01*
X141586958Y-93305710D01*
G37*
G36*
X140586958Y-94275710D02*
G01*
X140601276Y-94277834D01*
X140615317Y-94281351D01*
X140628946Y-94286228D01*
X140642031Y-94292417D01*
X140654447Y-94299858D01*
X140666073Y-94308481D01*
X140676798Y-94318202D01*
X140686519Y-94328927D01*
X140695142Y-94340553D01*
X140702583Y-94352969D01*
X140708772Y-94366054D01*
X140713649Y-94379683D01*
X140717166Y-94393724D01*
X140719290Y-94408042D01*
X140720000Y-94422500D01*
X140720000Y-94717500D01*
X140719290Y-94731958D01*
X140717166Y-94746276D01*
X140713649Y-94760317D01*
X140708772Y-94773946D01*
X140702583Y-94787031D01*
X140695142Y-94799447D01*
X140686519Y-94811073D01*
X140676798Y-94821798D01*
X140666073Y-94831519D01*
X140654447Y-94840142D01*
X140642031Y-94847583D01*
X140628946Y-94853772D01*
X140615317Y-94858649D01*
X140601276Y-94862166D01*
X140586958Y-94864290D01*
X140572500Y-94865000D01*
X140227500Y-94865000D01*
X140213042Y-94864290D01*
X140198724Y-94862166D01*
X140184683Y-94858649D01*
X140171054Y-94853772D01*
X140157969Y-94847583D01*
X140145553Y-94840142D01*
X140133927Y-94831519D01*
X140123202Y-94821798D01*
X140113481Y-94811073D01*
X140104858Y-94799447D01*
X140097417Y-94787031D01*
X140091228Y-94773946D01*
X140086351Y-94760317D01*
X140082834Y-94746276D01*
X140080710Y-94731958D01*
X140080000Y-94717500D01*
X140080000Y-94422500D01*
X140080710Y-94408042D01*
X140082834Y-94393724D01*
X140086351Y-94379683D01*
X140091228Y-94366054D01*
X140097417Y-94352969D01*
X140104858Y-94340553D01*
X140113481Y-94328927D01*
X140123202Y-94318202D01*
X140133927Y-94308481D01*
X140145553Y-94299858D01*
X140157969Y-94292417D01*
X140171054Y-94286228D01*
X140184683Y-94281351D01*
X140198724Y-94277834D01*
X140213042Y-94275710D01*
X140227500Y-94275000D01*
X140572500Y-94275000D01*
X140586958Y-94275710D01*
G37*
G36*
X140586958Y-93305710D02*
G01*
X140601276Y-93307834D01*
X140615317Y-93311351D01*
X140628946Y-93316228D01*
X140642031Y-93322417D01*
X140654447Y-93329858D01*
X140666073Y-93338481D01*
X140676798Y-93348202D01*
X140686519Y-93358927D01*
X140695142Y-93370553D01*
X140702583Y-93382969D01*
X140708772Y-93396054D01*
X140713649Y-93409683D01*
X140717166Y-93423724D01*
X140719290Y-93438042D01*
X140720000Y-93452500D01*
X140720000Y-93747500D01*
X140719290Y-93761958D01*
X140717166Y-93776276D01*
X140713649Y-93790317D01*
X140708772Y-93803946D01*
X140702583Y-93817031D01*
X140695142Y-93829447D01*
X140686519Y-93841073D01*
X140676798Y-93851798D01*
X140666073Y-93861519D01*
X140654447Y-93870142D01*
X140642031Y-93877583D01*
X140628946Y-93883772D01*
X140615317Y-93888649D01*
X140601276Y-93892166D01*
X140586958Y-93894290D01*
X140572500Y-93895000D01*
X140227500Y-93895000D01*
X140213042Y-93894290D01*
X140198724Y-93892166D01*
X140184683Y-93888649D01*
X140171054Y-93883772D01*
X140157969Y-93877583D01*
X140145553Y-93870142D01*
X140133927Y-93861519D01*
X140123202Y-93851798D01*
X140113481Y-93841073D01*
X140104858Y-93829447D01*
X140097417Y-93817031D01*
X140091228Y-93803946D01*
X140086351Y-93790317D01*
X140082834Y-93776276D01*
X140080710Y-93761958D01*
X140080000Y-93747500D01*
X140080000Y-93452500D01*
X140080710Y-93438042D01*
X140082834Y-93423724D01*
X140086351Y-93409683D01*
X140091228Y-93396054D01*
X140097417Y-93382969D01*
X140104858Y-93370553D01*
X140113481Y-93358927D01*
X140123202Y-93348202D01*
X140133927Y-93338481D01*
X140145553Y-93329858D01*
X140157969Y-93322417D01*
X140171054Y-93316228D01*
X140184683Y-93311351D01*
X140198724Y-93307834D01*
X140213042Y-93305710D01*
X140227500Y-93305000D01*
X140572500Y-93305000D01*
X140586958Y-93305710D01*
G37*
G36*
X170186958Y-119220710D02*
G01*
X170201276Y-119222834D01*
X170215317Y-119226351D01*
X170228946Y-119231228D01*
X170242031Y-119237417D01*
X170254447Y-119244858D01*
X170266073Y-119253481D01*
X170276798Y-119263202D01*
X170286519Y-119273927D01*
X170295142Y-119285553D01*
X170302583Y-119297969D01*
X170308772Y-119311054D01*
X170313649Y-119324683D01*
X170317166Y-119338724D01*
X170319290Y-119353042D01*
X170320000Y-119367500D01*
X170320000Y-119662500D01*
X170319290Y-119676958D01*
X170317166Y-119691276D01*
X170313649Y-119705317D01*
X170308772Y-119718946D01*
X170302583Y-119732031D01*
X170295142Y-119744447D01*
X170286519Y-119756073D01*
X170276798Y-119766798D01*
X170266073Y-119776519D01*
X170254447Y-119785142D01*
X170242031Y-119792583D01*
X170228946Y-119798772D01*
X170215317Y-119803649D01*
X170201276Y-119807166D01*
X170186958Y-119809290D01*
X170172500Y-119810000D01*
X169827500Y-119810000D01*
X169813042Y-119809290D01*
X169798724Y-119807166D01*
X169784683Y-119803649D01*
X169771054Y-119798772D01*
X169757969Y-119792583D01*
X169745553Y-119785142D01*
X169733927Y-119776519D01*
X169723202Y-119766798D01*
X169713481Y-119756073D01*
X169704858Y-119744447D01*
X169697417Y-119732031D01*
X169691228Y-119718946D01*
X169686351Y-119705317D01*
X169682834Y-119691276D01*
X169680710Y-119676958D01*
X169680000Y-119662500D01*
X169680000Y-119367500D01*
X169680710Y-119353042D01*
X169682834Y-119338724D01*
X169686351Y-119324683D01*
X169691228Y-119311054D01*
X169697417Y-119297969D01*
X169704858Y-119285553D01*
X169713481Y-119273927D01*
X169723202Y-119263202D01*
X169733927Y-119253481D01*
X169745553Y-119244858D01*
X169757969Y-119237417D01*
X169771054Y-119231228D01*
X169784683Y-119226351D01*
X169798724Y-119222834D01*
X169813042Y-119220710D01*
X169827500Y-119220000D01*
X170172500Y-119220000D01*
X170186958Y-119220710D01*
G37*
G36*
X170186958Y-120190710D02*
G01*
X170201276Y-120192834D01*
X170215317Y-120196351D01*
X170228946Y-120201228D01*
X170242031Y-120207417D01*
X170254447Y-120214858D01*
X170266073Y-120223481D01*
X170276798Y-120233202D01*
X170286519Y-120243927D01*
X170295142Y-120255553D01*
X170302583Y-120267969D01*
X170308772Y-120281054D01*
X170313649Y-120294683D01*
X170317166Y-120308724D01*
X170319290Y-120323042D01*
X170320000Y-120337500D01*
X170320000Y-120632500D01*
X170319290Y-120646958D01*
X170317166Y-120661276D01*
X170313649Y-120675317D01*
X170308772Y-120688946D01*
X170302583Y-120702031D01*
X170295142Y-120714447D01*
X170286519Y-120726073D01*
X170276798Y-120736798D01*
X170266073Y-120746519D01*
X170254447Y-120755142D01*
X170242031Y-120762583D01*
X170228946Y-120768772D01*
X170215317Y-120773649D01*
X170201276Y-120777166D01*
X170186958Y-120779290D01*
X170172500Y-120780000D01*
X169827500Y-120780000D01*
X169813042Y-120779290D01*
X169798724Y-120777166D01*
X169784683Y-120773649D01*
X169771054Y-120768772D01*
X169757969Y-120762583D01*
X169745553Y-120755142D01*
X169733927Y-120746519D01*
X169723202Y-120736798D01*
X169713481Y-120726073D01*
X169704858Y-120714447D01*
X169697417Y-120702031D01*
X169691228Y-120688946D01*
X169686351Y-120675317D01*
X169682834Y-120661276D01*
X169680710Y-120646958D01*
X169680000Y-120632500D01*
X169680000Y-120337500D01*
X169680710Y-120323042D01*
X169682834Y-120308724D01*
X169686351Y-120294683D01*
X169691228Y-120281054D01*
X169697417Y-120267969D01*
X169704858Y-120255553D01*
X169713481Y-120243927D01*
X169723202Y-120233202D01*
X169733927Y-120223481D01*
X169745553Y-120214858D01*
X169757969Y-120207417D01*
X169771054Y-120201228D01*
X169784683Y-120196351D01*
X169798724Y-120192834D01*
X169813042Y-120190710D01*
X169827500Y-120190000D01*
X170172500Y-120190000D01*
X170186958Y-120190710D01*
G37*
G36*
X150186958Y-119220710D02*
G01*
X150201276Y-119222834D01*
X150215317Y-119226351D01*
X150228946Y-119231228D01*
X150242031Y-119237417D01*
X150254447Y-119244858D01*
X150266073Y-119253481D01*
X150276798Y-119263202D01*
X150286519Y-119273927D01*
X150295142Y-119285553D01*
X150302583Y-119297969D01*
X150308772Y-119311054D01*
X150313649Y-119324683D01*
X150317166Y-119338724D01*
X150319290Y-119353042D01*
X150320000Y-119367500D01*
X150320000Y-119662500D01*
X150319290Y-119676958D01*
X150317166Y-119691276D01*
X150313649Y-119705317D01*
X150308772Y-119718946D01*
X150302583Y-119732031D01*
X150295142Y-119744447D01*
X150286519Y-119756073D01*
X150276798Y-119766798D01*
X150266073Y-119776519D01*
X150254447Y-119785142D01*
X150242031Y-119792583D01*
X150228946Y-119798772D01*
X150215317Y-119803649D01*
X150201276Y-119807166D01*
X150186958Y-119809290D01*
X150172500Y-119810000D01*
X149827500Y-119810000D01*
X149813042Y-119809290D01*
X149798724Y-119807166D01*
X149784683Y-119803649D01*
X149771054Y-119798772D01*
X149757969Y-119792583D01*
X149745553Y-119785142D01*
X149733927Y-119776519D01*
X149723202Y-119766798D01*
X149713481Y-119756073D01*
X149704858Y-119744447D01*
X149697417Y-119732031D01*
X149691228Y-119718946D01*
X149686351Y-119705317D01*
X149682834Y-119691276D01*
X149680710Y-119676958D01*
X149680000Y-119662500D01*
X149680000Y-119367500D01*
X149680710Y-119353042D01*
X149682834Y-119338724D01*
X149686351Y-119324683D01*
X149691228Y-119311054D01*
X149697417Y-119297969D01*
X149704858Y-119285553D01*
X149713481Y-119273927D01*
X149723202Y-119263202D01*
X149733927Y-119253481D01*
X149745553Y-119244858D01*
X149757969Y-119237417D01*
X149771054Y-119231228D01*
X149784683Y-119226351D01*
X149798724Y-119222834D01*
X149813042Y-119220710D01*
X149827500Y-119220000D01*
X150172500Y-119220000D01*
X150186958Y-119220710D01*
G37*
G36*
X150186958Y-120190710D02*
G01*
X150201276Y-120192834D01*
X150215317Y-120196351D01*
X150228946Y-120201228D01*
X150242031Y-120207417D01*
X150254447Y-120214858D01*
X150266073Y-120223481D01*
X150276798Y-120233202D01*
X150286519Y-120243927D01*
X150295142Y-120255553D01*
X150302583Y-120267969D01*
X150308772Y-120281054D01*
X150313649Y-120294683D01*
X150317166Y-120308724D01*
X150319290Y-120323042D01*
X150320000Y-120337500D01*
X150320000Y-120632500D01*
X150319290Y-120646958D01*
X150317166Y-120661276D01*
X150313649Y-120675317D01*
X150308772Y-120688946D01*
X150302583Y-120702031D01*
X150295142Y-120714447D01*
X150286519Y-120726073D01*
X150276798Y-120736798D01*
X150266073Y-120746519D01*
X150254447Y-120755142D01*
X150242031Y-120762583D01*
X150228946Y-120768772D01*
X150215317Y-120773649D01*
X150201276Y-120777166D01*
X150186958Y-120779290D01*
X150172500Y-120780000D01*
X149827500Y-120780000D01*
X149813042Y-120779290D01*
X149798724Y-120777166D01*
X149784683Y-120773649D01*
X149771054Y-120768772D01*
X149757969Y-120762583D01*
X149745553Y-120755142D01*
X149733927Y-120746519D01*
X149723202Y-120736798D01*
X149713481Y-120726073D01*
X149704858Y-120714447D01*
X149697417Y-120702031D01*
X149691228Y-120688946D01*
X149686351Y-120675317D01*
X149682834Y-120661276D01*
X149680710Y-120646958D01*
X149680000Y-120632500D01*
X149680000Y-120337500D01*
X149680710Y-120323042D01*
X149682834Y-120308724D01*
X149686351Y-120294683D01*
X149691228Y-120281054D01*
X149697417Y-120267969D01*
X149704858Y-120255553D01*
X149713481Y-120243927D01*
X149723202Y-120233202D01*
X149733927Y-120223481D01*
X149745553Y-120214858D01*
X149757969Y-120207417D01*
X149771054Y-120201228D01*
X149784683Y-120196351D01*
X149798724Y-120192834D01*
X149813042Y-120190710D01*
X149827500Y-120190000D01*
X150172500Y-120190000D01*
X150186958Y-120190710D01*
G37*
G36*
X130186958Y-119205710D02*
G01*
X130201276Y-119207834D01*
X130215317Y-119211351D01*
X130228946Y-119216228D01*
X130242031Y-119222417D01*
X130254447Y-119229858D01*
X130266073Y-119238481D01*
X130276798Y-119248202D01*
X130286519Y-119258927D01*
X130295142Y-119270553D01*
X130302583Y-119282969D01*
X130308772Y-119296054D01*
X130313649Y-119309683D01*
X130317166Y-119323724D01*
X130319290Y-119338042D01*
X130320000Y-119352500D01*
X130320000Y-119647500D01*
X130319290Y-119661958D01*
X130317166Y-119676276D01*
X130313649Y-119690317D01*
X130308772Y-119703946D01*
X130302583Y-119717031D01*
X130295142Y-119729447D01*
X130286519Y-119741073D01*
X130276798Y-119751798D01*
X130266073Y-119761519D01*
X130254447Y-119770142D01*
X130242031Y-119777583D01*
X130228946Y-119783772D01*
X130215317Y-119788649D01*
X130201276Y-119792166D01*
X130186958Y-119794290D01*
X130172500Y-119795000D01*
X129827500Y-119795000D01*
X129813042Y-119794290D01*
X129798724Y-119792166D01*
X129784683Y-119788649D01*
X129771054Y-119783772D01*
X129757969Y-119777583D01*
X129745553Y-119770142D01*
X129733927Y-119761519D01*
X129723202Y-119751798D01*
X129713481Y-119741073D01*
X129704858Y-119729447D01*
X129697417Y-119717031D01*
X129691228Y-119703946D01*
X129686351Y-119690317D01*
X129682834Y-119676276D01*
X129680710Y-119661958D01*
X129680000Y-119647500D01*
X129680000Y-119352500D01*
X129680710Y-119338042D01*
X129682834Y-119323724D01*
X129686351Y-119309683D01*
X129691228Y-119296054D01*
X129697417Y-119282969D01*
X129704858Y-119270553D01*
X129713481Y-119258927D01*
X129723202Y-119248202D01*
X129733927Y-119238481D01*
X129745553Y-119229858D01*
X129757969Y-119222417D01*
X129771054Y-119216228D01*
X129784683Y-119211351D01*
X129798724Y-119207834D01*
X129813042Y-119205710D01*
X129827500Y-119205000D01*
X130172500Y-119205000D01*
X130186958Y-119205710D01*
G37*
G36*
X130186958Y-120175710D02*
G01*
X130201276Y-120177834D01*
X130215317Y-120181351D01*
X130228946Y-120186228D01*
X130242031Y-120192417D01*
X130254447Y-120199858D01*
X130266073Y-120208481D01*
X130276798Y-120218202D01*
X130286519Y-120228927D01*
X130295142Y-120240553D01*
X130302583Y-120252969D01*
X130308772Y-120266054D01*
X130313649Y-120279683D01*
X130317166Y-120293724D01*
X130319290Y-120308042D01*
X130320000Y-120322500D01*
X130320000Y-120617500D01*
X130319290Y-120631958D01*
X130317166Y-120646276D01*
X130313649Y-120660317D01*
X130308772Y-120673946D01*
X130302583Y-120687031D01*
X130295142Y-120699447D01*
X130286519Y-120711073D01*
X130276798Y-120721798D01*
X130266073Y-120731519D01*
X130254447Y-120740142D01*
X130242031Y-120747583D01*
X130228946Y-120753772D01*
X130215317Y-120758649D01*
X130201276Y-120762166D01*
X130186958Y-120764290D01*
X130172500Y-120765000D01*
X129827500Y-120765000D01*
X129813042Y-120764290D01*
X129798724Y-120762166D01*
X129784683Y-120758649D01*
X129771054Y-120753772D01*
X129757969Y-120747583D01*
X129745553Y-120740142D01*
X129733927Y-120731519D01*
X129723202Y-120721798D01*
X129713481Y-120711073D01*
X129704858Y-120699447D01*
X129697417Y-120687031D01*
X129691228Y-120673946D01*
X129686351Y-120660317D01*
X129682834Y-120646276D01*
X129680710Y-120631958D01*
X129680000Y-120617500D01*
X129680000Y-120322500D01*
X129680710Y-120308042D01*
X129682834Y-120293724D01*
X129686351Y-120279683D01*
X129691228Y-120266054D01*
X129697417Y-120252969D01*
X129704858Y-120240553D01*
X129713481Y-120228927D01*
X129723202Y-120218202D01*
X129733927Y-120208481D01*
X129745553Y-120199858D01*
X129757969Y-120192417D01*
X129771054Y-120186228D01*
X129784683Y-120181351D01*
X129798724Y-120177834D01*
X129813042Y-120175710D01*
X129827500Y-120175000D01*
X130172500Y-120175000D01*
X130186958Y-120175710D01*
G37*
G36*
X110186958Y-119220710D02*
G01*
X110201276Y-119222834D01*
X110215317Y-119226351D01*
X110228946Y-119231228D01*
X110242031Y-119237417D01*
X110254447Y-119244858D01*
X110266073Y-119253481D01*
X110276798Y-119263202D01*
X110286519Y-119273927D01*
X110295142Y-119285553D01*
X110302583Y-119297969D01*
X110308772Y-119311054D01*
X110313649Y-119324683D01*
X110317166Y-119338724D01*
X110319290Y-119353042D01*
X110320000Y-119367500D01*
X110320000Y-119662500D01*
X110319290Y-119676958D01*
X110317166Y-119691276D01*
X110313649Y-119705317D01*
X110308772Y-119718946D01*
X110302583Y-119732031D01*
X110295142Y-119744447D01*
X110286519Y-119756073D01*
X110276798Y-119766798D01*
X110266073Y-119776519D01*
X110254447Y-119785142D01*
X110242031Y-119792583D01*
X110228946Y-119798772D01*
X110215317Y-119803649D01*
X110201276Y-119807166D01*
X110186958Y-119809290D01*
X110172500Y-119810000D01*
X109827500Y-119810000D01*
X109813042Y-119809290D01*
X109798724Y-119807166D01*
X109784683Y-119803649D01*
X109771054Y-119798772D01*
X109757969Y-119792583D01*
X109745553Y-119785142D01*
X109733927Y-119776519D01*
X109723202Y-119766798D01*
X109713481Y-119756073D01*
X109704858Y-119744447D01*
X109697417Y-119732031D01*
X109691228Y-119718946D01*
X109686351Y-119705317D01*
X109682834Y-119691276D01*
X109680710Y-119676958D01*
X109680000Y-119662500D01*
X109680000Y-119367500D01*
X109680710Y-119353042D01*
X109682834Y-119338724D01*
X109686351Y-119324683D01*
X109691228Y-119311054D01*
X109697417Y-119297969D01*
X109704858Y-119285553D01*
X109713481Y-119273927D01*
X109723202Y-119263202D01*
X109733927Y-119253481D01*
X109745553Y-119244858D01*
X109757969Y-119237417D01*
X109771054Y-119231228D01*
X109784683Y-119226351D01*
X109798724Y-119222834D01*
X109813042Y-119220710D01*
X109827500Y-119220000D01*
X110172500Y-119220000D01*
X110186958Y-119220710D01*
G37*
G36*
X110186958Y-120190710D02*
G01*
X110201276Y-120192834D01*
X110215317Y-120196351D01*
X110228946Y-120201228D01*
X110242031Y-120207417D01*
X110254447Y-120214858D01*
X110266073Y-120223481D01*
X110276798Y-120233202D01*
X110286519Y-120243927D01*
X110295142Y-120255553D01*
X110302583Y-120267969D01*
X110308772Y-120281054D01*
X110313649Y-120294683D01*
X110317166Y-120308724D01*
X110319290Y-120323042D01*
X110320000Y-120337500D01*
X110320000Y-120632500D01*
X110319290Y-120646958D01*
X110317166Y-120661276D01*
X110313649Y-120675317D01*
X110308772Y-120688946D01*
X110302583Y-120702031D01*
X110295142Y-120714447D01*
X110286519Y-120726073D01*
X110276798Y-120736798D01*
X110266073Y-120746519D01*
X110254447Y-120755142D01*
X110242031Y-120762583D01*
X110228946Y-120768772D01*
X110215317Y-120773649D01*
X110201276Y-120777166D01*
X110186958Y-120779290D01*
X110172500Y-120780000D01*
X109827500Y-120780000D01*
X109813042Y-120779290D01*
X109798724Y-120777166D01*
X109784683Y-120773649D01*
X109771054Y-120768772D01*
X109757969Y-120762583D01*
X109745553Y-120755142D01*
X109733927Y-120746519D01*
X109723202Y-120736798D01*
X109713481Y-120726073D01*
X109704858Y-120714447D01*
X109697417Y-120702031D01*
X109691228Y-120688946D01*
X109686351Y-120675317D01*
X109682834Y-120661276D01*
X109680710Y-120646958D01*
X109680000Y-120632500D01*
X109680000Y-120337500D01*
X109680710Y-120323042D01*
X109682834Y-120308724D01*
X109686351Y-120294683D01*
X109691228Y-120281054D01*
X109697417Y-120267969D01*
X109704858Y-120255553D01*
X109713481Y-120243927D01*
X109723202Y-120233202D01*
X109733927Y-120223481D01*
X109745553Y-120214858D01*
X109757969Y-120207417D01*
X109771054Y-120201228D01*
X109784683Y-120196351D01*
X109798724Y-120192834D01*
X109813042Y-120190710D01*
X109827500Y-120190000D01*
X110172500Y-120190000D01*
X110186958Y-120190710D01*
G37*
G36*
X170186958Y-99220710D02*
G01*
X170201276Y-99222834D01*
X170215317Y-99226351D01*
X170228946Y-99231228D01*
X170242031Y-99237417D01*
X170254447Y-99244858D01*
X170266073Y-99253481D01*
X170276798Y-99263202D01*
X170286519Y-99273927D01*
X170295142Y-99285553D01*
X170302583Y-99297969D01*
X170308772Y-99311054D01*
X170313649Y-99324683D01*
X170317166Y-99338724D01*
X170319290Y-99353042D01*
X170320000Y-99367500D01*
X170320000Y-99662500D01*
X170319290Y-99676958D01*
X170317166Y-99691276D01*
X170313649Y-99705317D01*
X170308772Y-99718946D01*
X170302583Y-99732031D01*
X170295142Y-99744447D01*
X170286519Y-99756073D01*
X170276798Y-99766798D01*
X170266073Y-99776519D01*
X170254447Y-99785142D01*
X170242031Y-99792583D01*
X170228946Y-99798772D01*
X170215317Y-99803649D01*
X170201276Y-99807166D01*
X170186958Y-99809290D01*
X170172500Y-99810000D01*
X169827500Y-99810000D01*
X169813042Y-99809290D01*
X169798724Y-99807166D01*
X169784683Y-99803649D01*
X169771054Y-99798772D01*
X169757969Y-99792583D01*
X169745553Y-99785142D01*
X169733927Y-99776519D01*
X169723202Y-99766798D01*
X169713481Y-99756073D01*
X169704858Y-99744447D01*
X169697417Y-99732031D01*
X169691228Y-99718946D01*
X169686351Y-99705317D01*
X169682834Y-99691276D01*
X169680710Y-99676958D01*
X169680000Y-99662500D01*
X169680000Y-99367500D01*
X169680710Y-99353042D01*
X169682834Y-99338724D01*
X169686351Y-99324683D01*
X169691228Y-99311054D01*
X169697417Y-99297969D01*
X169704858Y-99285553D01*
X169713481Y-99273927D01*
X169723202Y-99263202D01*
X169733927Y-99253481D01*
X169745553Y-99244858D01*
X169757969Y-99237417D01*
X169771054Y-99231228D01*
X169784683Y-99226351D01*
X169798724Y-99222834D01*
X169813042Y-99220710D01*
X169827500Y-99220000D01*
X170172500Y-99220000D01*
X170186958Y-99220710D01*
G37*
G36*
X170186958Y-100190710D02*
G01*
X170201276Y-100192834D01*
X170215317Y-100196351D01*
X170228946Y-100201228D01*
X170242031Y-100207417D01*
X170254447Y-100214858D01*
X170266073Y-100223481D01*
X170276798Y-100233202D01*
X170286519Y-100243927D01*
X170295142Y-100255553D01*
X170302583Y-100267969D01*
X170308772Y-100281054D01*
X170313649Y-100294683D01*
X170317166Y-100308724D01*
X170319290Y-100323042D01*
X170320000Y-100337500D01*
X170320000Y-100632500D01*
X170319290Y-100646958D01*
X170317166Y-100661276D01*
X170313649Y-100675317D01*
X170308772Y-100688946D01*
X170302583Y-100702031D01*
X170295142Y-100714447D01*
X170286519Y-100726073D01*
X170276798Y-100736798D01*
X170266073Y-100746519D01*
X170254447Y-100755142D01*
X170242031Y-100762583D01*
X170228946Y-100768772D01*
X170215317Y-100773649D01*
X170201276Y-100777166D01*
X170186958Y-100779290D01*
X170172500Y-100780000D01*
X169827500Y-100780000D01*
X169813042Y-100779290D01*
X169798724Y-100777166D01*
X169784683Y-100773649D01*
X169771054Y-100768772D01*
X169757969Y-100762583D01*
X169745553Y-100755142D01*
X169733927Y-100746519D01*
X169723202Y-100736798D01*
X169713481Y-100726073D01*
X169704858Y-100714447D01*
X169697417Y-100702031D01*
X169691228Y-100688946D01*
X169686351Y-100675317D01*
X169682834Y-100661276D01*
X169680710Y-100646958D01*
X169680000Y-100632500D01*
X169680000Y-100337500D01*
X169680710Y-100323042D01*
X169682834Y-100308724D01*
X169686351Y-100294683D01*
X169691228Y-100281054D01*
X169697417Y-100267969D01*
X169704858Y-100255553D01*
X169713481Y-100243927D01*
X169723202Y-100233202D01*
X169733927Y-100223481D01*
X169745553Y-100214858D01*
X169757969Y-100207417D01*
X169771054Y-100201228D01*
X169784683Y-100196351D01*
X169798724Y-100192834D01*
X169813042Y-100190710D01*
X169827500Y-100190000D01*
X170172500Y-100190000D01*
X170186958Y-100190710D01*
G37*
G36*
X150186958Y-99220710D02*
G01*
X150201276Y-99222834D01*
X150215317Y-99226351D01*
X150228946Y-99231228D01*
X150242031Y-99237417D01*
X150254447Y-99244858D01*
X150266073Y-99253481D01*
X150276798Y-99263202D01*
X150286519Y-99273927D01*
X150295142Y-99285553D01*
X150302583Y-99297969D01*
X150308772Y-99311054D01*
X150313649Y-99324683D01*
X150317166Y-99338724D01*
X150319290Y-99353042D01*
X150320000Y-99367500D01*
X150320000Y-99662500D01*
X150319290Y-99676958D01*
X150317166Y-99691276D01*
X150313649Y-99705317D01*
X150308772Y-99718946D01*
X150302583Y-99732031D01*
X150295142Y-99744447D01*
X150286519Y-99756073D01*
X150276798Y-99766798D01*
X150266073Y-99776519D01*
X150254447Y-99785142D01*
X150242031Y-99792583D01*
X150228946Y-99798772D01*
X150215317Y-99803649D01*
X150201276Y-99807166D01*
X150186958Y-99809290D01*
X150172500Y-99810000D01*
X149827500Y-99810000D01*
X149813042Y-99809290D01*
X149798724Y-99807166D01*
X149784683Y-99803649D01*
X149771054Y-99798772D01*
X149757969Y-99792583D01*
X149745553Y-99785142D01*
X149733927Y-99776519D01*
X149723202Y-99766798D01*
X149713481Y-99756073D01*
X149704858Y-99744447D01*
X149697417Y-99732031D01*
X149691228Y-99718946D01*
X149686351Y-99705317D01*
X149682834Y-99691276D01*
X149680710Y-99676958D01*
X149680000Y-99662500D01*
X149680000Y-99367500D01*
X149680710Y-99353042D01*
X149682834Y-99338724D01*
X149686351Y-99324683D01*
X149691228Y-99311054D01*
X149697417Y-99297969D01*
X149704858Y-99285553D01*
X149713481Y-99273927D01*
X149723202Y-99263202D01*
X149733927Y-99253481D01*
X149745553Y-99244858D01*
X149757969Y-99237417D01*
X149771054Y-99231228D01*
X149784683Y-99226351D01*
X149798724Y-99222834D01*
X149813042Y-99220710D01*
X149827500Y-99220000D01*
X150172500Y-99220000D01*
X150186958Y-99220710D01*
G37*
G36*
X150186958Y-100190710D02*
G01*
X150201276Y-100192834D01*
X150215317Y-100196351D01*
X150228946Y-100201228D01*
X150242031Y-100207417D01*
X150254447Y-100214858D01*
X150266073Y-100223481D01*
X150276798Y-100233202D01*
X150286519Y-100243927D01*
X150295142Y-100255553D01*
X150302583Y-100267969D01*
X150308772Y-100281054D01*
X150313649Y-100294683D01*
X150317166Y-100308724D01*
X150319290Y-100323042D01*
X150320000Y-100337500D01*
X150320000Y-100632500D01*
X150319290Y-100646958D01*
X150317166Y-100661276D01*
X150313649Y-100675317D01*
X150308772Y-100688946D01*
X150302583Y-100702031D01*
X150295142Y-100714447D01*
X150286519Y-100726073D01*
X150276798Y-100736798D01*
X150266073Y-100746519D01*
X150254447Y-100755142D01*
X150242031Y-100762583D01*
X150228946Y-100768772D01*
X150215317Y-100773649D01*
X150201276Y-100777166D01*
X150186958Y-100779290D01*
X150172500Y-100780000D01*
X149827500Y-100780000D01*
X149813042Y-100779290D01*
X149798724Y-100777166D01*
X149784683Y-100773649D01*
X149771054Y-100768772D01*
X149757969Y-100762583D01*
X149745553Y-100755142D01*
X149733927Y-100746519D01*
X149723202Y-100736798D01*
X149713481Y-100726073D01*
X149704858Y-100714447D01*
X149697417Y-100702031D01*
X149691228Y-100688946D01*
X149686351Y-100675317D01*
X149682834Y-100661276D01*
X149680710Y-100646958D01*
X149680000Y-100632500D01*
X149680000Y-100337500D01*
X149680710Y-100323042D01*
X149682834Y-100308724D01*
X149686351Y-100294683D01*
X149691228Y-100281054D01*
X149697417Y-100267969D01*
X149704858Y-100255553D01*
X149713481Y-100243927D01*
X149723202Y-100233202D01*
X149733927Y-100223481D01*
X149745553Y-100214858D01*
X149757969Y-100207417D01*
X149771054Y-100201228D01*
X149784683Y-100196351D01*
X149798724Y-100192834D01*
X149813042Y-100190710D01*
X149827500Y-100190000D01*
X150172500Y-100190000D01*
X150186958Y-100190710D01*
G37*
G36*
X130186958Y-99205710D02*
G01*
X130201276Y-99207834D01*
X130215317Y-99211351D01*
X130228946Y-99216228D01*
X130242031Y-99222417D01*
X130254447Y-99229858D01*
X130266073Y-99238481D01*
X130276798Y-99248202D01*
X130286519Y-99258927D01*
X130295142Y-99270553D01*
X130302583Y-99282969D01*
X130308772Y-99296054D01*
X130313649Y-99309683D01*
X130317166Y-99323724D01*
X130319290Y-99338042D01*
X130320000Y-99352500D01*
X130320000Y-99647500D01*
X130319290Y-99661958D01*
X130317166Y-99676276D01*
X130313649Y-99690317D01*
X130308772Y-99703946D01*
X130302583Y-99717031D01*
X130295142Y-99729447D01*
X130286519Y-99741073D01*
X130276798Y-99751798D01*
X130266073Y-99761519D01*
X130254447Y-99770142D01*
X130242031Y-99777583D01*
X130228946Y-99783772D01*
X130215317Y-99788649D01*
X130201276Y-99792166D01*
X130186958Y-99794290D01*
X130172500Y-99795000D01*
X129827500Y-99795000D01*
X129813042Y-99794290D01*
X129798724Y-99792166D01*
X129784683Y-99788649D01*
X129771054Y-99783772D01*
X129757969Y-99777583D01*
X129745553Y-99770142D01*
X129733927Y-99761519D01*
X129723202Y-99751798D01*
X129713481Y-99741073D01*
X129704858Y-99729447D01*
X129697417Y-99717031D01*
X129691228Y-99703946D01*
X129686351Y-99690317D01*
X129682834Y-99676276D01*
X129680710Y-99661958D01*
X129680000Y-99647500D01*
X129680000Y-99352500D01*
X129680710Y-99338042D01*
X129682834Y-99323724D01*
X129686351Y-99309683D01*
X129691228Y-99296054D01*
X129697417Y-99282969D01*
X129704858Y-99270553D01*
X129713481Y-99258927D01*
X129723202Y-99248202D01*
X129733927Y-99238481D01*
X129745553Y-99229858D01*
X129757969Y-99222417D01*
X129771054Y-99216228D01*
X129784683Y-99211351D01*
X129798724Y-99207834D01*
X129813042Y-99205710D01*
X129827500Y-99205000D01*
X130172500Y-99205000D01*
X130186958Y-99205710D01*
G37*
G36*
X130186958Y-100175710D02*
G01*
X130201276Y-100177834D01*
X130215317Y-100181351D01*
X130228946Y-100186228D01*
X130242031Y-100192417D01*
X130254447Y-100199858D01*
X130266073Y-100208481D01*
X130276798Y-100218202D01*
X130286519Y-100228927D01*
X130295142Y-100240553D01*
X130302583Y-100252969D01*
X130308772Y-100266054D01*
X130313649Y-100279683D01*
X130317166Y-100293724D01*
X130319290Y-100308042D01*
X130320000Y-100322500D01*
X130320000Y-100617500D01*
X130319290Y-100631958D01*
X130317166Y-100646276D01*
X130313649Y-100660317D01*
X130308772Y-100673946D01*
X130302583Y-100687031D01*
X130295142Y-100699447D01*
X130286519Y-100711073D01*
X130276798Y-100721798D01*
X130266073Y-100731519D01*
X130254447Y-100740142D01*
X130242031Y-100747583D01*
X130228946Y-100753772D01*
X130215317Y-100758649D01*
X130201276Y-100762166D01*
X130186958Y-100764290D01*
X130172500Y-100765000D01*
X129827500Y-100765000D01*
X129813042Y-100764290D01*
X129798724Y-100762166D01*
X129784683Y-100758649D01*
X129771054Y-100753772D01*
X129757969Y-100747583D01*
X129745553Y-100740142D01*
X129733927Y-100731519D01*
X129723202Y-100721798D01*
X129713481Y-100711073D01*
X129704858Y-100699447D01*
X129697417Y-100687031D01*
X129691228Y-100673946D01*
X129686351Y-100660317D01*
X129682834Y-100646276D01*
X129680710Y-100631958D01*
X129680000Y-100617500D01*
X129680000Y-100322500D01*
X129680710Y-100308042D01*
X129682834Y-100293724D01*
X129686351Y-100279683D01*
X129691228Y-100266054D01*
X129697417Y-100252969D01*
X129704858Y-100240553D01*
X129713481Y-100228927D01*
X129723202Y-100218202D01*
X129733927Y-100208481D01*
X129745553Y-100199858D01*
X129757969Y-100192417D01*
X129771054Y-100186228D01*
X129784683Y-100181351D01*
X129798724Y-100177834D01*
X129813042Y-100175710D01*
X129827500Y-100175000D01*
X130172500Y-100175000D01*
X130186958Y-100175710D01*
G37*
G36*
X110186958Y-99220710D02*
G01*
X110201276Y-99222834D01*
X110215317Y-99226351D01*
X110228946Y-99231228D01*
X110242031Y-99237417D01*
X110254447Y-99244858D01*
X110266073Y-99253481D01*
X110276798Y-99263202D01*
X110286519Y-99273927D01*
X110295142Y-99285553D01*
X110302583Y-99297969D01*
X110308772Y-99311054D01*
X110313649Y-99324683D01*
X110317166Y-99338724D01*
X110319290Y-99353042D01*
X110320000Y-99367500D01*
X110320000Y-99662500D01*
X110319290Y-99676958D01*
X110317166Y-99691276D01*
X110313649Y-99705317D01*
X110308772Y-99718946D01*
X110302583Y-99732031D01*
X110295142Y-99744447D01*
X110286519Y-99756073D01*
X110276798Y-99766798D01*
X110266073Y-99776519D01*
X110254447Y-99785142D01*
X110242031Y-99792583D01*
X110228946Y-99798772D01*
X110215317Y-99803649D01*
X110201276Y-99807166D01*
X110186958Y-99809290D01*
X110172500Y-99810000D01*
X109827500Y-99810000D01*
X109813042Y-99809290D01*
X109798724Y-99807166D01*
X109784683Y-99803649D01*
X109771054Y-99798772D01*
X109757969Y-99792583D01*
X109745553Y-99785142D01*
X109733927Y-99776519D01*
X109723202Y-99766798D01*
X109713481Y-99756073D01*
X109704858Y-99744447D01*
X109697417Y-99732031D01*
X109691228Y-99718946D01*
X109686351Y-99705317D01*
X109682834Y-99691276D01*
X109680710Y-99676958D01*
X109680000Y-99662500D01*
X109680000Y-99367500D01*
X109680710Y-99353042D01*
X109682834Y-99338724D01*
X109686351Y-99324683D01*
X109691228Y-99311054D01*
X109697417Y-99297969D01*
X109704858Y-99285553D01*
X109713481Y-99273927D01*
X109723202Y-99263202D01*
X109733927Y-99253481D01*
X109745553Y-99244858D01*
X109757969Y-99237417D01*
X109771054Y-99231228D01*
X109784683Y-99226351D01*
X109798724Y-99222834D01*
X109813042Y-99220710D01*
X109827500Y-99220000D01*
X110172500Y-99220000D01*
X110186958Y-99220710D01*
G37*
G36*
X110186958Y-100190710D02*
G01*
X110201276Y-100192834D01*
X110215317Y-100196351D01*
X110228946Y-100201228D01*
X110242031Y-100207417D01*
X110254447Y-100214858D01*
X110266073Y-100223481D01*
X110276798Y-100233202D01*
X110286519Y-100243927D01*
X110295142Y-100255553D01*
X110302583Y-100267969D01*
X110308772Y-100281054D01*
X110313649Y-100294683D01*
X110317166Y-100308724D01*
X110319290Y-100323042D01*
X110320000Y-100337500D01*
X110320000Y-100632500D01*
X110319290Y-100646958D01*
X110317166Y-100661276D01*
X110313649Y-100675317D01*
X110308772Y-100688946D01*
X110302583Y-100702031D01*
X110295142Y-100714447D01*
X110286519Y-100726073D01*
X110276798Y-100736798D01*
X110266073Y-100746519D01*
X110254447Y-100755142D01*
X110242031Y-100762583D01*
X110228946Y-100768772D01*
X110215317Y-100773649D01*
X110201276Y-100777166D01*
X110186958Y-100779290D01*
X110172500Y-100780000D01*
X109827500Y-100780000D01*
X109813042Y-100779290D01*
X109798724Y-100777166D01*
X109784683Y-100773649D01*
X109771054Y-100768772D01*
X109757969Y-100762583D01*
X109745553Y-100755142D01*
X109733927Y-100746519D01*
X109723202Y-100736798D01*
X109713481Y-100726073D01*
X109704858Y-100714447D01*
X109697417Y-100702031D01*
X109691228Y-100688946D01*
X109686351Y-100675317D01*
X109682834Y-100661276D01*
X109680710Y-100646958D01*
X109680000Y-100632500D01*
X109680000Y-100337500D01*
X109680710Y-100323042D01*
X109682834Y-100308724D01*
X109686351Y-100294683D01*
X109691228Y-100281054D01*
X109697417Y-100267969D01*
X109704858Y-100255553D01*
X109713481Y-100243927D01*
X109723202Y-100233202D01*
X109733927Y-100223481D01*
X109745553Y-100214858D01*
X109757969Y-100207417D01*
X109771054Y-100201228D01*
X109784683Y-100196351D01*
X109798724Y-100192834D01*
X109813042Y-100190710D01*
X109827500Y-100190000D01*
X110172500Y-100190000D01*
X110186958Y-100190710D01*
G37*
G36*
X170186958Y-79220710D02*
G01*
X170201276Y-79222834D01*
X170215317Y-79226351D01*
X170228946Y-79231228D01*
X170242031Y-79237417D01*
X170254447Y-79244858D01*
X170266073Y-79253481D01*
X170276798Y-79263202D01*
X170286519Y-79273927D01*
X170295142Y-79285553D01*
X170302583Y-79297969D01*
X170308772Y-79311054D01*
X170313649Y-79324683D01*
X170317166Y-79338724D01*
X170319290Y-79353042D01*
X170320000Y-79367500D01*
X170320000Y-79662500D01*
X170319290Y-79676958D01*
X170317166Y-79691276D01*
X170313649Y-79705317D01*
X170308772Y-79718946D01*
X170302583Y-79732031D01*
X170295142Y-79744447D01*
X170286519Y-79756073D01*
X170276798Y-79766798D01*
X170266073Y-79776519D01*
X170254447Y-79785142D01*
X170242031Y-79792583D01*
X170228946Y-79798772D01*
X170215317Y-79803649D01*
X170201276Y-79807166D01*
X170186958Y-79809290D01*
X170172500Y-79810000D01*
X169827500Y-79810000D01*
X169813042Y-79809290D01*
X169798724Y-79807166D01*
X169784683Y-79803649D01*
X169771054Y-79798772D01*
X169757969Y-79792583D01*
X169745553Y-79785142D01*
X169733927Y-79776519D01*
X169723202Y-79766798D01*
X169713481Y-79756073D01*
X169704858Y-79744447D01*
X169697417Y-79732031D01*
X169691228Y-79718946D01*
X169686351Y-79705317D01*
X169682834Y-79691276D01*
X169680710Y-79676958D01*
X169680000Y-79662500D01*
X169680000Y-79367500D01*
X169680710Y-79353042D01*
X169682834Y-79338724D01*
X169686351Y-79324683D01*
X169691228Y-79311054D01*
X169697417Y-79297969D01*
X169704858Y-79285553D01*
X169713481Y-79273927D01*
X169723202Y-79263202D01*
X169733927Y-79253481D01*
X169745553Y-79244858D01*
X169757969Y-79237417D01*
X169771054Y-79231228D01*
X169784683Y-79226351D01*
X169798724Y-79222834D01*
X169813042Y-79220710D01*
X169827500Y-79220000D01*
X170172500Y-79220000D01*
X170186958Y-79220710D01*
G37*
G36*
X170186958Y-80190710D02*
G01*
X170201276Y-80192834D01*
X170215317Y-80196351D01*
X170228946Y-80201228D01*
X170242031Y-80207417D01*
X170254447Y-80214858D01*
X170266073Y-80223481D01*
X170276798Y-80233202D01*
X170286519Y-80243927D01*
X170295142Y-80255553D01*
X170302583Y-80267969D01*
X170308772Y-80281054D01*
X170313649Y-80294683D01*
X170317166Y-80308724D01*
X170319290Y-80323042D01*
X170320000Y-80337500D01*
X170320000Y-80632500D01*
X170319290Y-80646958D01*
X170317166Y-80661276D01*
X170313649Y-80675317D01*
X170308772Y-80688946D01*
X170302583Y-80702031D01*
X170295142Y-80714447D01*
X170286519Y-80726073D01*
X170276798Y-80736798D01*
X170266073Y-80746519D01*
X170254447Y-80755142D01*
X170242031Y-80762583D01*
X170228946Y-80768772D01*
X170215317Y-80773649D01*
X170201276Y-80777166D01*
X170186958Y-80779290D01*
X170172500Y-80780000D01*
X169827500Y-80780000D01*
X169813042Y-80779290D01*
X169798724Y-80777166D01*
X169784683Y-80773649D01*
X169771054Y-80768772D01*
X169757969Y-80762583D01*
X169745553Y-80755142D01*
X169733927Y-80746519D01*
X169723202Y-80736798D01*
X169713481Y-80726073D01*
X169704858Y-80714447D01*
X169697417Y-80702031D01*
X169691228Y-80688946D01*
X169686351Y-80675317D01*
X169682834Y-80661276D01*
X169680710Y-80646958D01*
X169680000Y-80632500D01*
X169680000Y-80337500D01*
X169680710Y-80323042D01*
X169682834Y-80308724D01*
X169686351Y-80294683D01*
X169691228Y-80281054D01*
X169697417Y-80267969D01*
X169704858Y-80255553D01*
X169713481Y-80243927D01*
X169723202Y-80233202D01*
X169733927Y-80223481D01*
X169745553Y-80214858D01*
X169757969Y-80207417D01*
X169771054Y-80201228D01*
X169784683Y-80196351D01*
X169798724Y-80192834D01*
X169813042Y-80190710D01*
X169827500Y-80190000D01*
X170172500Y-80190000D01*
X170186958Y-80190710D01*
G37*
G36*
X150186958Y-79220710D02*
G01*
X150201276Y-79222834D01*
X150215317Y-79226351D01*
X150228946Y-79231228D01*
X150242031Y-79237417D01*
X150254447Y-79244858D01*
X150266073Y-79253481D01*
X150276798Y-79263202D01*
X150286519Y-79273927D01*
X150295142Y-79285553D01*
X150302583Y-79297969D01*
X150308772Y-79311054D01*
X150313649Y-79324683D01*
X150317166Y-79338724D01*
X150319290Y-79353042D01*
X150320000Y-79367500D01*
X150320000Y-79662500D01*
X150319290Y-79676958D01*
X150317166Y-79691276D01*
X150313649Y-79705317D01*
X150308772Y-79718946D01*
X150302583Y-79732031D01*
X150295142Y-79744447D01*
X150286519Y-79756073D01*
X150276798Y-79766798D01*
X150266073Y-79776519D01*
X150254447Y-79785142D01*
X150242031Y-79792583D01*
X150228946Y-79798772D01*
X150215317Y-79803649D01*
X150201276Y-79807166D01*
X150186958Y-79809290D01*
X150172500Y-79810000D01*
X149827500Y-79810000D01*
X149813042Y-79809290D01*
X149798724Y-79807166D01*
X149784683Y-79803649D01*
X149771054Y-79798772D01*
X149757969Y-79792583D01*
X149745553Y-79785142D01*
X149733927Y-79776519D01*
X149723202Y-79766798D01*
X149713481Y-79756073D01*
X149704858Y-79744447D01*
X149697417Y-79732031D01*
X149691228Y-79718946D01*
X149686351Y-79705317D01*
X149682834Y-79691276D01*
X149680710Y-79676958D01*
X149680000Y-79662500D01*
X149680000Y-79367500D01*
X149680710Y-79353042D01*
X149682834Y-79338724D01*
X149686351Y-79324683D01*
X149691228Y-79311054D01*
X149697417Y-79297969D01*
X149704858Y-79285553D01*
X149713481Y-79273927D01*
X149723202Y-79263202D01*
X149733927Y-79253481D01*
X149745553Y-79244858D01*
X149757969Y-79237417D01*
X149771054Y-79231228D01*
X149784683Y-79226351D01*
X149798724Y-79222834D01*
X149813042Y-79220710D01*
X149827500Y-79220000D01*
X150172500Y-79220000D01*
X150186958Y-79220710D01*
G37*
G36*
X150186958Y-80190710D02*
G01*
X150201276Y-80192834D01*
X150215317Y-80196351D01*
X150228946Y-80201228D01*
X150242031Y-80207417D01*
X150254447Y-80214858D01*
X150266073Y-80223481D01*
X150276798Y-80233202D01*
X150286519Y-80243927D01*
X150295142Y-80255553D01*
X150302583Y-80267969D01*
X150308772Y-80281054D01*
X150313649Y-80294683D01*
X150317166Y-80308724D01*
X150319290Y-80323042D01*
X150320000Y-80337500D01*
X150320000Y-80632500D01*
X150319290Y-80646958D01*
X150317166Y-80661276D01*
X150313649Y-80675317D01*
X150308772Y-80688946D01*
X150302583Y-80702031D01*
X150295142Y-80714447D01*
X150286519Y-80726073D01*
X150276798Y-80736798D01*
X150266073Y-80746519D01*
X150254447Y-80755142D01*
X150242031Y-80762583D01*
X150228946Y-80768772D01*
X150215317Y-80773649D01*
X150201276Y-80777166D01*
X150186958Y-80779290D01*
X150172500Y-80780000D01*
X149827500Y-80780000D01*
X149813042Y-80779290D01*
X149798724Y-80777166D01*
X149784683Y-80773649D01*
X149771054Y-80768772D01*
X149757969Y-80762583D01*
X149745553Y-80755142D01*
X149733927Y-80746519D01*
X149723202Y-80736798D01*
X149713481Y-80726073D01*
X149704858Y-80714447D01*
X149697417Y-80702031D01*
X149691228Y-80688946D01*
X149686351Y-80675317D01*
X149682834Y-80661276D01*
X149680710Y-80646958D01*
X149680000Y-80632500D01*
X149680000Y-80337500D01*
X149680710Y-80323042D01*
X149682834Y-80308724D01*
X149686351Y-80294683D01*
X149691228Y-80281054D01*
X149697417Y-80267969D01*
X149704858Y-80255553D01*
X149713481Y-80243927D01*
X149723202Y-80233202D01*
X149733927Y-80223481D01*
X149745553Y-80214858D01*
X149757969Y-80207417D01*
X149771054Y-80201228D01*
X149784683Y-80196351D01*
X149798724Y-80192834D01*
X149813042Y-80190710D01*
X149827500Y-80190000D01*
X150172500Y-80190000D01*
X150186958Y-80190710D01*
G37*
G36*
X130186958Y-79235710D02*
G01*
X130201276Y-79237834D01*
X130215317Y-79241351D01*
X130228946Y-79246228D01*
X130242031Y-79252417D01*
X130254447Y-79259858D01*
X130266073Y-79268481D01*
X130276798Y-79278202D01*
X130286519Y-79288927D01*
X130295142Y-79300553D01*
X130302583Y-79312969D01*
X130308772Y-79326054D01*
X130313649Y-79339683D01*
X130317166Y-79353724D01*
X130319290Y-79368042D01*
X130320000Y-79382500D01*
X130320000Y-79677500D01*
X130319290Y-79691958D01*
X130317166Y-79706276D01*
X130313649Y-79720317D01*
X130308772Y-79733946D01*
X130302583Y-79747031D01*
X130295142Y-79759447D01*
X130286519Y-79771073D01*
X130276798Y-79781798D01*
X130266073Y-79791519D01*
X130254447Y-79800142D01*
X130242031Y-79807583D01*
X130228946Y-79813772D01*
X130215317Y-79818649D01*
X130201276Y-79822166D01*
X130186958Y-79824290D01*
X130172500Y-79825000D01*
X129827500Y-79825000D01*
X129813042Y-79824290D01*
X129798724Y-79822166D01*
X129784683Y-79818649D01*
X129771054Y-79813772D01*
X129757969Y-79807583D01*
X129745553Y-79800142D01*
X129733927Y-79791519D01*
X129723202Y-79781798D01*
X129713481Y-79771073D01*
X129704858Y-79759447D01*
X129697417Y-79747031D01*
X129691228Y-79733946D01*
X129686351Y-79720317D01*
X129682834Y-79706276D01*
X129680710Y-79691958D01*
X129680000Y-79677500D01*
X129680000Y-79382500D01*
X129680710Y-79368042D01*
X129682834Y-79353724D01*
X129686351Y-79339683D01*
X129691228Y-79326054D01*
X129697417Y-79312969D01*
X129704858Y-79300553D01*
X129713481Y-79288927D01*
X129723202Y-79278202D01*
X129733927Y-79268481D01*
X129745553Y-79259858D01*
X129757969Y-79252417D01*
X129771054Y-79246228D01*
X129784683Y-79241351D01*
X129798724Y-79237834D01*
X129813042Y-79235710D01*
X129827500Y-79235000D01*
X130172500Y-79235000D01*
X130186958Y-79235710D01*
G37*
G36*
X130186958Y-80205710D02*
G01*
X130201276Y-80207834D01*
X130215317Y-80211351D01*
X130228946Y-80216228D01*
X130242031Y-80222417D01*
X130254447Y-80229858D01*
X130266073Y-80238481D01*
X130276798Y-80248202D01*
X130286519Y-80258927D01*
X130295142Y-80270553D01*
X130302583Y-80282969D01*
X130308772Y-80296054D01*
X130313649Y-80309683D01*
X130317166Y-80323724D01*
X130319290Y-80338042D01*
X130320000Y-80352500D01*
X130320000Y-80647500D01*
X130319290Y-80661958D01*
X130317166Y-80676276D01*
X130313649Y-80690317D01*
X130308772Y-80703946D01*
X130302583Y-80717031D01*
X130295142Y-80729447D01*
X130286519Y-80741073D01*
X130276798Y-80751798D01*
X130266073Y-80761519D01*
X130254447Y-80770142D01*
X130242031Y-80777583D01*
X130228946Y-80783772D01*
X130215317Y-80788649D01*
X130201276Y-80792166D01*
X130186958Y-80794290D01*
X130172500Y-80795000D01*
X129827500Y-80795000D01*
X129813042Y-80794290D01*
X129798724Y-80792166D01*
X129784683Y-80788649D01*
X129771054Y-80783772D01*
X129757969Y-80777583D01*
X129745553Y-80770142D01*
X129733927Y-80761519D01*
X129723202Y-80751798D01*
X129713481Y-80741073D01*
X129704858Y-80729447D01*
X129697417Y-80717031D01*
X129691228Y-80703946D01*
X129686351Y-80690317D01*
X129682834Y-80676276D01*
X129680710Y-80661958D01*
X129680000Y-80647500D01*
X129680000Y-80352500D01*
X129680710Y-80338042D01*
X129682834Y-80323724D01*
X129686351Y-80309683D01*
X129691228Y-80296054D01*
X129697417Y-80282969D01*
X129704858Y-80270553D01*
X129713481Y-80258927D01*
X129723202Y-80248202D01*
X129733927Y-80238481D01*
X129745553Y-80229858D01*
X129757969Y-80222417D01*
X129771054Y-80216228D01*
X129784683Y-80211351D01*
X129798724Y-80207834D01*
X129813042Y-80205710D01*
X129827500Y-80205000D01*
X130172500Y-80205000D01*
X130186958Y-80205710D01*
G37*
G36*
X110186958Y-79230710D02*
G01*
X110201276Y-79232834D01*
X110215317Y-79236351D01*
X110228946Y-79241228D01*
X110242031Y-79247417D01*
X110254447Y-79254858D01*
X110266073Y-79263481D01*
X110276798Y-79273202D01*
X110286519Y-79283927D01*
X110295142Y-79295553D01*
X110302583Y-79307969D01*
X110308772Y-79321054D01*
X110313649Y-79334683D01*
X110317166Y-79348724D01*
X110319290Y-79363042D01*
X110320000Y-79377500D01*
X110320000Y-79672500D01*
X110319290Y-79686958D01*
X110317166Y-79701276D01*
X110313649Y-79715317D01*
X110308772Y-79728946D01*
X110302583Y-79742031D01*
X110295142Y-79754447D01*
X110286519Y-79766073D01*
X110276798Y-79776798D01*
X110266073Y-79786519D01*
X110254447Y-79795142D01*
X110242031Y-79802583D01*
X110228946Y-79808772D01*
X110215317Y-79813649D01*
X110201276Y-79817166D01*
X110186958Y-79819290D01*
X110172500Y-79820000D01*
X109827500Y-79820000D01*
X109813042Y-79819290D01*
X109798724Y-79817166D01*
X109784683Y-79813649D01*
X109771054Y-79808772D01*
X109757969Y-79802583D01*
X109745553Y-79795142D01*
X109733927Y-79786519D01*
X109723202Y-79776798D01*
X109713481Y-79766073D01*
X109704858Y-79754447D01*
X109697417Y-79742031D01*
X109691228Y-79728946D01*
X109686351Y-79715317D01*
X109682834Y-79701276D01*
X109680710Y-79686958D01*
X109680000Y-79672500D01*
X109680000Y-79377500D01*
X109680710Y-79363042D01*
X109682834Y-79348724D01*
X109686351Y-79334683D01*
X109691228Y-79321054D01*
X109697417Y-79307969D01*
X109704858Y-79295553D01*
X109713481Y-79283927D01*
X109723202Y-79273202D01*
X109733927Y-79263481D01*
X109745553Y-79254858D01*
X109757969Y-79247417D01*
X109771054Y-79241228D01*
X109784683Y-79236351D01*
X109798724Y-79232834D01*
X109813042Y-79230710D01*
X109827500Y-79230000D01*
X110172500Y-79230000D01*
X110186958Y-79230710D01*
G37*
G36*
X110186958Y-80200710D02*
G01*
X110201276Y-80202834D01*
X110215317Y-80206351D01*
X110228946Y-80211228D01*
X110242031Y-80217417D01*
X110254447Y-80224858D01*
X110266073Y-80233481D01*
X110276798Y-80243202D01*
X110286519Y-80253927D01*
X110295142Y-80265553D01*
X110302583Y-80277969D01*
X110308772Y-80291054D01*
X110313649Y-80304683D01*
X110317166Y-80318724D01*
X110319290Y-80333042D01*
X110320000Y-80347500D01*
X110320000Y-80642500D01*
X110319290Y-80656958D01*
X110317166Y-80671276D01*
X110313649Y-80685317D01*
X110308772Y-80698946D01*
X110302583Y-80712031D01*
X110295142Y-80724447D01*
X110286519Y-80736073D01*
X110276798Y-80746798D01*
X110266073Y-80756519D01*
X110254447Y-80765142D01*
X110242031Y-80772583D01*
X110228946Y-80778772D01*
X110215317Y-80783649D01*
X110201276Y-80787166D01*
X110186958Y-80789290D01*
X110172500Y-80790000D01*
X109827500Y-80790000D01*
X109813042Y-80789290D01*
X109798724Y-80787166D01*
X109784683Y-80783649D01*
X109771054Y-80778772D01*
X109757969Y-80772583D01*
X109745553Y-80765142D01*
X109733927Y-80756519D01*
X109723202Y-80746798D01*
X109713481Y-80736073D01*
X109704858Y-80724447D01*
X109697417Y-80712031D01*
X109691228Y-80698946D01*
X109686351Y-80685317D01*
X109682834Y-80671276D01*
X109680710Y-80656958D01*
X109680000Y-80642500D01*
X109680000Y-80347500D01*
X109680710Y-80333042D01*
X109682834Y-80318724D01*
X109686351Y-80304683D01*
X109691228Y-80291054D01*
X109697417Y-80277969D01*
X109704858Y-80265553D01*
X109713481Y-80253927D01*
X109723202Y-80243202D01*
X109733927Y-80233481D01*
X109745553Y-80224858D01*
X109757969Y-80217417D01*
X109771054Y-80211228D01*
X109784683Y-80206351D01*
X109798724Y-80202834D01*
X109813042Y-80200710D01*
X109827500Y-80200000D01*
X110172500Y-80200000D01*
X110186958Y-80200710D01*
G37*
G36*
X170186958Y-59220710D02*
G01*
X170201276Y-59222834D01*
X170215317Y-59226351D01*
X170228946Y-59231228D01*
X170242031Y-59237417D01*
X170254447Y-59244858D01*
X170266073Y-59253481D01*
X170276798Y-59263202D01*
X170286519Y-59273927D01*
X170295142Y-59285553D01*
X170302583Y-59297969D01*
X170308772Y-59311054D01*
X170313649Y-59324683D01*
X170317166Y-59338724D01*
X170319290Y-59353042D01*
X170320000Y-59367500D01*
X170320000Y-59662500D01*
X170319290Y-59676958D01*
X170317166Y-59691276D01*
X170313649Y-59705317D01*
X170308772Y-59718946D01*
X170302583Y-59732031D01*
X170295142Y-59744447D01*
X170286519Y-59756073D01*
X170276798Y-59766798D01*
X170266073Y-59776519D01*
X170254447Y-59785142D01*
X170242031Y-59792583D01*
X170228946Y-59798772D01*
X170215317Y-59803649D01*
X170201276Y-59807166D01*
X170186958Y-59809290D01*
X170172500Y-59810000D01*
X169827500Y-59810000D01*
X169813042Y-59809290D01*
X169798724Y-59807166D01*
X169784683Y-59803649D01*
X169771054Y-59798772D01*
X169757969Y-59792583D01*
X169745553Y-59785142D01*
X169733927Y-59776519D01*
X169723202Y-59766798D01*
X169713481Y-59756073D01*
X169704858Y-59744447D01*
X169697417Y-59732031D01*
X169691228Y-59718946D01*
X169686351Y-59705317D01*
X169682834Y-59691276D01*
X169680710Y-59676958D01*
X169680000Y-59662500D01*
X169680000Y-59367500D01*
X169680710Y-59353042D01*
X169682834Y-59338724D01*
X169686351Y-59324683D01*
X169691228Y-59311054D01*
X169697417Y-59297969D01*
X169704858Y-59285553D01*
X169713481Y-59273927D01*
X169723202Y-59263202D01*
X169733927Y-59253481D01*
X169745553Y-59244858D01*
X169757969Y-59237417D01*
X169771054Y-59231228D01*
X169784683Y-59226351D01*
X169798724Y-59222834D01*
X169813042Y-59220710D01*
X169827500Y-59220000D01*
X170172500Y-59220000D01*
X170186958Y-59220710D01*
G37*
G36*
X170186958Y-60190710D02*
G01*
X170201276Y-60192834D01*
X170215317Y-60196351D01*
X170228946Y-60201228D01*
X170242031Y-60207417D01*
X170254447Y-60214858D01*
X170266073Y-60223481D01*
X170276798Y-60233202D01*
X170286519Y-60243927D01*
X170295142Y-60255553D01*
X170302583Y-60267969D01*
X170308772Y-60281054D01*
X170313649Y-60294683D01*
X170317166Y-60308724D01*
X170319290Y-60323042D01*
X170320000Y-60337500D01*
X170320000Y-60632500D01*
X170319290Y-60646958D01*
X170317166Y-60661276D01*
X170313649Y-60675317D01*
X170308772Y-60688946D01*
X170302583Y-60702031D01*
X170295142Y-60714447D01*
X170286519Y-60726073D01*
X170276798Y-60736798D01*
X170266073Y-60746519D01*
X170254447Y-60755142D01*
X170242031Y-60762583D01*
X170228946Y-60768772D01*
X170215317Y-60773649D01*
X170201276Y-60777166D01*
X170186958Y-60779290D01*
X170172500Y-60780000D01*
X169827500Y-60780000D01*
X169813042Y-60779290D01*
X169798724Y-60777166D01*
X169784683Y-60773649D01*
X169771054Y-60768772D01*
X169757969Y-60762583D01*
X169745553Y-60755142D01*
X169733927Y-60746519D01*
X169723202Y-60736798D01*
X169713481Y-60726073D01*
X169704858Y-60714447D01*
X169697417Y-60702031D01*
X169691228Y-60688946D01*
X169686351Y-60675317D01*
X169682834Y-60661276D01*
X169680710Y-60646958D01*
X169680000Y-60632500D01*
X169680000Y-60337500D01*
X169680710Y-60323042D01*
X169682834Y-60308724D01*
X169686351Y-60294683D01*
X169691228Y-60281054D01*
X169697417Y-60267969D01*
X169704858Y-60255553D01*
X169713481Y-60243927D01*
X169723202Y-60233202D01*
X169733927Y-60223481D01*
X169745553Y-60214858D01*
X169757969Y-60207417D01*
X169771054Y-60201228D01*
X169784683Y-60196351D01*
X169798724Y-60192834D01*
X169813042Y-60190710D01*
X169827500Y-60190000D01*
X170172500Y-60190000D01*
X170186958Y-60190710D01*
G37*
G36*
X150186958Y-59220710D02*
G01*
X150201276Y-59222834D01*
X150215317Y-59226351D01*
X150228946Y-59231228D01*
X150242031Y-59237417D01*
X150254447Y-59244858D01*
X150266073Y-59253481D01*
X150276798Y-59263202D01*
X150286519Y-59273927D01*
X150295142Y-59285553D01*
X150302583Y-59297969D01*
X150308772Y-59311054D01*
X150313649Y-59324683D01*
X150317166Y-59338724D01*
X150319290Y-59353042D01*
X150320000Y-59367500D01*
X150320000Y-59662500D01*
X150319290Y-59676958D01*
X150317166Y-59691276D01*
X150313649Y-59705317D01*
X150308772Y-59718946D01*
X150302583Y-59732031D01*
X150295142Y-59744447D01*
X150286519Y-59756073D01*
X150276798Y-59766798D01*
X150266073Y-59776519D01*
X150254447Y-59785142D01*
X150242031Y-59792583D01*
X150228946Y-59798772D01*
X150215317Y-59803649D01*
X150201276Y-59807166D01*
X150186958Y-59809290D01*
X150172500Y-59810000D01*
X149827500Y-59810000D01*
X149813042Y-59809290D01*
X149798724Y-59807166D01*
X149784683Y-59803649D01*
X149771054Y-59798772D01*
X149757969Y-59792583D01*
X149745553Y-59785142D01*
X149733927Y-59776519D01*
X149723202Y-59766798D01*
X149713481Y-59756073D01*
X149704858Y-59744447D01*
X149697417Y-59732031D01*
X149691228Y-59718946D01*
X149686351Y-59705317D01*
X149682834Y-59691276D01*
X149680710Y-59676958D01*
X149680000Y-59662500D01*
X149680000Y-59367500D01*
X149680710Y-59353042D01*
X149682834Y-59338724D01*
X149686351Y-59324683D01*
X149691228Y-59311054D01*
X149697417Y-59297969D01*
X149704858Y-59285553D01*
X149713481Y-59273927D01*
X149723202Y-59263202D01*
X149733927Y-59253481D01*
X149745553Y-59244858D01*
X149757969Y-59237417D01*
X149771054Y-59231228D01*
X149784683Y-59226351D01*
X149798724Y-59222834D01*
X149813042Y-59220710D01*
X149827500Y-59220000D01*
X150172500Y-59220000D01*
X150186958Y-59220710D01*
G37*
G36*
X150186958Y-60190710D02*
G01*
X150201276Y-60192834D01*
X150215317Y-60196351D01*
X150228946Y-60201228D01*
X150242031Y-60207417D01*
X150254447Y-60214858D01*
X150266073Y-60223481D01*
X150276798Y-60233202D01*
X150286519Y-60243927D01*
X150295142Y-60255553D01*
X150302583Y-60267969D01*
X150308772Y-60281054D01*
X150313649Y-60294683D01*
X150317166Y-60308724D01*
X150319290Y-60323042D01*
X150320000Y-60337500D01*
X150320000Y-60632500D01*
X150319290Y-60646958D01*
X150317166Y-60661276D01*
X150313649Y-60675317D01*
X150308772Y-60688946D01*
X150302583Y-60702031D01*
X150295142Y-60714447D01*
X150286519Y-60726073D01*
X150276798Y-60736798D01*
X150266073Y-60746519D01*
X150254447Y-60755142D01*
X150242031Y-60762583D01*
X150228946Y-60768772D01*
X150215317Y-60773649D01*
X150201276Y-60777166D01*
X150186958Y-60779290D01*
X150172500Y-60780000D01*
X149827500Y-60780000D01*
X149813042Y-60779290D01*
X149798724Y-60777166D01*
X149784683Y-60773649D01*
X149771054Y-60768772D01*
X149757969Y-60762583D01*
X149745553Y-60755142D01*
X149733927Y-60746519D01*
X149723202Y-60736798D01*
X149713481Y-60726073D01*
X149704858Y-60714447D01*
X149697417Y-60702031D01*
X149691228Y-60688946D01*
X149686351Y-60675317D01*
X149682834Y-60661276D01*
X149680710Y-60646958D01*
X149680000Y-60632500D01*
X149680000Y-60337500D01*
X149680710Y-60323042D01*
X149682834Y-60308724D01*
X149686351Y-60294683D01*
X149691228Y-60281054D01*
X149697417Y-60267969D01*
X149704858Y-60255553D01*
X149713481Y-60243927D01*
X149723202Y-60233202D01*
X149733927Y-60223481D01*
X149745553Y-60214858D01*
X149757969Y-60207417D01*
X149771054Y-60201228D01*
X149784683Y-60196351D01*
X149798724Y-60192834D01*
X149813042Y-60190710D01*
X149827500Y-60190000D01*
X150172500Y-60190000D01*
X150186958Y-60190710D01*
G37*
G36*
X130186958Y-59235710D02*
G01*
X130201276Y-59237834D01*
X130215317Y-59241351D01*
X130228946Y-59246228D01*
X130242031Y-59252417D01*
X130254447Y-59259858D01*
X130266073Y-59268481D01*
X130276798Y-59278202D01*
X130286519Y-59288927D01*
X130295142Y-59300553D01*
X130302583Y-59312969D01*
X130308772Y-59326054D01*
X130313649Y-59339683D01*
X130317166Y-59353724D01*
X130319290Y-59368042D01*
X130320000Y-59382500D01*
X130320000Y-59677500D01*
X130319290Y-59691958D01*
X130317166Y-59706276D01*
X130313649Y-59720317D01*
X130308772Y-59733946D01*
X130302583Y-59747031D01*
X130295142Y-59759447D01*
X130286519Y-59771073D01*
X130276798Y-59781798D01*
X130266073Y-59791519D01*
X130254447Y-59800142D01*
X130242031Y-59807583D01*
X130228946Y-59813772D01*
X130215317Y-59818649D01*
X130201276Y-59822166D01*
X130186958Y-59824290D01*
X130172500Y-59825000D01*
X129827500Y-59825000D01*
X129813042Y-59824290D01*
X129798724Y-59822166D01*
X129784683Y-59818649D01*
X129771054Y-59813772D01*
X129757969Y-59807583D01*
X129745553Y-59800142D01*
X129733927Y-59791519D01*
X129723202Y-59781798D01*
X129713481Y-59771073D01*
X129704858Y-59759447D01*
X129697417Y-59747031D01*
X129691228Y-59733946D01*
X129686351Y-59720317D01*
X129682834Y-59706276D01*
X129680710Y-59691958D01*
X129680000Y-59677500D01*
X129680000Y-59382500D01*
X129680710Y-59368042D01*
X129682834Y-59353724D01*
X129686351Y-59339683D01*
X129691228Y-59326054D01*
X129697417Y-59312969D01*
X129704858Y-59300553D01*
X129713481Y-59288927D01*
X129723202Y-59278202D01*
X129733927Y-59268481D01*
X129745553Y-59259858D01*
X129757969Y-59252417D01*
X129771054Y-59246228D01*
X129784683Y-59241351D01*
X129798724Y-59237834D01*
X129813042Y-59235710D01*
X129827500Y-59235000D01*
X130172500Y-59235000D01*
X130186958Y-59235710D01*
G37*
G36*
X130186958Y-60205710D02*
G01*
X130201276Y-60207834D01*
X130215317Y-60211351D01*
X130228946Y-60216228D01*
X130242031Y-60222417D01*
X130254447Y-60229858D01*
X130266073Y-60238481D01*
X130276798Y-60248202D01*
X130286519Y-60258927D01*
X130295142Y-60270553D01*
X130302583Y-60282969D01*
X130308772Y-60296054D01*
X130313649Y-60309683D01*
X130317166Y-60323724D01*
X130319290Y-60338042D01*
X130320000Y-60352500D01*
X130320000Y-60647500D01*
X130319290Y-60661958D01*
X130317166Y-60676276D01*
X130313649Y-60690317D01*
X130308772Y-60703946D01*
X130302583Y-60717031D01*
X130295142Y-60729447D01*
X130286519Y-60741073D01*
X130276798Y-60751798D01*
X130266073Y-60761519D01*
X130254447Y-60770142D01*
X130242031Y-60777583D01*
X130228946Y-60783772D01*
X130215317Y-60788649D01*
X130201276Y-60792166D01*
X130186958Y-60794290D01*
X130172500Y-60795000D01*
X129827500Y-60795000D01*
X129813042Y-60794290D01*
X129798724Y-60792166D01*
X129784683Y-60788649D01*
X129771054Y-60783772D01*
X129757969Y-60777583D01*
X129745553Y-60770142D01*
X129733927Y-60761519D01*
X129723202Y-60751798D01*
X129713481Y-60741073D01*
X129704858Y-60729447D01*
X129697417Y-60717031D01*
X129691228Y-60703946D01*
X129686351Y-60690317D01*
X129682834Y-60676276D01*
X129680710Y-60661958D01*
X129680000Y-60647500D01*
X129680000Y-60352500D01*
X129680710Y-60338042D01*
X129682834Y-60323724D01*
X129686351Y-60309683D01*
X129691228Y-60296054D01*
X129697417Y-60282969D01*
X129704858Y-60270553D01*
X129713481Y-60258927D01*
X129723202Y-60248202D01*
X129733927Y-60238481D01*
X129745553Y-60229858D01*
X129757969Y-60222417D01*
X129771054Y-60216228D01*
X129784683Y-60211351D01*
X129798724Y-60207834D01*
X129813042Y-60205710D01*
X129827500Y-60205000D01*
X130172500Y-60205000D01*
X130186958Y-60205710D01*
G37*
G36*
X110186958Y-59205710D02*
G01*
X110201276Y-59207834D01*
X110215317Y-59211351D01*
X110228946Y-59216228D01*
X110242031Y-59222417D01*
X110254447Y-59229858D01*
X110266073Y-59238481D01*
X110276798Y-59248202D01*
X110286519Y-59258927D01*
X110295142Y-59270553D01*
X110302583Y-59282969D01*
X110308772Y-59296054D01*
X110313649Y-59309683D01*
X110317166Y-59323724D01*
X110319290Y-59338042D01*
X110320000Y-59352500D01*
X110320000Y-59647500D01*
X110319290Y-59661958D01*
X110317166Y-59676276D01*
X110313649Y-59690317D01*
X110308772Y-59703946D01*
X110302583Y-59717031D01*
X110295142Y-59729447D01*
X110286519Y-59741073D01*
X110276798Y-59751798D01*
X110266073Y-59761519D01*
X110254447Y-59770142D01*
X110242031Y-59777583D01*
X110228946Y-59783772D01*
X110215317Y-59788649D01*
X110201276Y-59792166D01*
X110186958Y-59794290D01*
X110172500Y-59795000D01*
X109827500Y-59795000D01*
X109813042Y-59794290D01*
X109798724Y-59792166D01*
X109784683Y-59788649D01*
X109771054Y-59783772D01*
X109757969Y-59777583D01*
X109745553Y-59770142D01*
X109733927Y-59761519D01*
X109723202Y-59751798D01*
X109713481Y-59741073D01*
X109704858Y-59729447D01*
X109697417Y-59717031D01*
X109691228Y-59703946D01*
X109686351Y-59690317D01*
X109682834Y-59676276D01*
X109680710Y-59661958D01*
X109680000Y-59647500D01*
X109680000Y-59352500D01*
X109680710Y-59338042D01*
X109682834Y-59323724D01*
X109686351Y-59309683D01*
X109691228Y-59296054D01*
X109697417Y-59282969D01*
X109704858Y-59270553D01*
X109713481Y-59258927D01*
X109723202Y-59248202D01*
X109733927Y-59238481D01*
X109745553Y-59229858D01*
X109757969Y-59222417D01*
X109771054Y-59216228D01*
X109784683Y-59211351D01*
X109798724Y-59207834D01*
X109813042Y-59205710D01*
X109827500Y-59205000D01*
X110172500Y-59205000D01*
X110186958Y-59205710D01*
G37*
G36*
X110186958Y-60175710D02*
G01*
X110201276Y-60177834D01*
X110215317Y-60181351D01*
X110228946Y-60186228D01*
X110242031Y-60192417D01*
X110254447Y-60199858D01*
X110266073Y-60208481D01*
X110276798Y-60218202D01*
X110286519Y-60228927D01*
X110295142Y-60240553D01*
X110302583Y-60252969D01*
X110308772Y-60266054D01*
X110313649Y-60279683D01*
X110317166Y-60293724D01*
X110319290Y-60308042D01*
X110320000Y-60322500D01*
X110320000Y-60617500D01*
X110319290Y-60631958D01*
X110317166Y-60646276D01*
X110313649Y-60660317D01*
X110308772Y-60673946D01*
X110302583Y-60687031D01*
X110295142Y-60699447D01*
X110286519Y-60711073D01*
X110276798Y-60721798D01*
X110266073Y-60731519D01*
X110254447Y-60740142D01*
X110242031Y-60747583D01*
X110228946Y-60753772D01*
X110215317Y-60758649D01*
X110201276Y-60762166D01*
X110186958Y-60764290D01*
X110172500Y-60765000D01*
X109827500Y-60765000D01*
X109813042Y-60764290D01*
X109798724Y-60762166D01*
X109784683Y-60758649D01*
X109771054Y-60753772D01*
X109757969Y-60747583D01*
X109745553Y-60740142D01*
X109733927Y-60731519D01*
X109723202Y-60721798D01*
X109713481Y-60711073D01*
X109704858Y-60699447D01*
X109697417Y-60687031D01*
X109691228Y-60673946D01*
X109686351Y-60660317D01*
X109682834Y-60646276D01*
X109680710Y-60631958D01*
X109680000Y-60617500D01*
X109680000Y-60322500D01*
X109680710Y-60308042D01*
X109682834Y-60293724D01*
X109686351Y-60279683D01*
X109691228Y-60266054D01*
X109697417Y-60252969D01*
X109704858Y-60240553D01*
X109713481Y-60228927D01*
X109723202Y-60218202D01*
X109733927Y-60208481D01*
X109745553Y-60199858D01*
X109757969Y-60192417D01*
X109771054Y-60186228D01*
X109784683Y-60181351D01*
X109798724Y-60177834D01*
X109813042Y-60175710D01*
X109827500Y-60175000D01*
X110172500Y-60175000D01*
X110186958Y-60175710D01*
G37*
M02*
