G04 #@! TF.GenerationSoftware,KiCad,Pcbnew,(5.1.5)-3*
G04 #@! TF.CreationDate,2020-04-16T13:08:58+02:00*
G04 #@! TF.ProjectId,TGPG_breakoutboard,54475047-5f62-4726-9561-6b6f7574626f,rev?*
G04 #@! TF.SameCoordinates,Original*
G04 #@! TF.FileFunction,Copper,L3,Inr*
G04 #@! TF.FilePolarity,Positive*
%FSLAX46Y46*%
G04 Gerber Fmt 4.6, Leading zero omitted, Abs format (unit mm)*
G04 Created by KiCad (PCBNEW (5.1.5)-3) date 2020-04-16 13:08:58*
%MOMM*%
%LPD*%
G04 APERTURE LIST*
%ADD10C,11.000000*%
%ADD11O,1.700000X1.700000*%
%ADD12R,1.700000X1.700000*%
%ADD13C,0.500000*%
%ADD14C,0.800000*%
%ADD15C,0.254000*%
G04 APERTURE END LIST*
D10*
X178100000Y-51900000D03*
X178100000Y-128100000D03*
X101900000Y-128100000D03*
X101900000Y-51900000D03*
D11*
X183180000Y-87460000D03*
X183180000Y-84920000D03*
X183180000Y-82380000D03*
D12*
X183180000Y-79840000D03*
D11*
X183180000Y-102700000D03*
X183180000Y-100160000D03*
X183180000Y-97620000D03*
X183180000Y-95080000D03*
D12*
X183180000Y-92540000D03*
D13*
X138750000Y-91250000D03*
X138750000Y-88750000D03*
D14*
X110000000Y-58500000D03*
X130000000Y-58500000D03*
X150000000Y-58500000D03*
X170000000Y-58500000D03*
X110000000Y-78500000D03*
X130000000Y-78500000D03*
X150000000Y-78500000D03*
X170000000Y-78500000D03*
X110000000Y-98500000D03*
X130000000Y-98500000D03*
X150000000Y-98500000D03*
X170000000Y-98500000D03*
X110000000Y-118500000D03*
X130000000Y-118500000D03*
X150000000Y-118500000D03*
X170000000Y-118500000D03*
D13*
X141250000Y-88750000D03*
X141250000Y-91250000D03*
D14*
X181910000Y-70950000D03*
X101900000Y-64600000D03*
X101900000Y-77300000D03*
X101900000Y-90000000D03*
X101900000Y-105240000D03*
X101900000Y-115400000D03*
X178100000Y-115400000D03*
X178100000Y-102700000D03*
X178100000Y-90000000D03*
X178100000Y-77300000D03*
X178100000Y-64600000D03*
X165400000Y-51900000D03*
X152700000Y-51900000D03*
X140000000Y-51900000D03*
X127300000Y-51900000D03*
X114600000Y-51900000D03*
D13*
X140400000Y-92750000D03*
D14*
X110000000Y-61500000D03*
X130000000Y-61500000D03*
X150000000Y-61500000D03*
X170000000Y-61500000D03*
X110000000Y-81500000D03*
X130000000Y-81500000D03*
X150000000Y-81500000D03*
X170000000Y-81500000D03*
X110000000Y-101500000D03*
X130000000Y-101500000D03*
X150000000Y-101500000D03*
X170000000Y-101500000D03*
X110000000Y-121500000D03*
X130000000Y-121500000D03*
X150000000Y-121500000D03*
X170000000Y-121500000D03*
X157000000Y-90000000D03*
X157000000Y-89000000D03*
X157000000Y-88000000D03*
X157000000Y-91600000D03*
D15*
G36*
X181170449Y-40734944D02*
G01*
X182322444Y-40954698D01*
X183437801Y-41317100D01*
X184498955Y-41816441D01*
X185489146Y-42444836D01*
X186392776Y-43192383D01*
X187195588Y-44047292D01*
X187884922Y-44996079D01*
X188449903Y-46023774D01*
X188881627Y-47114186D01*
X189173281Y-48250103D01*
X189321571Y-49423941D01*
X189340000Y-50010358D01*
X189340001Y-129979237D01*
X189265056Y-131170448D01*
X189045302Y-132322444D01*
X188682900Y-133437801D01*
X188183560Y-134498952D01*
X187555165Y-135489144D01*
X186807612Y-136392780D01*
X185952708Y-137195588D01*
X185003922Y-137884922D01*
X183976227Y-138449903D01*
X182885813Y-138881627D01*
X181749897Y-139173281D01*
X180576058Y-139321571D01*
X179989642Y-139340000D01*
X100020747Y-139340000D01*
X98829552Y-139265056D01*
X97677556Y-139045302D01*
X96562199Y-138682900D01*
X95501048Y-138183560D01*
X94510856Y-137555165D01*
X93607220Y-136807612D01*
X92804412Y-135952708D01*
X92115078Y-135003922D01*
X91550097Y-133976227D01*
X91118373Y-132885813D01*
X90826719Y-131749897D01*
X90678429Y-130576058D01*
X90660000Y-129989642D01*
X90660000Y-127495755D01*
X95765000Y-127495755D01*
X95765000Y-128704245D01*
X96000764Y-129889514D01*
X96463233Y-131006012D01*
X97134634Y-132010835D01*
X97989165Y-132865366D01*
X98993988Y-133536767D01*
X100110486Y-133999236D01*
X101295755Y-134235000D01*
X102504245Y-134235000D01*
X103689514Y-133999236D01*
X104806012Y-133536767D01*
X105810835Y-132865366D01*
X106665366Y-132010835D01*
X107336767Y-131006012D01*
X107799236Y-129889514D01*
X108035000Y-128704245D01*
X108035000Y-127495755D01*
X171965000Y-127495755D01*
X171965000Y-128704245D01*
X172200764Y-129889514D01*
X172663233Y-131006012D01*
X173334634Y-132010835D01*
X174189165Y-132865366D01*
X175193988Y-133536767D01*
X176310486Y-133999236D01*
X177495755Y-134235000D01*
X178704245Y-134235000D01*
X179889514Y-133999236D01*
X181006012Y-133536767D01*
X182010835Y-132865366D01*
X182865366Y-132010835D01*
X183536767Y-131006012D01*
X183999236Y-129889514D01*
X184235000Y-128704245D01*
X184235000Y-127495755D01*
X183999236Y-126310486D01*
X183536767Y-125193988D01*
X182865366Y-124189165D01*
X182010835Y-123334634D01*
X181006012Y-122663233D01*
X179889514Y-122200764D01*
X178704245Y-121965000D01*
X177495755Y-121965000D01*
X176310486Y-122200764D01*
X175193988Y-122663233D01*
X174189165Y-123334634D01*
X173334634Y-124189165D01*
X172663233Y-125193988D01*
X172200764Y-126310486D01*
X171965000Y-127495755D01*
X108035000Y-127495755D01*
X107799236Y-126310486D01*
X107336767Y-125193988D01*
X106665366Y-124189165D01*
X105810835Y-123334634D01*
X104806012Y-122663233D01*
X103689514Y-122200764D01*
X102504245Y-121965000D01*
X101295755Y-121965000D01*
X100110486Y-122200764D01*
X98993988Y-122663233D01*
X97989165Y-123334634D01*
X97134634Y-124189165D01*
X96463233Y-125193988D01*
X96000764Y-126310486D01*
X95765000Y-127495755D01*
X90660000Y-127495755D01*
X90660000Y-118398061D01*
X108965000Y-118398061D01*
X108965000Y-118601939D01*
X109004774Y-118801898D01*
X109082795Y-118990256D01*
X109196063Y-119159774D01*
X109340226Y-119303937D01*
X109509744Y-119417205D01*
X109698102Y-119495226D01*
X109898061Y-119535000D01*
X110101939Y-119535000D01*
X110301898Y-119495226D01*
X110490256Y-119417205D01*
X110659774Y-119303937D01*
X110803937Y-119159774D01*
X110917205Y-118990256D01*
X110995226Y-118801898D01*
X111035000Y-118601939D01*
X111035000Y-118398061D01*
X128965000Y-118398061D01*
X128965000Y-118601939D01*
X129004774Y-118801898D01*
X129082795Y-118990256D01*
X129196063Y-119159774D01*
X129340226Y-119303937D01*
X129509744Y-119417205D01*
X129698102Y-119495226D01*
X129898061Y-119535000D01*
X130101939Y-119535000D01*
X130301898Y-119495226D01*
X130490256Y-119417205D01*
X130659774Y-119303937D01*
X130803937Y-119159774D01*
X130917205Y-118990256D01*
X130995226Y-118801898D01*
X131035000Y-118601939D01*
X131035000Y-118398061D01*
X148965000Y-118398061D01*
X148965000Y-118601939D01*
X149004774Y-118801898D01*
X149082795Y-118990256D01*
X149196063Y-119159774D01*
X149340226Y-119303937D01*
X149509744Y-119417205D01*
X149698102Y-119495226D01*
X149898061Y-119535000D01*
X150101939Y-119535000D01*
X150301898Y-119495226D01*
X150490256Y-119417205D01*
X150659774Y-119303937D01*
X150803937Y-119159774D01*
X150917205Y-118990256D01*
X150995226Y-118801898D01*
X151035000Y-118601939D01*
X151035000Y-118398061D01*
X168965000Y-118398061D01*
X168965000Y-118601939D01*
X169004774Y-118801898D01*
X169082795Y-118990256D01*
X169196063Y-119159774D01*
X169340226Y-119303937D01*
X169509744Y-119417205D01*
X169698102Y-119495226D01*
X169898061Y-119535000D01*
X170101939Y-119535000D01*
X170301898Y-119495226D01*
X170490256Y-119417205D01*
X170659774Y-119303937D01*
X170803937Y-119159774D01*
X170917205Y-118990256D01*
X170995226Y-118801898D01*
X171035000Y-118601939D01*
X171035000Y-118398061D01*
X170995226Y-118198102D01*
X170917205Y-118009744D01*
X170803937Y-117840226D01*
X170659774Y-117696063D01*
X170490256Y-117582795D01*
X170301898Y-117504774D01*
X170101939Y-117465000D01*
X169898061Y-117465000D01*
X169698102Y-117504774D01*
X169509744Y-117582795D01*
X169340226Y-117696063D01*
X169196063Y-117840226D01*
X169082795Y-118009744D01*
X169004774Y-118198102D01*
X168965000Y-118398061D01*
X151035000Y-118398061D01*
X150995226Y-118198102D01*
X150917205Y-118009744D01*
X150803937Y-117840226D01*
X150659774Y-117696063D01*
X150490256Y-117582795D01*
X150301898Y-117504774D01*
X150101939Y-117465000D01*
X149898061Y-117465000D01*
X149698102Y-117504774D01*
X149509744Y-117582795D01*
X149340226Y-117696063D01*
X149196063Y-117840226D01*
X149082795Y-118009744D01*
X149004774Y-118198102D01*
X148965000Y-118398061D01*
X131035000Y-118398061D01*
X130995226Y-118198102D01*
X130917205Y-118009744D01*
X130803937Y-117840226D01*
X130659774Y-117696063D01*
X130490256Y-117582795D01*
X130301898Y-117504774D01*
X130101939Y-117465000D01*
X129898061Y-117465000D01*
X129698102Y-117504774D01*
X129509744Y-117582795D01*
X129340226Y-117696063D01*
X129196063Y-117840226D01*
X129082795Y-118009744D01*
X129004774Y-118198102D01*
X128965000Y-118398061D01*
X111035000Y-118398061D01*
X110995226Y-118198102D01*
X110917205Y-118009744D01*
X110803937Y-117840226D01*
X110659774Y-117696063D01*
X110490256Y-117582795D01*
X110301898Y-117504774D01*
X110101939Y-117465000D01*
X109898061Y-117465000D01*
X109698102Y-117504774D01*
X109509744Y-117582795D01*
X109340226Y-117696063D01*
X109196063Y-117840226D01*
X109082795Y-118009744D01*
X109004774Y-118198102D01*
X108965000Y-118398061D01*
X90660000Y-118398061D01*
X90660000Y-115298061D01*
X100865000Y-115298061D01*
X100865000Y-115501939D01*
X100904774Y-115701898D01*
X100982795Y-115890256D01*
X101096063Y-116059774D01*
X101240226Y-116203937D01*
X101409744Y-116317205D01*
X101598102Y-116395226D01*
X101798061Y-116435000D01*
X102001939Y-116435000D01*
X102201898Y-116395226D01*
X102390256Y-116317205D01*
X102559774Y-116203937D01*
X102703937Y-116059774D01*
X102817205Y-115890256D01*
X102895226Y-115701898D01*
X102935000Y-115501939D01*
X102935000Y-115298061D01*
X177065000Y-115298061D01*
X177065000Y-115501939D01*
X177104774Y-115701898D01*
X177182795Y-115890256D01*
X177296063Y-116059774D01*
X177440226Y-116203937D01*
X177609744Y-116317205D01*
X177798102Y-116395226D01*
X177998061Y-116435000D01*
X178201939Y-116435000D01*
X178401898Y-116395226D01*
X178590256Y-116317205D01*
X178759774Y-116203937D01*
X178903937Y-116059774D01*
X179017205Y-115890256D01*
X179095226Y-115701898D01*
X179135000Y-115501939D01*
X179135000Y-115298061D01*
X179095226Y-115098102D01*
X179017205Y-114909744D01*
X178903937Y-114740226D01*
X178759774Y-114596063D01*
X178590256Y-114482795D01*
X178401898Y-114404774D01*
X178201939Y-114365000D01*
X177998061Y-114365000D01*
X177798102Y-114404774D01*
X177609744Y-114482795D01*
X177440226Y-114596063D01*
X177296063Y-114740226D01*
X177182795Y-114909744D01*
X177104774Y-115098102D01*
X177065000Y-115298061D01*
X102935000Y-115298061D01*
X102895226Y-115098102D01*
X102817205Y-114909744D01*
X102703937Y-114740226D01*
X102559774Y-114596063D01*
X102390256Y-114482795D01*
X102201898Y-114404774D01*
X102001939Y-114365000D01*
X101798061Y-114365000D01*
X101598102Y-114404774D01*
X101409744Y-114482795D01*
X101240226Y-114596063D01*
X101096063Y-114740226D01*
X100982795Y-114909744D01*
X100904774Y-115098102D01*
X100865000Y-115298061D01*
X90660000Y-115298061D01*
X90660000Y-105138061D01*
X100865000Y-105138061D01*
X100865000Y-105341939D01*
X100904774Y-105541898D01*
X100982795Y-105730256D01*
X101096063Y-105899774D01*
X101240226Y-106043937D01*
X101409744Y-106157205D01*
X101598102Y-106235226D01*
X101798061Y-106275000D01*
X102001939Y-106275000D01*
X102201898Y-106235226D01*
X102390256Y-106157205D01*
X102559774Y-106043937D01*
X102703937Y-105899774D01*
X102817205Y-105730256D01*
X102895226Y-105541898D01*
X102935000Y-105341939D01*
X102935000Y-105138061D01*
X102895226Y-104938102D01*
X102817205Y-104749744D01*
X102703937Y-104580226D01*
X102559774Y-104436063D01*
X102390256Y-104322795D01*
X102201898Y-104244774D01*
X102001939Y-104205000D01*
X101798061Y-104205000D01*
X101598102Y-104244774D01*
X101409744Y-104322795D01*
X101240226Y-104436063D01*
X101096063Y-104580226D01*
X100982795Y-104749744D01*
X100904774Y-104938102D01*
X100865000Y-105138061D01*
X90660000Y-105138061D01*
X90660000Y-102598061D01*
X177065000Y-102598061D01*
X177065000Y-102801939D01*
X177104774Y-103001898D01*
X177182795Y-103190256D01*
X177296063Y-103359774D01*
X177440226Y-103503937D01*
X177609744Y-103617205D01*
X177798102Y-103695226D01*
X177998061Y-103735000D01*
X178201939Y-103735000D01*
X178401898Y-103695226D01*
X178590256Y-103617205D01*
X178759774Y-103503937D01*
X178903937Y-103359774D01*
X179017205Y-103190256D01*
X179095226Y-103001898D01*
X179135000Y-102801939D01*
X179135000Y-102598061D01*
X179095226Y-102398102D01*
X179017205Y-102209744D01*
X178903937Y-102040226D01*
X178759774Y-101896063D01*
X178590256Y-101782795D01*
X178401898Y-101704774D01*
X178201939Y-101665000D01*
X177998061Y-101665000D01*
X177798102Y-101704774D01*
X177609744Y-101782795D01*
X177440226Y-101896063D01*
X177296063Y-102040226D01*
X177182795Y-102209744D01*
X177104774Y-102398102D01*
X177065000Y-102598061D01*
X90660000Y-102598061D01*
X90660000Y-98398061D01*
X108965000Y-98398061D01*
X108965000Y-98601939D01*
X109004774Y-98801898D01*
X109082795Y-98990256D01*
X109196063Y-99159774D01*
X109340226Y-99303937D01*
X109509744Y-99417205D01*
X109698102Y-99495226D01*
X109898061Y-99535000D01*
X110101939Y-99535000D01*
X110301898Y-99495226D01*
X110490256Y-99417205D01*
X110659774Y-99303937D01*
X110803937Y-99159774D01*
X110917205Y-98990256D01*
X110995226Y-98801898D01*
X111035000Y-98601939D01*
X111035000Y-98398061D01*
X128965000Y-98398061D01*
X128965000Y-98601939D01*
X129004774Y-98801898D01*
X129082795Y-98990256D01*
X129196063Y-99159774D01*
X129340226Y-99303937D01*
X129509744Y-99417205D01*
X129698102Y-99495226D01*
X129898061Y-99535000D01*
X130101939Y-99535000D01*
X130301898Y-99495226D01*
X130490256Y-99417205D01*
X130659774Y-99303937D01*
X130803937Y-99159774D01*
X130917205Y-98990256D01*
X130995226Y-98801898D01*
X131035000Y-98601939D01*
X131035000Y-98398061D01*
X148965000Y-98398061D01*
X148965000Y-98601939D01*
X149004774Y-98801898D01*
X149082795Y-98990256D01*
X149196063Y-99159774D01*
X149340226Y-99303937D01*
X149509744Y-99417205D01*
X149698102Y-99495226D01*
X149898061Y-99535000D01*
X150101939Y-99535000D01*
X150301898Y-99495226D01*
X150490256Y-99417205D01*
X150659774Y-99303937D01*
X150803937Y-99159774D01*
X150917205Y-98990256D01*
X150995226Y-98801898D01*
X151035000Y-98601939D01*
X151035000Y-98398061D01*
X168965000Y-98398061D01*
X168965000Y-98601939D01*
X169004774Y-98801898D01*
X169082795Y-98990256D01*
X169196063Y-99159774D01*
X169340226Y-99303937D01*
X169509744Y-99417205D01*
X169698102Y-99495226D01*
X169898061Y-99535000D01*
X170101939Y-99535000D01*
X170301898Y-99495226D01*
X170490256Y-99417205D01*
X170659774Y-99303937D01*
X170803937Y-99159774D01*
X170917205Y-98990256D01*
X170995226Y-98801898D01*
X171035000Y-98601939D01*
X171035000Y-98398061D01*
X170995226Y-98198102D01*
X170917205Y-98009744D01*
X170803937Y-97840226D01*
X170659774Y-97696063D01*
X170490256Y-97582795D01*
X170301898Y-97504774D01*
X170101939Y-97465000D01*
X169898061Y-97465000D01*
X169698102Y-97504774D01*
X169509744Y-97582795D01*
X169340226Y-97696063D01*
X169196063Y-97840226D01*
X169082795Y-98009744D01*
X169004774Y-98198102D01*
X168965000Y-98398061D01*
X151035000Y-98398061D01*
X150995226Y-98198102D01*
X150917205Y-98009744D01*
X150803937Y-97840226D01*
X150659774Y-97696063D01*
X150490256Y-97582795D01*
X150301898Y-97504774D01*
X150101939Y-97465000D01*
X149898061Y-97465000D01*
X149698102Y-97504774D01*
X149509744Y-97582795D01*
X149340226Y-97696063D01*
X149196063Y-97840226D01*
X149082795Y-98009744D01*
X149004774Y-98198102D01*
X148965000Y-98398061D01*
X131035000Y-98398061D01*
X130995226Y-98198102D01*
X130917205Y-98009744D01*
X130803937Y-97840226D01*
X130659774Y-97696063D01*
X130490256Y-97582795D01*
X130301898Y-97504774D01*
X130101939Y-97465000D01*
X129898061Y-97465000D01*
X129698102Y-97504774D01*
X129509744Y-97582795D01*
X129340226Y-97696063D01*
X129196063Y-97840226D01*
X129082795Y-98009744D01*
X129004774Y-98198102D01*
X128965000Y-98398061D01*
X111035000Y-98398061D01*
X110995226Y-98198102D01*
X110917205Y-98009744D01*
X110803937Y-97840226D01*
X110659774Y-97696063D01*
X110490256Y-97582795D01*
X110301898Y-97504774D01*
X110101939Y-97465000D01*
X109898061Y-97465000D01*
X109698102Y-97504774D01*
X109509744Y-97582795D01*
X109340226Y-97696063D01*
X109196063Y-97840226D01*
X109082795Y-98009744D01*
X109004774Y-98198102D01*
X108965000Y-98398061D01*
X90660000Y-98398061D01*
X90660000Y-91162835D01*
X137865000Y-91162835D01*
X137865000Y-91337165D01*
X137899010Y-91508145D01*
X137965723Y-91669205D01*
X138062576Y-91814155D01*
X138185845Y-91937424D01*
X138330795Y-92034277D01*
X138491855Y-92100990D01*
X138662835Y-92135000D01*
X138837165Y-92135000D01*
X139008145Y-92100990D01*
X139169205Y-92034277D01*
X139314155Y-91937424D01*
X139437424Y-91814155D01*
X139534277Y-91669205D01*
X139600990Y-91508145D01*
X139635000Y-91337165D01*
X139635000Y-91162835D01*
X140365000Y-91162835D01*
X140365000Y-91337165D01*
X140399010Y-91508145D01*
X140465723Y-91669205D01*
X140562576Y-91814155D01*
X140685845Y-91937424D01*
X140830795Y-92034277D01*
X140991855Y-92100990D01*
X141162835Y-92135000D01*
X141337165Y-92135000D01*
X141508145Y-92100990D01*
X141669205Y-92034277D01*
X141814155Y-91937424D01*
X141937424Y-91814155D01*
X142034277Y-91669205D01*
X142100990Y-91508145D01*
X142135000Y-91337165D01*
X142135000Y-91162835D01*
X142100990Y-90991855D01*
X142034277Y-90830795D01*
X141937424Y-90685845D01*
X141814155Y-90562576D01*
X141669205Y-90465723D01*
X141508145Y-90399010D01*
X141337165Y-90365000D01*
X141162835Y-90365000D01*
X140991855Y-90399010D01*
X140830795Y-90465723D01*
X140685845Y-90562576D01*
X140562576Y-90685845D01*
X140465723Y-90830795D01*
X140399010Y-90991855D01*
X140365000Y-91162835D01*
X139635000Y-91162835D01*
X139600990Y-90991855D01*
X139534277Y-90830795D01*
X139437424Y-90685845D01*
X139314155Y-90562576D01*
X139169205Y-90465723D01*
X139008145Y-90399010D01*
X138837165Y-90365000D01*
X138662835Y-90365000D01*
X138491855Y-90399010D01*
X138330795Y-90465723D01*
X138185845Y-90562576D01*
X138062576Y-90685845D01*
X137965723Y-90830795D01*
X137899010Y-90991855D01*
X137865000Y-91162835D01*
X90660000Y-91162835D01*
X90660000Y-89898061D01*
X100865000Y-89898061D01*
X100865000Y-90101939D01*
X100904774Y-90301898D01*
X100982795Y-90490256D01*
X101096063Y-90659774D01*
X101240226Y-90803937D01*
X101409744Y-90917205D01*
X101598102Y-90995226D01*
X101798061Y-91035000D01*
X102001939Y-91035000D01*
X102201898Y-90995226D01*
X102390256Y-90917205D01*
X102559774Y-90803937D01*
X102703937Y-90659774D01*
X102817205Y-90490256D01*
X102895226Y-90301898D01*
X102935000Y-90101939D01*
X102935000Y-89898061D01*
X102895226Y-89698102D01*
X102817205Y-89509744D01*
X102703937Y-89340226D01*
X102559774Y-89196063D01*
X102390256Y-89082795D01*
X102201898Y-89004774D01*
X102001939Y-88965000D01*
X101798061Y-88965000D01*
X101598102Y-89004774D01*
X101409744Y-89082795D01*
X101240226Y-89196063D01*
X101096063Y-89340226D01*
X100982795Y-89509744D01*
X100904774Y-89698102D01*
X100865000Y-89898061D01*
X90660000Y-89898061D01*
X90660000Y-88662835D01*
X137865000Y-88662835D01*
X137865000Y-88837165D01*
X137899010Y-89008145D01*
X137965723Y-89169205D01*
X138062576Y-89314155D01*
X138185845Y-89437424D01*
X138330795Y-89534277D01*
X138491855Y-89600990D01*
X138662835Y-89635000D01*
X138837165Y-89635000D01*
X139008145Y-89600990D01*
X139169205Y-89534277D01*
X139314155Y-89437424D01*
X139437424Y-89314155D01*
X139534277Y-89169205D01*
X139600990Y-89008145D01*
X139635000Y-88837165D01*
X139635000Y-88662835D01*
X140365000Y-88662835D01*
X140365000Y-88837165D01*
X140399010Y-89008145D01*
X140465723Y-89169205D01*
X140562576Y-89314155D01*
X140685845Y-89437424D01*
X140830795Y-89534277D01*
X140991855Y-89600990D01*
X141162835Y-89635000D01*
X141337165Y-89635000D01*
X141508145Y-89600990D01*
X141669205Y-89534277D01*
X141814155Y-89437424D01*
X141937424Y-89314155D01*
X142034277Y-89169205D01*
X142100990Y-89008145D01*
X142135000Y-88837165D01*
X142135000Y-88662835D01*
X142100990Y-88491855D01*
X142034277Y-88330795D01*
X141937424Y-88185845D01*
X141814155Y-88062576D01*
X141669205Y-87965723D01*
X141508145Y-87899010D01*
X141503375Y-87898061D01*
X155965000Y-87898061D01*
X155965000Y-88101939D01*
X156004774Y-88301898D01*
X156082795Y-88490256D01*
X156089306Y-88500000D01*
X156082795Y-88509744D01*
X156004774Y-88698102D01*
X155965000Y-88898061D01*
X155965000Y-89101939D01*
X156004774Y-89301898D01*
X156082795Y-89490256D01*
X156089306Y-89500000D01*
X156082795Y-89509744D01*
X156004774Y-89698102D01*
X155965000Y-89898061D01*
X155965000Y-90101939D01*
X156004774Y-90301898D01*
X156082795Y-90490256D01*
X156196063Y-90659774D01*
X156336289Y-90800000D01*
X156196063Y-90940226D01*
X156082795Y-91109744D01*
X156004774Y-91298102D01*
X155965000Y-91498061D01*
X155965000Y-91701939D01*
X156004774Y-91901898D01*
X156082795Y-92090256D01*
X156196063Y-92259774D01*
X156340226Y-92403937D01*
X156509744Y-92517205D01*
X156698102Y-92595226D01*
X156898061Y-92635000D01*
X157101939Y-92635000D01*
X157301898Y-92595226D01*
X157490256Y-92517205D01*
X157659774Y-92403937D01*
X157803937Y-92259774D01*
X157917205Y-92090256D01*
X157995226Y-91901898D01*
X158035000Y-91701939D01*
X158035000Y-91690000D01*
X181691928Y-91690000D01*
X181691928Y-93390000D01*
X181704188Y-93514482D01*
X181740498Y-93634180D01*
X181799463Y-93744494D01*
X181878815Y-93841185D01*
X181975506Y-93920537D01*
X182085820Y-93979502D01*
X182158380Y-94001513D01*
X182026525Y-94133368D01*
X181864010Y-94376589D01*
X181752068Y-94646842D01*
X181695000Y-94933740D01*
X181695000Y-95226260D01*
X181752068Y-95513158D01*
X181864010Y-95783411D01*
X182026525Y-96026632D01*
X182233368Y-96233475D01*
X182407760Y-96350000D01*
X182233368Y-96466525D01*
X182026525Y-96673368D01*
X181864010Y-96916589D01*
X181752068Y-97186842D01*
X181695000Y-97473740D01*
X181695000Y-97766260D01*
X181752068Y-98053158D01*
X181864010Y-98323411D01*
X182026525Y-98566632D01*
X182233368Y-98773475D01*
X182407760Y-98890000D01*
X182233368Y-99006525D01*
X182026525Y-99213368D01*
X181864010Y-99456589D01*
X181752068Y-99726842D01*
X181695000Y-100013740D01*
X181695000Y-100306260D01*
X181752068Y-100593158D01*
X181864010Y-100863411D01*
X182026525Y-101106632D01*
X182233368Y-101313475D01*
X182407760Y-101430000D01*
X182233368Y-101546525D01*
X182026525Y-101753368D01*
X181864010Y-101996589D01*
X181752068Y-102266842D01*
X181695000Y-102553740D01*
X181695000Y-102846260D01*
X181752068Y-103133158D01*
X181864010Y-103403411D01*
X182026525Y-103646632D01*
X182233368Y-103853475D01*
X182476589Y-104015990D01*
X182746842Y-104127932D01*
X183033740Y-104185000D01*
X183326260Y-104185000D01*
X183613158Y-104127932D01*
X183883411Y-104015990D01*
X184126632Y-103853475D01*
X184333475Y-103646632D01*
X184495990Y-103403411D01*
X184607932Y-103133158D01*
X184665000Y-102846260D01*
X184665000Y-102553740D01*
X184607932Y-102266842D01*
X184495990Y-101996589D01*
X184333475Y-101753368D01*
X184126632Y-101546525D01*
X183952240Y-101430000D01*
X184126632Y-101313475D01*
X184333475Y-101106632D01*
X184495990Y-100863411D01*
X184607932Y-100593158D01*
X184665000Y-100306260D01*
X184665000Y-100013740D01*
X184607932Y-99726842D01*
X184495990Y-99456589D01*
X184333475Y-99213368D01*
X184126632Y-99006525D01*
X183952240Y-98890000D01*
X184126632Y-98773475D01*
X184333475Y-98566632D01*
X184495990Y-98323411D01*
X184607932Y-98053158D01*
X184665000Y-97766260D01*
X184665000Y-97473740D01*
X184607932Y-97186842D01*
X184495990Y-96916589D01*
X184333475Y-96673368D01*
X184126632Y-96466525D01*
X183952240Y-96350000D01*
X184126632Y-96233475D01*
X184333475Y-96026632D01*
X184495990Y-95783411D01*
X184607932Y-95513158D01*
X184665000Y-95226260D01*
X184665000Y-94933740D01*
X184607932Y-94646842D01*
X184495990Y-94376589D01*
X184333475Y-94133368D01*
X184201620Y-94001513D01*
X184274180Y-93979502D01*
X184384494Y-93920537D01*
X184481185Y-93841185D01*
X184560537Y-93744494D01*
X184619502Y-93634180D01*
X184655812Y-93514482D01*
X184668072Y-93390000D01*
X184668072Y-91690000D01*
X184655812Y-91565518D01*
X184619502Y-91445820D01*
X184560537Y-91335506D01*
X184481185Y-91238815D01*
X184384494Y-91159463D01*
X184274180Y-91100498D01*
X184154482Y-91064188D01*
X184030000Y-91051928D01*
X182330000Y-91051928D01*
X182205518Y-91064188D01*
X182085820Y-91100498D01*
X181975506Y-91159463D01*
X181878815Y-91238815D01*
X181799463Y-91335506D01*
X181740498Y-91445820D01*
X181704188Y-91565518D01*
X181691928Y-91690000D01*
X158035000Y-91690000D01*
X158035000Y-91498061D01*
X157995226Y-91298102D01*
X157917205Y-91109744D01*
X157803937Y-90940226D01*
X157663711Y-90800000D01*
X157803937Y-90659774D01*
X157917205Y-90490256D01*
X157995226Y-90301898D01*
X158035000Y-90101939D01*
X158035000Y-89898061D01*
X177065000Y-89898061D01*
X177065000Y-90101939D01*
X177104774Y-90301898D01*
X177182795Y-90490256D01*
X177296063Y-90659774D01*
X177440226Y-90803937D01*
X177609744Y-90917205D01*
X177798102Y-90995226D01*
X177998061Y-91035000D01*
X178201939Y-91035000D01*
X178401898Y-90995226D01*
X178590256Y-90917205D01*
X178759774Y-90803937D01*
X178903937Y-90659774D01*
X179017205Y-90490256D01*
X179095226Y-90301898D01*
X179135000Y-90101939D01*
X179135000Y-89898061D01*
X179095226Y-89698102D01*
X179017205Y-89509744D01*
X178903937Y-89340226D01*
X178759774Y-89196063D01*
X178590256Y-89082795D01*
X178401898Y-89004774D01*
X178201939Y-88965000D01*
X177998061Y-88965000D01*
X177798102Y-89004774D01*
X177609744Y-89082795D01*
X177440226Y-89196063D01*
X177296063Y-89340226D01*
X177182795Y-89509744D01*
X177104774Y-89698102D01*
X177065000Y-89898061D01*
X158035000Y-89898061D01*
X157995226Y-89698102D01*
X157917205Y-89509744D01*
X157910694Y-89500000D01*
X157917205Y-89490256D01*
X157995226Y-89301898D01*
X158035000Y-89101939D01*
X158035000Y-88898061D01*
X157995226Y-88698102D01*
X157917205Y-88509744D01*
X157910694Y-88500000D01*
X157917205Y-88490256D01*
X157995226Y-88301898D01*
X158035000Y-88101939D01*
X158035000Y-87898061D01*
X157995226Y-87698102D01*
X157917205Y-87509744D01*
X157803937Y-87340226D01*
X157659774Y-87196063D01*
X157490256Y-87082795D01*
X157301898Y-87004774D01*
X157101939Y-86965000D01*
X156898061Y-86965000D01*
X156698102Y-87004774D01*
X156509744Y-87082795D01*
X156340226Y-87196063D01*
X156196063Y-87340226D01*
X156082795Y-87509744D01*
X156004774Y-87698102D01*
X155965000Y-87898061D01*
X141503375Y-87898061D01*
X141337165Y-87865000D01*
X141162835Y-87865000D01*
X140991855Y-87899010D01*
X140830795Y-87965723D01*
X140685845Y-88062576D01*
X140562576Y-88185845D01*
X140465723Y-88330795D01*
X140399010Y-88491855D01*
X140365000Y-88662835D01*
X139635000Y-88662835D01*
X139600990Y-88491855D01*
X139534277Y-88330795D01*
X139437424Y-88185845D01*
X139314155Y-88062576D01*
X139169205Y-87965723D01*
X139008145Y-87899010D01*
X138837165Y-87865000D01*
X138662835Y-87865000D01*
X138491855Y-87899010D01*
X138330795Y-87965723D01*
X138185845Y-88062576D01*
X138062576Y-88185845D01*
X137965723Y-88330795D01*
X137899010Y-88491855D01*
X137865000Y-88662835D01*
X90660000Y-88662835D01*
X90660000Y-84773740D01*
X181695000Y-84773740D01*
X181695000Y-85066260D01*
X181752068Y-85353158D01*
X181864010Y-85623411D01*
X182026525Y-85866632D01*
X182233368Y-86073475D01*
X182407760Y-86190000D01*
X182233368Y-86306525D01*
X182026525Y-86513368D01*
X181864010Y-86756589D01*
X181752068Y-87026842D01*
X181695000Y-87313740D01*
X181695000Y-87606260D01*
X181752068Y-87893158D01*
X181864010Y-88163411D01*
X182026525Y-88406632D01*
X182233368Y-88613475D01*
X182476589Y-88775990D01*
X182746842Y-88887932D01*
X183033740Y-88945000D01*
X183326260Y-88945000D01*
X183613158Y-88887932D01*
X183883411Y-88775990D01*
X184126632Y-88613475D01*
X184333475Y-88406632D01*
X184495990Y-88163411D01*
X184607932Y-87893158D01*
X184665000Y-87606260D01*
X184665000Y-87313740D01*
X184607932Y-87026842D01*
X184495990Y-86756589D01*
X184333475Y-86513368D01*
X184126632Y-86306525D01*
X183952240Y-86190000D01*
X184126632Y-86073475D01*
X184333475Y-85866632D01*
X184495990Y-85623411D01*
X184607932Y-85353158D01*
X184665000Y-85066260D01*
X184665000Y-84773740D01*
X184607932Y-84486842D01*
X184495990Y-84216589D01*
X184333475Y-83973368D01*
X184126632Y-83766525D01*
X183944466Y-83644805D01*
X184061355Y-83575178D01*
X184277588Y-83380269D01*
X184451641Y-83146920D01*
X184576825Y-82884099D01*
X184621476Y-82736890D01*
X184500155Y-82507000D01*
X183307000Y-82507000D01*
X183307000Y-82527000D01*
X183053000Y-82527000D01*
X183053000Y-82507000D01*
X181859845Y-82507000D01*
X181738524Y-82736890D01*
X181783175Y-82884099D01*
X181908359Y-83146920D01*
X182082412Y-83380269D01*
X182298645Y-83575178D01*
X182415534Y-83644805D01*
X182233368Y-83766525D01*
X182026525Y-83973368D01*
X181864010Y-84216589D01*
X181752068Y-84486842D01*
X181695000Y-84773740D01*
X90660000Y-84773740D01*
X90660000Y-78398061D01*
X108965000Y-78398061D01*
X108965000Y-78601939D01*
X109004774Y-78801898D01*
X109082795Y-78990256D01*
X109196063Y-79159774D01*
X109340226Y-79303937D01*
X109509744Y-79417205D01*
X109698102Y-79495226D01*
X109898061Y-79535000D01*
X110101939Y-79535000D01*
X110301898Y-79495226D01*
X110490256Y-79417205D01*
X110659774Y-79303937D01*
X110803937Y-79159774D01*
X110917205Y-78990256D01*
X110995226Y-78801898D01*
X111035000Y-78601939D01*
X111035000Y-78398061D01*
X128965000Y-78398061D01*
X128965000Y-78601939D01*
X129004774Y-78801898D01*
X129082795Y-78990256D01*
X129196063Y-79159774D01*
X129340226Y-79303937D01*
X129509744Y-79417205D01*
X129698102Y-79495226D01*
X129898061Y-79535000D01*
X130101939Y-79535000D01*
X130301898Y-79495226D01*
X130490256Y-79417205D01*
X130659774Y-79303937D01*
X130803937Y-79159774D01*
X130917205Y-78990256D01*
X130995226Y-78801898D01*
X131035000Y-78601939D01*
X131035000Y-78398061D01*
X148965000Y-78398061D01*
X148965000Y-78601939D01*
X149004774Y-78801898D01*
X149082795Y-78990256D01*
X149196063Y-79159774D01*
X149340226Y-79303937D01*
X149509744Y-79417205D01*
X149698102Y-79495226D01*
X149898061Y-79535000D01*
X150101939Y-79535000D01*
X150301898Y-79495226D01*
X150490256Y-79417205D01*
X150659774Y-79303937D01*
X150803937Y-79159774D01*
X150917205Y-78990256D01*
X150995226Y-78801898D01*
X151035000Y-78601939D01*
X151035000Y-78398061D01*
X168965000Y-78398061D01*
X168965000Y-78601939D01*
X169004774Y-78801898D01*
X169082795Y-78990256D01*
X169196063Y-79159774D01*
X169340226Y-79303937D01*
X169509744Y-79417205D01*
X169698102Y-79495226D01*
X169898061Y-79535000D01*
X170101939Y-79535000D01*
X170301898Y-79495226D01*
X170490256Y-79417205D01*
X170659774Y-79303937D01*
X170803937Y-79159774D01*
X170917205Y-78990256D01*
X170917311Y-78990000D01*
X181691928Y-78990000D01*
X181691928Y-80690000D01*
X181704188Y-80814482D01*
X181740498Y-80934180D01*
X181799463Y-81044494D01*
X181878815Y-81141185D01*
X181975506Y-81220537D01*
X182085820Y-81279502D01*
X182166466Y-81303966D01*
X182082412Y-81379731D01*
X181908359Y-81613080D01*
X181783175Y-81875901D01*
X181738524Y-82023110D01*
X181859845Y-82253000D01*
X183053000Y-82253000D01*
X183053000Y-82233000D01*
X183307000Y-82233000D01*
X183307000Y-82253000D01*
X184500155Y-82253000D01*
X184621476Y-82023110D01*
X184576825Y-81875901D01*
X184451641Y-81613080D01*
X184277588Y-81379731D01*
X184193534Y-81303966D01*
X184274180Y-81279502D01*
X184384494Y-81220537D01*
X184481185Y-81141185D01*
X184560537Y-81044494D01*
X184619502Y-80934180D01*
X184655812Y-80814482D01*
X184668072Y-80690000D01*
X184668072Y-78990000D01*
X184655812Y-78865518D01*
X184619502Y-78745820D01*
X184560537Y-78635506D01*
X184481185Y-78538815D01*
X184384494Y-78459463D01*
X184274180Y-78400498D01*
X184154482Y-78364188D01*
X184030000Y-78351928D01*
X182330000Y-78351928D01*
X182205518Y-78364188D01*
X182085820Y-78400498D01*
X181975506Y-78459463D01*
X181878815Y-78538815D01*
X181799463Y-78635506D01*
X181740498Y-78745820D01*
X181704188Y-78865518D01*
X181691928Y-78990000D01*
X170917311Y-78990000D01*
X170995226Y-78801898D01*
X171035000Y-78601939D01*
X171035000Y-78398061D01*
X170995226Y-78198102D01*
X170917205Y-78009744D01*
X170803937Y-77840226D01*
X170659774Y-77696063D01*
X170490256Y-77582795D01*
X170301898Y-77504774D01*
X170101939Y-77465000D01*
X169898061Y-77465000D01*
X169698102Y-77504774D01*
X169509744Y-77582795D01*
X169340226Y-77696063D01*
X169196063Y-77840226D01*
X169082795Y-78009744D01*
X169004774Y-78198102D01*
X168965000Y-78398061D01*
X151035000Y-78398061D01*
X150995226Y-78198102D01*
X150917205Y-78009744D01*
X150803937Y-77840226D01*
X150659774Y-77696063D01*
X150490256Y-77582795D01*
X150301898Y-77504774D01*
X150101939Y-77465000D01*
X149898061Y-77465000D01*
X149698102Y-77504774D01*
X149509744Y-77582795D01*
X149340226Y-77696063D01*
X149196063Y-77840226D01*
X149082795Y-78009744D01*
X149004774Y-78198102D01*
X148965000Y-78398061D01*
X131035000Y-78398061D01*
X130995226Y-78198102D01*
X130917205Y-78009744D01*
X130803937Y-77840226D01*
X130659774Y-77696063D01*
X130490256Y-77582795D01*
X130301898Y-77504774D01*
X130101939Y-77465000D01*
X129898061Y-77465000D01*
X129698102Y-77504774D01*
X129509744Y-77582795D01*
X129340226Y-77696063D01*
X129196063Y-77840226D01*
X129082795Y-78009744D01*
X129004774Y-78198102D01*
X128965000Y-78398061D01*
X111035000Y-78398061D01*
X110995226Y-78198102D01*
X110917205Y-78009744D01*
X110803937Y-77840226D01*
X110659774Y-77696063D01*
X110490256Y-77582795D01*
X110301898Y-77504774D01*
X110101939Y-77465000D01*
X109898061Y-77465000D01*
X109698102Y-77504774D01*
X109509744Y-77582795D01*
X109340226Y-77696063D01*
X109196063Y-77840226D01*
X109082795Y-78009744D01*
X109004774Y-78198102D01*
X108965000Y-78398061D01*
X90660000Y-78398061D01*
X90660000Y-77198061D01*
X100865000Y-77198061D01*
X100865000Y-77401939D01*
X100904774Y-77601898D01*
X100982795Y-77790256D01*
X101096063Y-77959774D01*
X101240226Y-78103937D01*
X101409744Y-78217205D01*
X101598102Y-78295226D01*
X101798061Y-78335000D01*
X102001939Y-78335000D01*
X102201898Y-78295226D01*
X102390256Y-78217205D01*
X102559774Y-78103937D01*
X102703937Y-77959774D01*
X102817205Y-77790256D01*
X102895226Y-77601898D01*
X102935000Y-77401939D01*
X102935000Y-77198061D01*
X177065000Y-77198061D01*
X177065000Y-77401939D01*
X177104774Y-77601898D01*
X177182795Y-77790256D01*
X177296063Y-77959774D01*
X177440226Y-78103937D01*
X177609744Y-78217205D01*
X177798102Y-78295226D01*
X177998061Y-78335000D01*
X178201939Y-78335000D01*
X178401898Y-78295226D01*
X178590256Y-78217205D01*
X178759774Y-78103937D01*
X178903937Y-77959774D01*
X179017205Y-77790256D01*
X179095226Y-77601898D01*
X179135000Y-77401939D01*
X179135000Y-77198061D01*
X179095226Y-76998102D01*
X179017205Y-76809744D01*
X178903937Y-76640226D01*
X178759774Y-76496063D01*
X178590256Y-76382795D01*
X178401898Y-76304774D01*
X178201939Y-76265000D01*
X177998061Y-76265000D01*
X177798102Y-76304774D01*
X177609744Y-76382795D01*
X177440226Y-76496063D01*
X177296063Y-76640226D01*
X177182795Y-76809744D01*
X177104774Y-76998102D01*
X177065000Y-77198061D01*
X102935000Y-77198061D01*
X102895226Y-76998102D01*
X102817205Y-76809744D01*
X102703937Y-76640226D01*
X102559774Y-76496063D01*
X102390256Y-76382795D01*
X102201898Y-76304774D01*
X102001939Y-76265000D01*
X101798061Y-76265000D01*
X101598102Y-76304774D01*
X101409744Y-76382795D01*
X101240226Y-76496063D01*
X101096063Y-76640226D01*
X100982795Y-76809744D01*
X100904774Y-76998102D01*
X100865000Y-77198061D01*
X90660000Y-77198061D01*
X90660000Y-70848061D01*
X180875000Y-70848061D01*
X180875000Y-71051939D01*
X180914774Y-71251898D01*
X180992795Y-71440256D01*
X181106063Y-71609774D01*
X181250226Y-71753937D01*
X181419744Y-71867205D01*
X181608102Y-71945226D01*
X181808061Y-71985000D01*
X182011939Y-71985000D01*
X182211898Y-71945226D01*
X182400256Y-71867205D01*
X182569774Y-71753937D01*
X182713937Y-71609774D01*
X182827205Y-71440256D01*
X182905226Y-71251898D01*
X182945000Y-71051939D01*
X182945000Y-70848061D01*
X182905226Y-70648102D01*
X182827205Y-70459744D01*
X182713937Y-70290226D01*
X182569774Y-70146063D01*
X182400256Y-70032795D01*
X182211898Y-69954774D01*
X182011939Y-69915000D01*
X181808061Y-69915000D01*
X181608102Y-69954774D01*
X181419744Y-70032795D01*
X181250226Y-70146063D01*
X181106063Y-70290226D01*
X180992795Y-70459744D01*
X180914774Y-70648102D01*
X180875000Y-70848061D01*
X90660000Y-70848061D01*
X90660000Y-64498061D01*
X100865000Y-64498061D01*
X100865000Y-64701939D01*
X100904774Y-64901898D01*
X100982795Y-65090256D01*
X101096063Y-65259774D01*
X101240226Y-65403937D01*
X101409744Y-65517205D01*
X101598102Y-65595226D01*
X101798061Y-65635000D01*
X102001939Y-65635000D01*
X102201898Y-65595226D01*
X102390256Y-65517205D01*
X102559774Y-65403937D01*
X102703937Y-65259774D01*
X102817205Y-65090256D01*
X102895226Y-64901898D01*
X102935000Y-64701939D01*
X102935000Y-64498061D01*
X177065000Y-64498061D01*
X177065000Y-64701939D01*
X177104774Y-64901898D01*
X177182795Y-65090256D01*
X177296063Y-65259774D01*
X177440226Y-65403937D01*
X177609744Y-65517205D01*
X177798102Y-65595226D01*
X177998061Y-65635000D01*
X178201939Y-65635000D01*
X178401898Y-65595226D01*
X178590256Y-65517205D01*
X178759774Y-65403937D01*
X178903937Y-65259774D01*
X179017205Y-65090256D01*
X179095226Y-64901898D01*
X179135000Y-64701939D01*
X179135000Y-64498061D01*
X179095226Y-64298102D01*
X179017205Y-64109744D01*
X178903937Y-63940226D01*
X178759774Y-63796063D01*
X178590256Y-63682795D01*
X178401898Y-63604774D01*
X178201939Y-63565000D01*
X177998061Y-63565000D01*
X177798102Y-63604774D01*
X177609744Y-63682795D01*
X177440226Y-63796063D01*
X177296063Y-63940226D01*
X177182795Y-64109744D01*
X177104774Y-64298102D01*
X177065000Y-64498061D01*
X102935000Y-64498061D01*
X102895226Y-64298102D01*
X102817205Y-64109744D01*
X102703937Y-63940226D01*
X102559774Y-63796063D01*
X102390256Y-63682795D01*
X102201898Y-63604774D01*
X102001939Y-63565000D01*
X101798061Y-63565000D01*
X101598102Y-63604774D01*
X101409744Y-63682795D01*
X101240226Y-63796063D01*
X101096063Y-63940226D01*
X100982795Y-64109744D01*
X100904774Y-64298102D01*
X100865000Y-64498061D01*
X90660000Y-64498061D01*
X90660000Y-58398061D01*
X108965000Y-58398061D01*
X108965000Y-58601939D01*
X109004774Y-58801898D01*
X109082795Y-58990256D01*
X109196063Y-59159774D01*
X109340226Y-59303937D01*
X109509744Y-59417205D01*
X109698102Y-59495226D01*
X109898061Y-59535000D01*
X110101939Y-59535000D01*
X110301898Y-59495226D01*
X110490256Y-59417205D01*
X110659774Y-59303937D01*
X110803937Y-59159774D01*
X110917205Y-58990256D01*
X110995226Y-58801898D01*
X111035000Y-58601939D01*
X111035000Y-58398061D01*
X128965000Y-58398061D01*
X128965000Y-58601939D01*
X129004774Y-58801898D01*
X129082795Y-58990256D01*
X129196063Y-59159774D01*
X129340226Y-59303937D01*
X129509744Y-59417205D01*
X129698102Y-59495226D01*
X129898061Y-59535000D01*
X130101939Y-59535000D01*
X130301898Y-59495226D01*
X130490256Y-59417205D01*
X130659774Y-59303937D01*
X130803937Y-59159774D01*
X130917205Y-58990256D01*
X130995226Y-58801898D01*
X131035000Y-58601939D01*
X131035000Y-58398061D01*
X148965000Y-58398061D01*
X148965000Y-58601939D01*
X149004774Y-58801898D01*
X149082795Y-58990256D01*
X149196063Y-59159774D01*
X149340226Y-59303937D01*
X149509744Y-59417205D01*
X149698102Y-59495226D01*
X149898061Y-59535000D01*
X150101939Y-59535000D01*
X150301898Y-59495226D01*
X150490256Y-59417205D01*
X150659774Y-59303937D01*
X150803937Y-59159774D01*
X150917205Y-58990256D01*
X150995226Y-58801898D01*
X151035000Y-58601939D01*
X151035000Y-58398061D01*
X168965000Y-58398061D01*
X168965000Y-58601939D01*
X169004774Y-58801898D01*
X169082795Y-58990256D01*
X169196063Y-59159774D01*
X169340226Y-59303937D01*
X169509744Y-59417205D01*
X169698102Y-59495226D01*
X169898061Y-59535000D01*
X170101939Y-59535000D01*
X170301898Y-59495226D01*
X170490256Y-59417205D01*
X170659774Y-59303937D01*
X170803937Y-59159774D01*
X170917205Y-58990256D01*
X170995226Y-58801898D01*
X171035000Y-58601939D01*
X171035000Y-58398061D01*
X170995226Y-58198102D01*
X170917205Y-58009744D01*
X170803937Y-57840226D01*
X170659774Y-57696063D01*
X170490256Y-57582795D01*
X170301898Y-57504774D01*
X170101939Y-57465000D01*
X169898061Y-57465000D01*
X169698102Y-57504774D01*
X169509744Y-57582795D01*
X169340226Y-57696063D01*
X169196063Y-57840226D01*
X169082795Y-58009744D01*
X169004774Y-58198102D01*
X168965000Y-58398061D01*
X151035000Y-58398061D01*
X150995226Y-58198102D01*
X150917205Y-58009744D01*
X150803937Y-57840226D01*
X150659774Y-57696063D01*
X150490256Y-57582795D01*
X150301898Y-57504774D01*
X150101939Y-57465000D01*
X149898061Y-57465000D01*
X149698102Y-57504774D01*
X149509744Y-57582795D01*
X149340226Y-57696063D01*
X149196063Y-57840226D01*
X149082795Y-58009744D01*
X149004774Y-58198102D01*
X148965000Y-58398061D01*
X131035000Y-58398061D01*
X130995226Y-58198102D01*
X130917205Y-58009744D01*
X130803937Y-57840226D01*
X130659774Y-57696063D01*
X130490256Y-57582795D01*
X130301898Y-57504774D01*
X130101939Y-57465000D01*
X129898061Y-57465000D01*
X129698102Y-57504774D01*
X129509744Y-57582795D01*
X129340226Y-57696063D01*
X129196063Y-57840226D01*
X129082795Y-58009744D01*
X129004774Y-58198102D01*
X128965000Y-58398061D01*
X111035000Y-58398061D01*
X110995226Y-58198102D01*
X110917205Y-58009744D01*
X110803937Y-57840226D01*
X110659774Y-57696063D01*
X110490256Y-57582795D01*
X110301898Y-57504774D01*
X110101939Y-57465000D01*
X109898061Y-57465000D01*
X109698102Y-57504774D01*
X109509744Y-57582795D01*
X109340226Y-57696063D01*
X109196063Y-57840226D01*
X109082795Y-58009744D01*
X109004774Y-58198102D01*
X108965000Y-58398061D01*
X90660000Y-58398061D01*
X90660000Y-51295755D01*
X95765000Y-51295755D01*
X95765000Y-52504245D01*
X96000764Y-53689514D01*
X96463233Y-54806012D01*
X97134634Y-55810835D01*
X97989165Y-56665366D01*
X98993988Y-57336767D01*
X100110486Y-57799236D01*
X101295755Y-58035000D01*
X102504245Y-58035000D01*
X103689514Y-57799236D01*
X104806012Y-57336767D01*
X105810835Y-56665366D01*
X106665366Y-55810835D01*
X107336767Y-54806012D01*
X107799236Y-53689514D01*
X108035000Y-52504245D01*
X108035000Y-51798061D01*
X113565000Y-51798061D01*
X113565000Y-52001939D01*
X113604774Y-52201898D01*
X113682795Y-52390256D01*
X113796063Y-52559774D01*
X113940226Y-52703937D01*
X114109744Y-52817205D01*
X114298102Y-52895226D01*
X114498061Y-52935000D01*
X114701939Y-52935000D01*
X114901898Y-52895226D01*
X115090256Y-52817205D01*
X115259774Y-52703937D01*
X115403937Y-52559774D01*
X115517205Y-52390256D01*
X115595226Y-52201898D01*
X115635000Y-52001939D01*
X115635000Y-51798061D01*
X126265000Y-51798061D01*
X126265000Y-52001939D01*
X126304774Y-52201898D01*
X126382795Y-52390256D01*
X126496063Y-52559774D01*
X126640226Y-52703937D01*
X126809744Y-52817205D01*
X126998102Y-52895226D01*
X127198061Y-52935000D01*
X127401939Y-52935000D01*
X127601898Y-52895226D01*
X127790256Y-52817205D01*
X127959774Y-52703937D01*
X128103937Y-52559774D01*
X128217205Y-52390256D01*
X128295226Y-52201898D01*
X128335000Y-52001939D01*
X128335000Y-51798061D01*
X138965000Y-51798061D01*
X138965000Y-52001939D01*
X139004774Y-52201898D01*
X139082795Y-52390256D01*
X139196063Y-52559774D01*
X139340226Y-52703937D01*
X139509744Y-52817205D01*
X139698102Y-52895226D01*
X139898061Y-52935000D01*
X140101939Y-52935000D01*
X140301898Y-52895226D01*
X140490256Y-52817205D01*
X140659774Y-52703937D01*
X140803937Y-52559774D01*
X140917205Y-52390256D01*
X140995226Y-52201898D01*
X141035000Y-52001939D01*
X141035000Y-51798061D01*
X151665000Y-51798061D01*
X151665000Y-52001939D01*
X151704774Y-52201898D01*
X151782795Y-52390256D01*
X151896063Y-52559774D01*
X152040226Y-52703937D01*
X152209744Y-52817205D01*
X152398102Y-52895226D01*
X152598061Y-52935000D01*
X152801939Y-52935000D01*
X153001898Y-52895226D01*
X153190256Y-52817205D01*
X153359774Y-52703937D01*
X153503937Y-52559774D01*
X153617205Y-52390256D01*
X153695226Y-52201898D01*
X153735000Y-52001939D01*
X153735000Y-51798061D01*
X164365000Y-51798061D01*
X164365000Y-52001939D01*
X164404774Y-52201898D01*
X164482795Y-52390256D01*
X164596063Y-52559774D01*
X164740226Y-52703937D01*
X164909744Y-52817205D01*
X165098102Y-52895226D01*
X165298061Y-52935000D01*
X165501939Y-52935000D01*
X165701898Y-52895226D01*
X165890256Y-52817205D01*
X166059774Y-52703937D01*
X166203937Y-52559774D01*
X166317205Y-52390256D01*
X166395226Y-52201898D01*
X166435000Y-52001939D01*
X166435000Y-51798061D01*
X166395226Y-51598102D01*
X166317205Y-51409744D01*
X166241041Y-51295755D01*
X171965000Y-51295755D01*
X171965000Y-52504245D01*
X172200764Y-53689514D01*
X172663233Y-54806012D01*
X173334634Y-55810835D01*
X174189165Y-56665366D01*
X175193988Y-57336767D01*
X176310486Y-57799236D01*
X177495755Y-58035000D01*
X178704245Y-58035000D01*
X179889514Y-57799236D01*
X181006012Y-57336767D01*
X182010835Y-56665366D01*
X182865366Y-55810835D01*
X183536767Y-54806012D01*
X183999236Y-53689514D01*
X184235000Y-52504245D01*
X184235000Y-51295755D01*
X183999236Y-50110486D01*
X183536767Y-48993988D01*
X182865366Y-47989165D01*
X182010835Y-47134634D01*
X181006012Y-46463233D01*
X179889514Y-46000764D01*
X178704245Y-45765000D01*
X177495755Y-45765000D01*
X176310486Y-46000764D01*
X175193988Y-46463233D01*
X174189165Y-47134634D01*
X173334634Y-47989165D01*
X172663233Y-48993988D01*
X172200764Y-50110486D01*
X171965000Y-51295755D01*
X166241041Y-51295755D01*
X166203937Y-51240226D01*
X166059774Y-51096063D01*
X165890256Y-50982795D01*
X165701898Y-50904774D01*
X165501939Y-50865000D01*
X165298061Y-50865000D01*
X165098102Y-50904774D01*
X164909744Y-50982795D01*
X164740226Y-51096063D01*
X164596063Y-51240226D01*
X164482795Y-51409744D01*
X164404774Y-51598102D01*
X164365000Y-51798061D01*
X153735000Y-51798061D01*
X153695226Y-51598102D01*
X153617205Y-51409744D01*
X153503937Y-51240226D01*
X153359774Y-51096063D01*
X153190256Y-50982795D01*
X153001898Y-50904774D01*
X152801939Y-50865000D01*
X152598061Y-50865000D01*
X152398102Y-50904774D01*
X152209744Y-50982795D01*
X152040226Y-51096063D01*
X151896063Y-51240226D01*
X151782795Y-51409744D01*
X151704774Y-51598102D01*
X151665000Y-51798061D01*
X141035000Y-51798061D01*
X140995226Y-51598102D01*
X140917205Y-51409744D01*
X140803937Y-51240226D01*
X140659774Y-51096063D01*
X140490256Y-50982795D01*
X140301898Y-50904774D01*
X140101939Y-50865000D01*
X139898061Y-50865000D01*
X139698102Y-50904774D01*
X139509744Y-50982795D01*
X139340226Y-51096063D01*
X139196063Y-51240226D01*
X139082795Y-51409744D01*
X139004774Y-51598102D01*
X138965000Y-51798061D01*
X128335000Y-51798061D01*
X128295226Y-51598102D01*
X128217205Y-51409744D01*
X128103937Y-51240226D01*
X127959774Y-51096063D01*
X127790256Y-50982795D01*
X127601898Y-50904774D01*
X127401939Y-50865000D01*
X127198061Y-50865000D01*
X126998102Y-50904774D01*
X126809744Y-50982795D01*
X126640226Y-51096063D01*
X126496063Y-51240226D01*
X126382795Y-51409744D01*
X126304774Y-51598102D01*
X126265000Y-51798061D01*
X115635000Y-51798061D01*
X115595226Y-51598102D01*
X115517205Y-51409744D01*
X115403937Y-51240226D01*
X115259774Y-51096063D01*
X115090256Y-50982795D01*
X114901898Y-50904774D01*
X114701939Y-50865000D01*
X114498061Y-50865000D01*
X114298102Y-50904774D01*
X114109744Y-50982795D01*
X113940226Y-51096063D01*
X113796063Y-51240226D01*
X113682795Y-51409744D01*
X113604774Y-51598102D01*
X113565000Y-51798061D01*
X108035000Y-51798061D01*
X108035000Y-51295755D01*
X107799236Y-50110486D01*
X107336767Y-48993988D01*
X106665366Y-47989165D01*
X105810835Y-47134634D01*
X104806012Y-46463233D01*
X103689514Y-46000764D01*
X102504245Y-45765000D01*
X101295755Y-45765000D01*
X100110486Y-46000764D01*
X98993988Y-46463233D01*
X97989165Y-47134634D01*
X97134634Y-47989165D01*
X96463233Y-48993988D01*
X96000764Y-50110486D01*
X95765000Y-51295755D01*
X90660000Y-51295755D01*
X90660000Y-50020747D01*
X90734944Y-48829551D01*
X90954698Y-47677556D01*
X91317100Y-46562199D01*
X91816441Y-45501045D01*
X92444836Y-44510854D01*
X93192383Y-43607224D01*
X94047292Y-42804412D01*
X94996079Y-42115078D01*
X96023774Y-41550097D01*
X97114186Y-41118373D01*
X98250103Y-40826719D01*
X99423941Y-40678429D01*
X100010358Y-40660000D01*
X179979253Y-40660000D01*
X181170449Y-40734944D01*
G37*
X181170449Y-40734944D02*
X182322444Y-40954698D01*
X183437801Y-41317100D01*
X184498955Y-41816441D01*
X185489146Y-42444836D01*
X186392776Y-43192383D01*
X187195588Y-44047292D01*
X187884922Y-44996079D01*
X188449903Y-46023774D01*
X188881627Y-47114186D01*
X189173281Y-48250103D01*
X189321571Y-49423941D01*
X189340000Y-50010358D01*
X189340001Y-129979237D01*
X189265056Y-131170448D01*
X189045302Y-132322444D01*
X188682900Y-133437801D01*
X188183560Y-134498952D01*
X187555165Y-135489144D01*
X186807612Y-136392780D01*
X185952708Y-137195588D01*
X185003922Y-137884922D01*
X183976227Y-138449903D01*
X182885813Y-138881627D01*
X181749897Y-139173281D01*
X180576058Y-139321571D01*
X179989642Y-139340000D01*
X100020747Y-139340000D01*
X98829552Y-139265056D01*
X97677556Y-139045302D01*
X96562199Y-138682900D01*
X95501048Y-138183560D01*
X94510856Y-137555165D01*
X93607220Y-136807612D01*
X92804412Y-135952708D01*
X92115078Y-135003922D01*
X91550097Y-133976227D01*
X91118373Y-132885813D01*
X90826719Y-131749897D01*
X90678429Y-130576058D01*
X90660000Y-129989642D01*
X90660000Y-127495755D01*
X95765000Y-127495755D01*
X95765000Y-128704245D01*
X96000764Y-129889514D01*
X96463233Y-131006012D01*
X97134634Y-132010835D01*
X97989165Y-132865366D01*
X98993988Y-133536767D01*
X100110486Y-133999236D01*
X101295755Y-134235000D01*
X102504245Y-134235000D01*
X103689514Y-133999236D01*
X104806012Y-133536767D01*
X105810835Y-132865366D01*
X106665366Y-132010835D01*
X107336767Y-131006012D01*
X107799236Y-129889514D01*
X108035000Y-128704245D01*
X108035000Y-127495755D01*
X171965000Y-127495755D01*
X171965000Y-128704245D01*
X172200764Y-129889514D01*
X172663233Y-131006012D01*
X173334634Y-132010835D01*
X174189165Y-132865366D01*
X175193988Y-133536767D01*
X176310486Y-133999236D01*
X177495755Y-134235000D01*
X178704245Y-134235000D01*
X179889514Y-133999236D01*
X181006012Y-133536767D01*
X182010835Y-132865366D01*
X182865366Y-132010835D01*
X183536767Y-131006012D01*
X183999236Y-129889514D01*
X184235000Y-128704245D01*
X184235000Y-127495755D01*
X183999236Y-126310486D01*
X183536767Y-125193988D01*
X182865366Y-124189165D01*
X182010835Y-123334634D01*
X181006012Y-122663233D01*
X179889514Y-122200764D01*
X178704245Y-121965000D01*
X177495755Y-121965000D01*
X176310486Y-122200764D01*
X175193988Y-122663233D01*
X174189165Y-123334634D01*
X173334634Y-124189165D01*
X172663233Y-125193988D01*
X172200764Y-126310486D01*
X171965000Y-127495755D01*
X108035000Y-127495755D01*
X107799236Y-126310486D01*
X107336767Y-125193988D01*
X106665366Y-124189165D01*
X105810835Y-123334634D01*
X104806012Y-122663233D01*
X103689514Y-122200764D01*
X102504245Y-121965000D01*
X101295755Y-121965000D01*
X100110486Y-122200764D01*
X98993988Y-122663233D01*
X97989165Y-123334634D01*
X97134634Y-124189165D01*
X96463233Y-125193988D01*
X96000764Y-126310486D01*
X95765000Y-127495755D01*
X90660000Y-127495755D01*
X90660000Y-118398061D01*
X108965000Y-118398061D01*
X108965000Y-118601939D01*
X109004774Y-118801898D01*
X109082795Y-118990256D01*
X109196063Y-119159774D01*
X109340226Y-119303937D01*
X109509744Y-119417205D01*
X109698102Y-119495226D01*
X109898061Y-119535000D01*
X110101939Y-119535000D01*
X110301898Y-119495226D01*
X110490256Y-119417205D01*
X110659774Y-119303937D01*
X110803937Y-119159774D01*
X110917205Y-118990256D01*
X110995226Y-118801898D01*
X111035000Y-118601939D01*
X111035000Y-118398061D01*
X128965000Y-118398061D01*
X128965000Y-118601939D01*
X129004774Y-118801898D01*
X129082795Y-118990256D01*
X129196063Y-119159774D01*
X129340226Y-119303937D01*
X129509744Y-119417205D01*
X129698102Y-119495226D01*
X129898061Y-119535000D01*
X130101939Y-119535000D01*
X130301898Y-119495226D01*
X130490256Y-119417205D01*
X130659774Y-119303937D01*
X130803937Y-119159774D01*
X130917205Y-118990256D01*
X130995226Y-118801898D01*
X131035000Y-118601939D01*
X131035000Y-118398061D01*
X148965000Y-118398061D01*
X148965000Y-118601939D01*
X149004774Y-118801898D01*
X149082795Y-118990256D01*
X149196063Y-119159774D01*
X149340226Y-119303937D01*
X149509744Y-119417205D01*
X149698102Y-119495226D01*
X149898061Y-119535000D01*
X150101939Y-119535000D01*
X150301898Y-119495226D01*
X150490256Y-119417205D01*
X150659774Y-119303937D01*
X150803937Y-119159774D01*
X150917205Y-118990256D01*
X150995226Y-118801898D01*
X151035000Y-118601939D01*
X151035000Y-118398061D01*
X168965000Y-118398061D01*
X168965000Y-118601939D01*
X169004774Y-118801898D01*
X169082795Y-118990256D01*
X169196063Y-119159774D01*
X169340226Y-119303937D01*
X169509744Y-119417205D01*
X169698102Y-119495226D01*
X169898061Y-119535000D01*
X170101939Y-119535000D01*
X170301898Y-119495226D01*
X170490256Y-119417205D01*
X170659774Y-119303937D01*
X170803937Y-119159774D01*
X170917205Y-118990256D01*
X170995226Y-118801898D01*
X171035000Y-118601939D01*
X171035000Y-118398061D01*
X170995226Y-118198102D01*
X170917205Y-118009744D01*
X170803937Y-117840226D01*
X170659774Y-117696063D01*
X170490256Y-117582795D01*
X170301898Y-117504774D01*
X170101939Y-117465000D01*
X169898061Y-117465000D01*
X169698102Y-117504774D01*
X169509744Y-117582795D01*
X169340226Y-117696063D01*
X169196063Y-117840226D01*
X169082795Y-118009744D01*
X169004774Y-118198102D01*
X168965000Y-118398061D01*
X151035000Y-118398061D01*
X150995226Y-118198102D01*
X150917205Y-118009744D01*
X150803937Y-117840226D01*
X150659774Y-117696063D01*
X150490256Y-117582795D01*
X150301898Y-117504774D01*
X150101939Y-117465000D01*
X149898061Y-117465000D01*
X149698102Y-117504774D01*
X149509744Y-117582795D01*
X149340226Y-117696063D01*
X149196063Y-117840226D01*
X149082795Y-118009744D01*
X149004774Y-118198102D01*
X148965000Y-118398061D01*
X131035000Y-118398061D01*
X130995226Y-118198102D01*
X130917205Y-118009744D01*
X130803937Y-117840226D01*
X130659774Y-117696063D01*
X130490256Y-117582795D01*
X130301898Y-117504774D01*
X130101939Y-117465000D01*
X129898061Y-117465000D01*
X129698102Y-117504774D01*
X129509744Y-117582795D01*
X129340226Y-117696063D01*
X129196063Y-117840226D01*
X129082795Y-118009744D01*
X129004774Y-118198102D01*
X128965000Y-118398061D01*
X111035000Y-118398061D01*
X110995226Y-118198102D01*
X110917205Y-118009744D01*
X110803937Y-117840226D01*
X110659774Y-117696063D01*
X110490256Y-117582795D01*
X110301898Y-117504774D01*
X110101939Y-117465000D01*
X109898061Y-117465000D01*
X109698102Y-117504774D01*
X109509744Y-117582795D01*
X109340226Y-117696063D01*
X109196063Y-117840226D01*
X109082795Y-118009744D01*
X109004774Y-118198102D01*
X108965000Y-118398061D01*
X90660000Y-118398061D01*
X90660000Y-115298061D01*
X100865000Y-115298061D01*
X100865000Y-115501939D01*
X100904774Y-115701898D01*
X100982795Y-115890256D01*
X101096063Y-116059774D01*
X101240226Y-116203937D01*
X101409744Y-116317205D01*
X101598102Y-116395226D01*
X101798061Y-116435000D01*
X102001939Y-116435000D01*
X102201898Y-116395226D01*
X102390256Y-116317205D01*
X102559774Y-116203937D01*
X102703937Y-116059774D01*
X102817205Y-115890256D01*
X102895226Y-115701898D01*
X102935000Y-115501939D01*
X102935000Y-115298061D01*
X177065000Y-115298061D01*
X177065000Y-115501939D01*
X177104774Y-115701898D01*
X177182795Y-115890256D01*
X177296063Y-116059774D01*
X177440226Y-116203937D01*
X177609744Y-116317205D01*
X177798102Y-116395226D01*
X177998061Y-116435000D01*
X178201939Y-116435000D01*
X178401898Y-116395226D01*
X178590256Y-116317205D01*
X178759774Y-116203937D01*
X178903937Y-116059774D01*
X179017205Y-115890256D01*
X179095226Y-115701898D01*
X179135000Y-115501939D01*
X179135000Y-115298061D01*
X179095226Y-115098102D01*
X179017205Y-114909744D01*
X178903937Y-114740226D01*
X178759774Y-114596063D01*
X178590256Y-114482795D01*
X178401898Y-114404774D01*
X178201939Y-114365000D01*
X177998061Y-114365000D01*
X177798102Y-114404774D01*
X177609744Y-114482795D01*
X177440226Y-114596063D01*
X177296063Y-114740226D01*
X177182795Y-114909744D01*
X177104774Y-115098102D01*
X177065000Y-115298061D01*
X102935000Y-115298061D01*
X102895226Y-115098102D01*
X102817205Y-114909744D01*
X102703937Y-114740226D01*
X102559774Y-114596063D01*
X102390256Y-114482795D01*
X102201898Y-114404774D01*
X102001939Y-114365000D01*
X101798061Y-114365000D01*
X101598102Y-114404774D01*
X101409744Y-114482795D01*
X101240226Y-114596063D01*
X101096063Y-114740226D01*
X100982795Y-114909744D01*
X100904774Y-115098102D01*
X100865000Y-115298061D01*
X90660000Y-115298061D01*
X90660000Y-105138061D01*
X100865000Y-105138061D01*
X100865000Y-105341939D01*
X100904774Y-105541898D01*
X100982795Y-105730256D01*
X101096063Y-105899774D01*
X101240226Y-106043937D01*
X101409744Y-106157205D01*
X101598102Y-106235226D01*
X101798061Y-106275000D01*
X102001939Y-106275000D01*
X102201898Y-106235226D01*
X102390256Y-106157205D01*
X102559774Y-106043937D01*
X102703937Y-105899774D01*
X102817205Y-105730256D01*
X102895226Y-105541898D01*
X102935000Y-105341939D01*
X102935000Y-105138061D01*
X102895226Y-104938102D01*
X102817205Y-104749744D01*
X102703937Y-104580226D01*
X102559774Y-104436063D01*
X102390256Y-104322795D01*
X102201898Y-104244774D01*
X102001939Y-104205000D01*
X101798061Y-104205000D01*
X101598102Y-104244774D01*
X101409744Y-104322795D01*
X101240226Y-104436063D01*
X101096063Y-104580226D01*
X100982795Y-104749744D01*
X100904774Y-104938102D01*
X100865000Y-105138061D01*
X90660000Y-105138061D01*
X90660000Y-102598061D01*
X177065000Y-102598061D01*
X177065000Y-102801939D01*
X177104774Y-103001898D01*
X177182795Y-103190256D01*
X177296063Y-103359774D01*
X177440226Y-103503937D01*
X177609744Y-103617205D01*
X177798102Y-103695226D01*
X177998061Y-103735000D01*
X178201939Y-103735000D01*
X178401898Y-103695226D01*
X178590256Y-103617205D01*
X178759774Y-103503937D01*
X178903937Y-103359774D01*
X179017205Y-103190256D01*
X179095226Y-103001898D01*
X179135000Y-102801939D01*
X179135000Y-102598061D01*
X179095226Y-102398102D01*
X179017205Y-102209744D01*
X178903937Y-102040226D01*
X178759774Y-101896063D01*
X178590256Y-101782795D01*
X178401898Y-101704774D01*
X178201939Y-101665000D01*
X177998061Y-101665000D01*
X177798102Y-101704774D01*
X177609744Y-101782795D01*
X177440226Y-101896063D01*
X177296063Y-102040226D01*
X177182795Y-102209744D01*
X177104774Y-102398102D01*
X177065000Y-102598061D01*
X90660000Y-102598061D01*
X90660000Y-98398061D01*
X108965000Y-98398061D01*
X108965000Y-98601939D01*
X109004774Y-98801898D01*
X109082795Y-98990256D01*
X109196063Y-99159774D01*
X109340226Y-99303937D01*
X109509744Y-99417205D01*
X109698102Y-99495226D01*
X109898061Y-99535000D01*
X110101939Y-99535000D01*
X110301898Y-99495226D01*
X110490256Y-99417205D01*
X110659774Y-99303937D01*
X110803937Y-99159774D01*
X110917205Y-98990256D01*
X110995226Y-98801898D01*
X111035000Y-98601939D01*
X111035000Y-98398061D01*
X128965000Y-98398061D01*
X128965000Y-98601939D01*
X129004774Y-98801898D01*
X129082795Y-98990256D01*
X129196063Y-99159774D01*
X129340226Y-99303937D01*
X129509744Y-99417205D01*
X129698102Y-99495226D01*
X129898061Y-99535000D01*
X130101939Y-99535000D01*
X130301898Y-99495226D01*
X130490256Y-99417205D01*
X130659774Y-99303937D01*
X130803937Y-99159774D01*
X130917205Y-98990256D01*
X130995226Y-98801898D01*
X131035000Y-98601939D01*
X131035000Y-98398061D01*
X148965000Y-98398061D01*
X148965000Y-98601939D01*
X149004774Y-98801898D01*
X149082795Y-98990256D01*
X149196063Y-99159774D01*
X149340226Y-99303937D01*
X149509744Y-99417205D01*
X149698102Y-99495226D01*
X149898061Y-99535000D01*
X150101939Y-99535000D01*
X150301898Y-99495226D01*
X150490256Y-99417205D01*
X150659774Y-99303937D01*
X150803937Y-99159774D01*
X150917205Y-98990256D01*
X150995226Y-98801898D01*
X151035000Y-98601939D01*
X151035000Y-98398061D01*
X168965000Y-98398061D01*
X168965000Y-98601939D01*
X169004774Y-98801898D01*
X169082795Y-98990256D01*
X169196063Y-99159774D01*
X169340226Y-99303937D01*
X169509744Y-99417205D01*
X169698102Y-99495226D01*
X169898061Y-99535000D01*
X170101939Y-99535000D01*
X170301898Y-99495226D01*
X170490256Y-99417205D01*
X170659774Y-99303937D01*
X170803937Y-99159774D01*
X170917205Y-98990256D01*
X170995226Y-98801898D01*
X171035000Y-98601939D01*
X171035000Y-98398061D01*
X170995226Y-98198102D01*
X170917205Y-98009744D01*
X170803937Y-97840226D01*
X170659774Y-97696063D01*
X170490256Y-97582795D01*
X170301898Y-97504774D01*
X170101939Y-97465000D01*
X169898061Y-97465000D01*
X169698102Y-97504774D01*
X169509744Y-97582795D01*
X169340226Y-97696063D01*
X169196063Y-97840226D01*
X169082795Y-98009744D01*
X169004774Y-98198102D01*
X168965000Y-98398061D01*
X151035000Y-98398061D01*
X150995226Y-98198102D01*
X150917205Y-98009744D01*
X150803937Y-97840226D01*
X150659774Y-97696063D01*
X150490256Y-97582795D01*
X150301898Y-97504774D01*
X150101939Y-97465000D01*
X149898061Y-97465000D01*
X149698102Y-97504774D01*
X149509744Y-97582795D01*
X149340226Y-97696063D01*
X149196063Y-97840226D01*
X149082795Y-98009744D01*
X149004774Y-98198102D01*
X148965000Y-98398061D01*
X131035000Y-98398061D01*
X130995226Y-98198102D01*
X130917205Y-98009744D01*
X130803937Y-97840226D01*
X130659774Y-97696063D01*
X130490256Y-97582795D01*
X130301898Y-97504774D01*
X130101939Y-97465000D01*
X129898061Y-97465000D01*
X129698102Y-97504774D01*
X129509744Y-97582795D01*
X129340226Y-97696063D01*
X129196063Y-97840226D01*
X129082795Y-98009744D01*
X129004774Y-98198102D01*
X128965000Y-98398061D01*
X111035000Y-98398061D01*
X110995226Y-98198102D01*
X110917205Y-98009744D01*
X110803937Y-97840226D01*
X110659774Y-97696063D01*
X110490256Y-97582795D01*
X110301898Y-97504774D01*
X110101939Y-97465000D01*
X109898061Y-97465000D01*
X109698102Y-97504774D01*
X109509744Y-97582795D01*
X109340226Y-97696063D01*
X109196063Y-97840226D01*
X109082795Y-98009744D01*
X109004774Y-98198102D01*
X108965000Y-98398061D01*
X90660000Y-98398061D01*
X90660000Y-91162835D01*
X137865000Y-91162835D01*
X137865000Y-91337165D01*
X137899010Y-91508145D01*
X137965723Y-91669205D01*
X138062576Y-91814155D01*
X138185845Y-91937424D01*
X138330795Y-92034277D01*
X138491855Y-92100990D01*
X138662835Y-92135000D01*
X138837165Y-92135000D01*
X139008145Y-92100990D01*
X139169205Y-92034277D01*
X139314155Y-91937424D01*
X139437424Y-91814155D01*
X139534277Y-91669205D01*
X139600990Y-91508145D01*
X139635000Y-91337165D01*
X139635000Y-91162835D01*
X140365000Y-91162835D01*
X140365000Y-91337165D01*
X140399010Y-91508145D01*
X140465723Y-91669205D01*
X140562576Y-91814155D01*
X140685845Y-91937424D01*
X140830795Y-92034277D01*
X140991855Y-92100990D01*
X141162835Y-92135000D01*
X141337165Y-92135000D01*
X141508145Y-92100990D01*
X141669205Y-92034277D01*
X141814155Y-91937424D01*
X141937424Y-91814155D01*
X142034277Y-91669205D01*
X142100990Y-91508145D01*
X142135000Y-91337165D01*
X142135000Y-91162835D01*
X142100990Y-90991855D01*
X142034277Y-90830795D01*
X141937424Y-90685845D01*
X141814155Y-90562576D01*
X141669205Y-90465723D01*
X141508145Y-90399010D01*
X141337165Y-90365000D01*
X141162835Y-90365000D01*
X140991855Y-90399010D01*
X140830795Y-90465723D01*
X140685845Y-90562576D01*
X140562576Y-90685845D01*
X140465723Y-90830795D01*
X140399010Y-90991855D01*
X140365000Y-91162835D01*
X139635000Y-91162835D01*
X139600990Y-90991855D01*
X139534277Y-90830795D01*
X139437424Y-90685845D01*
X139314155Y-90562576D01*
X139169205Y-90465723D01*
X139008145Y-90399010D01*
X138837165Y-90365000D01*
X138662835Y-90365000D01*
X138491855Y-90399010D01*
X138330795Y-90465723D01*
X138185845Y-90562576D01*
X138062576Y-90685845D01*
X137965723Y-90830795D01*
X137899010Y-90991855D01*
X137865000Y-91162835D01*
X90660000Y-91162835D01*
X90660000Y-89898061D01*
X100865000Y-89898061D01*
X100865000Y-90101939D01*
X100904774Y-90301898D01*
X100982795Y-90490256D01*
X101096063Y-90659774D01*
X101240226Y-90803937D01*
X101409744Y-90917205D01*
X101598102Y-90995226D01*
X101798061Y-91035000D01*
X102001939Y-91035000D01*
X102201898Y-90995226D01*
X102390256Y-90917205D01*
X102559774Y-90803937D01*
X102703937Y-90659774D01*
X102817205Y-90490256D01*
X102895226Y-90301898D01*
X102935000Y-90101939D01*
X102935000Y-89898061D01*
X102895226Y-89698102D01*
X102817205Y-89509744D01*
X102703937Y-89340226D01*
X102559774Y-89196063D01*
X102390256Y-89082795D01*
X102201898Y-89004774D01*
X102001939Y-88965000D01*
X101798061Y-88965000D01*
X101598102Y-89004774D01*
X101409744Y-89082795D01*
X101240226Y-89196063D01*
X101096063Y-89340226D01*
X100982795Y-89509744D01*
X100904774Y-89698102D01*
X100865000Y-89898061D01*
X90660000Y-89898061D01*
X90660000Y-88662835D01*
X137865000Y-88662835D01*
X137865000Y-88837165D01*
X137899010Y-89008145D01*
X137965723Y-89169205D01*
X138062576Y-89314155D01*
X138185845Y-89437424D01*
X138330795Y-89534277D01*
X138491855Y-89600990D01*
X138662835Y-89635000D01*
X138837165Y-89635000D01*
X139008145Y-89600990D01*
X139169205Y-89534277D01*
X139314155Y-89437424D01*
X139437424Y-89314155D01*
X139534277Y-89169205D01*
X139600990Y-89008145D01*
X139635000Y-88837165D01*
X139635000Y-88662835D01*
X140365000Y-88662835D01*
X140365000Y-88837165D01*
X140399010Y-89008145D01*
X140465723Y-89169205D01*
X140562576Y-89314155D01*
X140685845Y-89437424D01*
X140830795Y-89534277D01*
X140991855Y-89600990D01*
X141162835Y-89635000D01*
X141337165Y-89635000D01*
X141508145Y-89600990D01*
X141669205Y-89534277D01*
X141814155Y-89437424D01*
X141937424Y-89314155D01*
X142034277Y-89169205D01*
X142100990Y-89008145D01*
X142135000Y-88837165D01*
X142135000Y-88662835D01*
X142100990Y-88491855D01*
X142034277Y-88330795D01*
X141937424Y-88185845D01*
X141814155Y-88062576D01*
X141669205Y-87965723D01*
X141508145Y-87899010D01*
X141503375Y-87898061D01*
X155965000Y-87898061D01*
X155965000Y-88101939D01*
X156004774Y-88301898D01*
X156082795Y-88490256D01*
X156089306Y-88500000D01*
X156082795Y-88509744D01*
X156004774Y-88698102D01*
X155965000Y-88898061D01*
X155965000Y-89101939D01*
X156004774Y-89301898D01*
X156082795Y-89490256D01*
X156089306Y-89500000D01*
X156082795Y-89509744D01*
X156004774Y-89698102D01*
X155965000Y-89898061D01*
X155965000Y-90101939D01*
X156004774Y-90301898D01*
X156082795Y-90490256D01*
X156196063Y-90659774D01*
X156336289Y-90800000D01*
X156196063Y-90940226D01*
X156082795Y-91109744D01*
X156004774Y-91298102D01*
X155965000Y-91498061D01*
X155965000Y-91701939D01*
X156004774Y-91901898D01*
X156082795Y-92090256D01*
X156196063Y-92259774D01*
X156340226Y-92403937D01*
X156509744Y-92517205D01*
X156698102Y-92595226D01*
X156898061Y-92635000D01*
X157101939Y-92635000D01*
X157301898Y-92595226D01*
X157490256Y-92517205D01*
X157659774Y-92403937D01*
X157803937Y-92259774D01*
X157917205Y-92090256D01*
X157995226Y-91901898D01*
X158035000Y-91701939D01*
X158035000Y-91690000D01*
X181691928Y-91690000D01*
X181691928Y-93390000D01*
X181704188Y-93514482D01*
X181740498Y-93634180D01*
X181799463Y-93744494D01*
X181878815Y-93841185D01*
X181975506Y-93920537D01*
X182085820Y-93979502D01*
X182158380Y-94001513D01*
X182026525Y-94133368D01*
X181864010Y-94376589D01*
X181752068Y-94646842D01*
X181695000Y-94933740D01*
X181695000Y-95226260D01*
X181752068Y-95513158D01*
X181864010Y-95783411D01*
X182026525Y-96026632D01*
X182233368Y-96233475D01*
X182407760Y-96350000D01*
X182233368Y-96466525D01*
X182026525Y-96673368D01*
X181864010Y-96916589D01*
X181752068Y-97186842D01*
X181695000Y-97473740D01*
X181695000Y-97766260D01*
X181752068Y-98053158D01*
X181864010Y-98323411D01*
X182026525Y-98566632D01*
X182233368Y-98773475D01*
X182407760Y-98890000D01*
X182233368Y-99006525D01*
X182026525Y-99213368D01*
X181864010Y-99456589D01*
X181752068Y-99726842D01*
X181695000Y-100013740D01*
X181695000Y-100306260D01*
X181752068Y-100593158D01*
X181864010Y-100863411D01*
X182026525Y-101106632D01*
X182233368Y-101313475D01*
X182407760Y-101430000D01*
X182233368Y-101546525D01*
X182026525Y-101753368D01*
X181864010Y-101996589D01*
X181752068Y-102266842D01*
X181695000Y-102553740D01*
X181695000Y-102846260D01*
X181752068Y-103133158D01*
X181864010Y-103403411D01*
X182026525Y-103646632D01*
X182233368Y-103853475D01*
X182476589Y-104015990D01*
X182746842Y-104127932D01*
X183033740Y-104185000D01*
X183326260Y-104185000D01*
X183613158Y-104127932D01*
X183883411Y-104015990D01*
X184126632Y-103853475D01*
X184333475Y-103646632D01*
X184495990Y-103403411D01*
X184607932Y-103133158D01*
X184665000Y-102846260D01*
X184665000Y-102553740D01*
X184607932Y-102266842D01*
X184495990Y-101996589D01*
X184333475Y-101753368D01*
X184126632Y-101546525D01*
X183952240Y-101430000D01*
X184126632Y-101313475D01*
X184333475Y-101106632D01*
X184495990Y-100863411D01*
X184607932Y-100593158D01*
X184665000Y-100306260D01*
X184665000Y-100013740D01*
X184607932Y-99726842D01*
X184495990Y-99456589D01*
X184333475Y-99213368D01*
X184126632Y-99006525D01*
X183952240Y-98890000D01*
X184126632Y-98773475D01*
X184333475Y-98566632D01*
X184495990Y-98323411D01*
X184607932Y-98053158D01*
X184665000Y-97766260D01*
X184665000Y-97473740D01*
X184607932Y-97186842D01*
X184495990Y-96916589D01*
X184333475Y-96673368D01*
X184126632Y-96466525D01*
X183952240Y-96350000D01*
X184126632Y-96233475D01*
X184333475Y-96026632D01*
X184495990Y-95783411D01*
X184607932Y-95513158D01*
X184665000Y-95226260D01*
X184665000Y-94933740D01*
X184607932Y-94646842D01*
X184495990Y-94376589D01*
X184333475Y-94133368D01*
X184201620Y-94001513D01*
X184274180Y-93979502D01*
X184384494Y-93920537D01*
X184481185Y-93841185D01*
X184560537Y-93744494D01*
X184619502Y-93634180D01*
X184655812Y-93514482D01*
X184668072Y-93390000D01*
X184668072Y-91690000D01*
X184655812Y-91565518D01*
X184619502Y-91445820D01*
X184560537Y-91335506D01*
X184481185Y-91238815D01*
X184384494Y-91159463D01*
X184274180Y-91100498D01*
X184154482Y-91064188D01*
X184030000Y-91051928D01*
X182330000Y-91051928D01*
X182205518Y-91064188D01*
X182085820Y-91100498D01*
X181975506Y-91159463D01*
X181878815Y-91238815D01*
X181799463Y-91335506D01*
X181740498Y-91445820D01*
X181704188Y-91565518D01*
X181691928Y-91690000D01*
X158035000Y-91690000D01*
X158035000Y-91498061D01*
X157995226Y-91298102D01*
X157917205Y-91109744D01*
X157803937Y-90940226D01*
X157663711Y-90800000D01*
X157803937Y-90659774D01*
X157917205Y-90490256D01*
X157995226Y-90301898D01*
X158035000Y-90101939D01*
X158035000Y-89898061D01*
X177065000Y-89898061D01*
X177065000Y-90101939D01*
X177104774Y-90301898D01*
X177182795Y-90490256D01*
X177296063Y-90659774D01*
X177440226Y-90803937D01*
X177609744Y-90917205D01*
X177798102Y-90995226D01*
X177998061Y-91035000D01*
X178201939Y-91035000D01*
X178401898Y-90995226D01*
X178590256Y-90917205D01*
X178759774Y-90803937D01*
X178903937Y-90659774D01*
X179017205Y-90490256D01*
X179095226Y-90301898D01*
X179135000Y-90101939D01*
X179135000Y-89898061D01*
X179095226Y-89698102D01*
X179017205Y-89509744D01*
X178903937Y-89340226D01*
X178759774Y-89196063D01*
X178590256Y-89082795D01*
X178401898Y-89004774D01*
X178201939Y-88965000D01*
X177998061Y-88965000D01*
X177798102Y-89004774D01*
X177609744Y-89082795D01*
X177440226Y-89196063D01*
X177296063Y-89340226D01*
X177182795Y-89509744D01*
X177104774Y-89698102D01*
X177065000Y-89898061D01*
X158035000Y-89898061D01*
X157995226Y-89698102D01*
X157917205Y-89509744D01*
X157910694Y-89500000D01*
X157917205Y-89490256D01*
X157995226Y-89301898D01*
X158035000Y-89101939D01*
X158035000Y-88898061D01*
X157995226Y-88698102D01*
X157917205Y-88509744D01*
X157910694Y-88500000D01*
X157917205Y-88490256D01*
X157995226Y-88301898D01*
X158035000Y-88101939D01*
X158035000Y-87898061D01*
X157995226Y-87698102D01*
X157917205Y-87509744D01*
X157803937Y-87340226D01*
X157659774Y-87196063D01*
X157490256Y-87082795D01*
X157301898Y-87004774D01*
X157101939Y-86965000D01*
X156898061Y-86965000D01*
X156698102Y-87004774D01*
X156509744Y-87082795D01*
X156340226Y-87196063D01*
X156196063Y-87340226D01*
X156082795Y-87509744D01*
X156004774Y-87698102D01*
X155965000Y-87898061D01*
X141503375Y-87898061D01*
X141337165Y-87865000D01*
X141162835Y-87865000D01*
X140991855Y-87899010D01*
X140830795Y-87965723D01*
X140685845Y-88062576D01*
X140562576Y-88185845D01*
X140465723Y-88330795D01*
X140399010Y-88491855D01*
X140365000Y-88662835D01*
X139635000Y-88662835D01*
X139600990Y-88491855D01*
X139534277Y-88330795D01*
X139437424Y-88185845D01*
X139314155Y-88062576D01*
X139169205Y-87965723D01*
X139008145Y-87899010D01*
X138837165Y-87865000D01*
X138662835Y-87865000D01*
X138491855Y-87899010D01*
X138330795Y-87965723D01*
X138185845Y-88062576D01*
X138062576Y-88185845D01*
X137965723Y-88330795D01*
X137899010Y-88491855D01*
X137865000Y-88662835D01*
X90660000Y-88662835D01*
X90660000Y-84773740D01*
X181695000Y-84773740D01*
X181695000Y-85066260D01*
X181752068Y-85353158D01*
X181864010Y-85623411D01*
X182026525Y-85866632D01*
X182233368Y-86073475D01*
X182407760Y-86190000D01*
X182233368Y-86306525D01*
X182026525Y-86513368D01*
X181864010Y-86756589D01*
X181752068Y-87026842D01*
X181695000Y-87313740D01*
X181695000Y-87606260D01*
X181752068Y-87893158D01*
X181864010Y-88163411D01*
X182026525Y-88406632D01*
X182233368Y-88613475D01*
X182476589Y-88775990D01*
X182746842Y-88887932D01*
X183033740Y-88945000D01*
X183326260Y-88945000D01*
X183613158Y-88887932D01*
X183883411Y-88775990D01*
X184126632Y-88613475D01*
X184333475Y-88406632D01*
X184495990Y-88163411D01*
X184607932Y-87893158D01*
X184665000Y-87606260D01*
X184665000Y-87313740D01*
X184607932Y-87026842D01*
X184495990Y-86756589D01*
X184333475Y-86513368D01*
X184126632Y-86306525D01*
X183952240Y-86190000D01*
X184126632Y-86073475D01*
X184333475Y-85866632D01*
X184495990Y-85623411D01*
X184607932Y-85353158D01*
X184665000Y-85066260D01*
X184665000Y-84773740D01*
X184607932Y-84486842D01*
X184495990Y-84216589D01*
X184333475Y-83973368D01*
X184126632Y-83766525D01*
X183944466Y-83644805D01*
X184061355Y-83575178D01*
X184277588Y-83380269D01*
X184451641Y-83146920D01*
X184576825Y-82884099D01*
X184621476Y-82736890D01*
X184500155Y-82507000D01*
X183307000Y-82507000D01*
X183307000Y-82527000D01*
X183053000Y-82527000D01*
X183053000Y-82507000D01*
X181859845Y-82507000D01*
X181738524Y-82736890D01*
X181783175Y-82884099D01*
X181908359Y-83146920D01*
X182082412Y-83380269D01*
X182298645Y-83575178D01*
X182415534Y-83644805D01*
X182233368Y-83766525D01*
X182026525Y-83973368D01*
X181864010Y-84216589D01*
X181752068Y-84486842D01*
X181695000Y-84773740D01*
X90660000Y-84773740D01*
X90660000Y-78398061D01*
X108965000Y-78398061D01*
X108965000Y-78601939D01*
X109004774Y-78801898D01*
X109082795Y-78990256D01*
X109196063Y-79159774D01*
X109340226Y-79303937D01*
X109509744Y-79417205D01*
X109698102Y-79495226D01*
X109898061Y-79535000D01*
X110101939Y-79535000D01*
X110301898Y-79495226D01*
X110490256Y-79417205D01*
X110659774Y-79303937D01*
X110803937Y-79159774D01*
X110917205Y-78990256D01*
X110995226Y-78801898D01*
X111035000Y-78601939D01*
X111035000Y-78398061D01*
X128965000Y-78398061D01*
X128965000Y-78601939D01*
X129004774Y-78801898D01*
X129082795Y-78990256D01*
X129196063Y-79159774D01*
X129340226Y-79303937D01*
X129509744Y-79417205D01*
X129698102Y-79495226D01*
X129898061Y-79535000D01*
X130101939Y-79535000D01*
X130301898Y-79495226D01*
X130490256Y-79417205D01*
X130659774Y-79303937D01*
X130803937Y-79159774D01*
X130917205Y-78990256D01*
X130995226Y-78801898D01*
X131035000Y-78601939D01*
X131035000Y-78398061D01*
X148965000Y-78398061D01*
X148965000Y-78601939D01*
X149004774Y-78801898D01*
X149082795Y-78990256D01*
X149196063Y-79159774D01*
X149340226Y-79303937D01*
X149509744Y-79417205D01*
X149698102Y-79495226D01*
X149898061Y-79535000D01*
X150101939Y-79535000D01*
X150301898Y-79495226D01*
X150490256Y-79417205D01*
X150659774Y-79303937D01*
X150803937Y-79159774D01*
X150917205Y-78990256D01*
X150995226Y-78801898D01*
X151035000Y-78601939D01*
X151035000Y-78398061D01*
X168965000Y-78398061D01*
X168965000Y-78601939D01*
X169004774Y-78801898D01*
X169082795Y-78990256D01*
X169196063Y-79159774D01*
X169340226Y-79303937D01*
X169509744Y-79417205D01*
X169698102Y-79495226D01*
X169898061Y-79535000D01*
X170101939Y-79535000D01*
X170301898Y-79495226D01*
X170490256Y-79417205D01*
X170659774Y-79303937D01*
X170803937Y-79159774D01*
X170917205Y-78990256D01*
X170917311Y-78990000D01*
X181691928Y-78990000D01*
X181691928Y-80690000D01*
X181704188Y-80814482D01*
X181740498Y-80934180D01*
X181799463Y-81044494D01*
X181878815Y-81141185D01*
X181975506Y-81220537D01*
X182085820Y-81279502D01*
X182166466Y-81303966D01*
X182082412Y-81379731D01*
X181908359Y-81613080D01*
X181783175Y-81875901D01*
X181738524Y-82023110D01*
X181859845Y-82253000D01*
X183053000Y-82253000D01*
X183053000Y-82233000D01*
X183307000Y-82233000D01*
X183307000Y-82253000D01*
X184500155Y-82253000D01*
X184621476Y-82023110D01*
X184576825Y-81875901D01*
X184451641Y-81613080D01*
X184277588Y-81379731D01*
X184193534Y-81303966D01*
X184274180Y-81279502D01*
X184384494Y-81220537D01*
X184481185Y-81141185D01*
X184560537Y-81044494D01*
X184619502Y-80934180D01*
X184655812Y-80814482D01*
X184668072Y-80690000D01*
X184668072Y-78990000D01*
X184655812Y-78865518D01*
X184619502Y-78745820D01*
X184560537Y-78635506D01*
X184481185Y-78538815D01*
X184384494Y-78459463D01*
X184274180Y-78400498D01*
X184154482Y-78364188D01*
X184030000Y-78351928D01*
X182330000Y-78351928D01*
X182205518Y-78364188D01*
X182085820Y-78400498D01*
X181975506Y-78459463D01*
X181878815Y-78538815D01*
X181799463Y-78635506D01*
X181740498Y-78745820D01*
X181704188Y-78865518D01*
X181691928Y-78990000D01*
X170917311Y-78990000D01*
X170995226Y-78801898D01*
X171035000Y-78601939D01*
X171035000Y-78398061D01*
X170995226Y-78198102D01*
X170917205Y-78009744D01*
X170803937Y-77840226D01*
X170659774Y-77696063D01*
X170490256Y-77582795D01*
X170301898Y-77504774D01*
X170101939Y-77465000D01*
X169898061Y-77465000D01*
X169698102Y-77504774D01*
X169509744Y-77582795D01*
X169340226Y-77696063D01*
X169196063Y-77840226D01*
X169082795Y-78009744D01*
X169004774Y-78198102D01*
X168965000Y-78398061D01*
X151035000Y-78398061D01*
X150995226Y-78198102D01*
X150917205Y-78009744D01*
X150803937Y-77840226D01*
X150659774Y-77696063D01*
X150490256Y-77582795D01*
X150301898Y-77504774D01*
X150101939Y-77465000D01*
X149898061Y-77465000D01*
X149698102Y-77504774D01*
X149509744Y-77582795D01*
X149340226Y-77696063D01*
X149196063Y-77840226D01*
X149082795Y-78009744D01*
X149004774Y-78198102D01*
X148965000Y-78398061D01*
X131035000Y-78398061D01*
X130995226Y-78198102D01*
X130917205Y-78009744D01*
X130803937Y-77840226D01*
X130659774Y-77696063D01*
X130490256Y-77582795D01*
X130301898Y-77504774D01*
X130101939Y-77465000D01*
X129898061Y-77465000D01*
X129698102Y-77504774D01*
X129509744Y-77582795D01*
X129340226Y-77696063D01*
X129196063Y-77840226D01*
X129082795Y-78009744D01*
X129004774Y-78198102D01*
X128965000Y-78398061D01*
X111035000Y-78398061D01*
X110995226Y-78198102D01*
X110917205Y-78009744D01*
X110803937Y-77840226D01*
X110659774Y-77696063D01*
X110490256Y-77582795D01*
X110301898Y-77504774D01*
X110101939Y-77465000D01*
X109898061Y-77465000D01*
X109698102Y-77504774D01*
X109509744Y-77582795D01*
X109340226Y-77696063D01*
X109196063Y-77840226D01*
X109082795Y-78009744D01*
X109004774Y-78198102D01*
X108965000Y-78398061D01*
X90660000Y-78398061D01*
X90660000Y-77198061D01*
X100865000Y-77198061D01*
X100865000Y-77401939D01*
X100904774Y-77601898D01*
X100982795Y-77790256D01*
X101096063Y-77959774D01*
X101240226Y-78103937D01*
X101409744Y-78217205D01*
X101598102Y-78295226D01*
X101798061Y-78335000D01*
X102001939Y-78335000D01*
X102201898Y-78295226D01*
X102390256Y-78217205D01*
X102559774Y-78103937D01*
X102703937Y-77959774D01*
X102817205Y-77790256D01*
X102895226Y-77601898D01*
X102935000Y-77401939D01*
X102935000Y-77198061D01*
X177065000Y-77198061D01*
X177065000Y-77401939D01*
X177104774Y-77601898D01*
X177182795Y-77790256D01*
X177296063Y-77959774D01*
X177440226Y-78103937D01*
X177609744Y-78217205D01*
X177798102Y-78295226D01*
X177998061Y-78335000D01*
X178201939Y-78335000D01*
X178401898Y-78295226D01*
X178590256Y-78217205D01*
X178759774Y-78103937D01*
X178903937Y-77959774D01*
X179017205Y-77790256D01*
X179095226Y-77601898D01*
X179135000Y-77401939D01*
X179135000Y-77198061D01*
X179095226Y-76998102D01*
X179017205Y-76809744D01*
X178903937Y-76640226D01*
X178759774Y-76496063D01*
X178590256Y-76382795D01*
X178401898Y-76304774D01*
X178201939Y-76265000D01*
X177998061Y-76265000D01*
X177798102Y-76304774D01*
X177609744Y-76382795D01*
X177440226Y-76496063D01*
X177296063Y-76640226D01*
X177182795Y-76809744D01*
X177104774Y-76998102D01*
X177065000Y-77198061D01*
X102935000Y-77198061D01*
X102895226Y-76998102D01*
X102817205Y-76809744D01*
X102703937Y-76640226D01*
X102559774Y-76496063D01*
X102390256Y-76382795D01*
X102201898Y-76304774D01*
X102001939Y-76265000D01*
X101798061Y-76265000D01*
X101598102Y-76304774D01*
X101409744Y-76382795D01*
X101240226Y-76496063D01*
X101096063Y-76640226D01*
X100982795Y-76809744D01*
X100904774Y-76998102D01*
X100865000Y-77198061D01*
X90660000Y-77198061D01*
X90660000Y-70848061D01*
X180875000Y-70848061D01*
X180875000Y-71051939D01*
X180914774Y-71251898D01*
X180992795Y-71440256D01*
X181106063Y-71609774D01*
X181250226Y-71753937D01*
X181419744Y-71867205D01*
X181608102Y-71945226D01*
X181808061Y-71985000D01*
X182011939Y-71985000D01*
X182211898Y-71945226D01*
X182400256Y-71867205D01*
X182569774Y-71753937D01*
X182713937Y-71609774D01*
X182827205Y-71440256D01*
X182905226Y-71251898D01*
X182945000Y-71051939D01*
X182945000Y-70848061D01*
X182905226Y-70648102D01*
X182827205Y-70459744D01*
X182713937Y-70290226D01*
X182569774Y-70146063D01*
X182400256Y-70032795D01*
X182211898Y-69954774D01*
X182011939Y-69915000D01*
X181808061Y-69915000D01*
X181608102Y-69954774D01*
X181419744Y-70032795D01*
X181250226Y-70146063D01*
X181106063Y-70290226D01*
X180992795Y-70459744D01*
X180914774Y-70648102D01*
X180875000Y-70848061D01*
X90660000Y-70848061D01*
X90660000Y-64498061D01*
X100865000Y-64498061D01*
X100865000Y-64701939D01*
X100904774Y-64901898D01*
X100982795Y-65090256D01*
X101096063Y-65259774D01*
X101240226Y-65403937D01*
X101409744Y-65517205D01*
X101598102Y-65595226D01*
X101798061Y-65635000D01*
X102001939Y-65635000D01*
X102201898Y-65595226D01*
X102390256Y-65517205D01*
X102559774Y-65403937D01*
X102703937Y-65259774D01*
X102817205Y-65090256D01*
X102895226Y-64901898D01*
X102935000Y-64701939D01*
X102935000Y-64498061D01*
X177065000Y-64498061D01*
X177065000Y-64701939D01*
X177104774Y-64901898D01*
X177182795Y-65090256D01*
X177296063Y-65259774D01*
X177440226Y-65403937D01*
X177609744Y-65517205D01*
X177798102Y-65595226D01*
X177998061Y-65635000D01*
X178201939Y-65635000D01*
X178401898Y-65595226D01*
X178590256Y-65517205D01*
X178759774Y-65403937D01*
X178903937Y-65259774D01*
X179017205Y-65090256D01*
X179095226Y-64901898D01*
X179135000Y-64701939D01*
X179135000Y-64498061D01*
X179095226Y-64298102D01*
X179017205Y-64109744D01*
X178903937Y-63940226D01*
X178759774Y-63796063D01*
X178590256Y-63682795D01*
X178401898Y-63604774D01*
X178201939Y-63565000D01*
X177998061Y-63565000D01*
X177798102Y-63604774D01*
X177609744Y-63682795D01*
X177440226Y-63796063D01*
X177296063Y-63940226D01*
X177182795Y-64109744D01*
X177104774Y-64298102D01*
X177065000Y-64498061D01*
X102935000Y-64498061D01*
X102895226Y-64298102D01*
X102817205Y-64109744D01*
X102703937Y-63940226D01*
X102559774Y-63796063D01*
X102390256Y-63682795D01*
X102201898Y-63604774D01*
X102001939Y-63565000D01*
X101798061Y-63565000D01*
X101598102Y-63604774D01*
X101409744Y-63682795D01*
X101240226Y-63796063D01*
X101096063Y-63940226D01*
X100982795Y-64109744D01*
X100904774Y-64298102D01*
X100865000Y-64498061D01*
X90660000Y-64498061D01*
X90660000Y-58398061D01*
X108965000Y-58398061D01*
X108965000Y-58601939D01*
X109004774Y-58801898D01*
X109082795Y-58990256D01*
X109196063Y-59159774D01*
X109340226Y-59303937D01*
X109509744Y-59417205D01*
X109698102Y-59495226D01*
X109898061Y-59535000D01*
X110101939Y-59535000D01*
X110301898Y-59495226D01*
X110490256Y-59417205D01*
X110659774Y-59303937D01*
X110803937Y-59159774D01*
X110917205Y-58990256D01*
X110995226Y-58801898D01*
X111035000Y-58601939D01*
X111035000Y-58398061D01*
X128965000Y-58398061D01*
X128965000Y-58601939D01*
X129004774Y-58801898D01*
X129082795Y-58990256D01*
X129196063Y-59159774D01*
X129340226Y-59303937D01*
X129509744Y-59417205D01*
X129698102Y-59495226D01*
X129898061Y-59535000D01*
X130101939Y-59535000D01*
X130301898Y-59495226D01*
X130490256Y-59417205D01*
X130659774Y-59303937D01*
X130803937Y-59159774D01*
X130917205Y-58990256D01*
X130995226Y-58801898D01*
X131035000Y-58601939D01*
X131035000Y-58398061D01*
X148965000Y-58398061D01*
X148965000Y-58601939D01*
X149004774Y-58801898D01*
X149082795Y-58990256D01*
X149196063Y-59159774D01*
X149340226Y-59303937D01*
X149509744Y-59417205D01*
X149698102Y-59495226D01*
X149898061Y-59535000D01*
X150101939Y-59535000D01*
X150301898Y-59495226D01*
X150490256Y-59417205D01*
X150659774Y-59303937D01*
X150803937Y-59159774D01*
X150917205Y-58990256D01*
X150995226Y-58801898D01*
X151035000Y-58601939D01*
X151035000Y-58398061D01*
X168965000Y-58398061D01*
X168965000Y-58601939D01*
X169004774Y-58801898D01*
X169082795Y-58990256D01*
X169196063Y-59159774D01*
X169340226Y-59303937D01*
X169509744Y-59417205D01*
X169698102Y-59495226D01*
X169898061Y-59535000D01*
X170101939Y-59535000D01*
X170301898Y-59495226D01*
X170490256Y-59417205D01*
X170659774Y-59303937D01*
X170803937Y-59159774D01*
X170917205Y-58990256D01*
X170995226Y-58801898D01*
X171035000Y-58601939D01*
X171035000Y-58398061D01*
X170995226Y-58198102D01*
X170917205Y-58009744D01*
X170803937Y-57840226D01*
X170659774Y-57696063D01*
X170490256Y-57582795D01*
X170301898Y-57504774D01*
X170101939Y-57465000D01*
X169898061Y-57465000D01*
X169698102Y-57504774D01*
X169509744Y-57582795D01*
X169340226Y-57696063D01*
X169196063Y-57840226D01*
X169082795Y-58009744D01*
X169004774Y-58198102D01*
X168965000Y-58398061D01*
X151035000Y-58398061D01*
X150995226Y-58198102D01*
X150917205Y-58009744D01*
X150803937Y-57840226D01*
X150659774Y-57696063D01*
X150490256Y-57582795D01*
X150301898Y-57504774D01*
X150101939Y-57465000D01*
X149898061Y-57465000D01*
X149698102Y-57504774D01*
X149509744Y-57582795D01*
X149340226Y-57696063D01*
X149196063Y-57840226D01*
X149082795Y-58009744D01*
X149004774Y-58198102D01*
X148965000Y-58398061D01*
X131035000Y-58398061D01*
X130995226Y-58198102D01*
X130917205Y-58009744D01*
X130803937Y-57840226D01*
X130659774Y-57696063D01*
X130490256Y-57582795D01*
X130301898Y-57504774D01*
X130101939Y-57465000D01*
X129898061Y-57465000D01*
X129698102Y-57504774D01*
X129509744Y-57582795D01*
X129340226Y-57696063D01*
X129196063Y-57840226D01*
X129082795Y-58009744D01*
X129004774Y-58198102D01*
X128965000Y-58398061D01*
X111035000Y-58398061D01*
X110995226Y-58198102D01*
X110917205Y-58009744D01*
X110803937Y-57840226D01*
X110659774Y-57696063D01*
X110490256Y-57582795D01*
X110301898Y-57504774D01*
X110101939Y-57465000D01*
X109898061Y-57465000D01*
X109698102Y-57504774D01*
X109509744Y-57582795D01*
X109340226Y-57696063D01*
X109196063Y-57840226D01*
X109082795Y-58009744D01*
X109004774Y-58198102D01*
X108965000Y-58398061D01*
X90660000Y-58398061D01*
X90660000Y-51295755D01*
X95765000Y-51295755D01*
X95765000Y-52504245D01*
X96000764Y-53689514D01*
X96463233Y-54806012D01*
X97134634Y-55810835D01*
X97989165Y-56665366D01*
X98993988Y-57336767D01*
X100110486Y-57799236D01*
X101295755Y-58035000D01*
X102504245Y-58035000D01*
X103689514Y-57799236D01*
X104806012Y-57336767D01*
X105810835Y-56665366D01*
X106665366Y-55810835D01*
X107336767Y-54806012D01*
X107799236Y-53689514D01*
X108035000Y-52504245D01*
X108035000Y-51798061D01*
X113565000Y-51798061D01*
X113565000Y-52001939D01*
X113604774Y-52201898D01*
X113682795Y-52390256D01*
X113796063Y-52559774D01*
X113940226Y-52703937D01*
X114109744Y-52817205D01*
X114298102Y-52895226D01*
X114498061Y-52935000D01*
X114701939Y-52935000D01*
X114901898Y-52895226D01*
X115090256Y-52817205D01*
X115259774Y-52703937D01*
X115403937Y-52559774D01*
X115517205Y-52390256D01*
X115595226Y-52201898D01*
X115635000Y-52001939D01*
X115635000Y-51798061D01*
X126265000Y-51798061D01*
X126265000Y-52001939D01*
X126304774Y-52201898D01*
X126382795Y-52390256D01*
X126496063Y-52559774D01*
X126640226Y-52703937D01*
X126809744Y-52817205D01*
X126998102Y-52895226D01*
X127198061Y-52935000D01*
X127401939Y-52935000D01*
X127601898Y-52895226D01*
X127790256Y-52817205D01*
X127959774Y-52703937D01*
X128103937Y-52559774D01*
X128217205Y-52390256D01*
X128295226Y-52201898D01*
X128335000Y-52001939D01*
X128335000Y-51798061D01*
X138965000Y-51798061D01*
X138965000Y-52001939D01*
X139004774Y-52201898D01*
X139082795Y-52390256D01*
X139196063Y-52559774D01*
X139340226Y-52703937D01*
X139509744Y-52817205D01*
X139698102Y-52895226D01*
X139898061Y-52935000D01*
X140101939Y-52935000D01*
X140301898Y-52895226D01*
X140490256Y-52817205D01*
X140659774Y-52703937D01*
X140803937Y-52559774D01*
X140917205Y-52390256D01*
X140995226Y-52201898D01*
X141035000Y-52001939D01*
X141035000Y-51798061D01*
X151665000Y-51798061D01*
X151665000Y-52001939D01*
X151704774Y-52201898D01*
X151782795Y-52390256D01*
X151896063Y-52559774D01*
X152040226Y-52703937D01*
X152209744Y-52817205D01*
X152398102Y-52895226D01*
X152598061Y-52935000D01*
X152801939Y-52935000D01*
X153001898Y-52895226D01*
X153190256Y-52817205D01*
X153359774Y-52703937D01*
X153503937Y-52559774D01*
X153617205Y-52390256D01*
X153695226Y-52201898D01*
X153735000Y-52001939D01*
X153735000Y-51798061D01*
X164365000Y-51798061D01*
X164365000Y-52001939D01*
X164404774Y-52201898D01*
X164482795Y-52390256D01*
X164596063Y-52559774D01*
X164740226Y-52703937D01*
X164909744Y-52817205D01*
X165098102Y-52895226D01*
X165298061Y-52935000D01*
X165501939Y-52935000D01*
X165701898Y-52895226D01*
X165890256Y-52817205D01*
X166059774Y-52703937D01*
X166203937Y-52559774D01*
X166317205Y-52390256D01*
X166395226Y-52201898D01*
X166435000Y-52001939D01*
X166435000Y-51798061D01*
X166395226Y-51598102D01*
X166317205Y-51409744D01*
X166241041Y-51295755D01*
X171965000Y-51295755D01*
X171965000Y-52504245D01*
X172200764Y-53689514D01*
X172663233Y-54806012D01*
X173334634Y-55810835D01*
X174189165Y-56665366D01*
X175193988Y-57336767D01*
X176310486Y-57799236D01*
X177495755Y-58035000D01*
X178704245Y-58035000D01*
X179889514Y-57799236D01*
X181006012Y-57336767D01*
X182010835Y-56665366D01*
X182865366Y-55810835D01*
X183536767Y-54806012D01*
X183999236Y-53689514D01*
X184235000Y-52504245D01*
X184235000Y-51295755D01*
X183999236Y-50110486D01*
X183536767Y-48993988D01*
X182865366Y-47989165D01*
X182010835Y-47134634D01*
X181006012Y-46463233D01*
X179889514Y-46000764D01*
X178704245Y-45765000D01*
X177495755Y-45765000D01*
X176310486Y-46000764D01*
X175193988Y-46463233D01*
X174189165Y-47134634D01*
X173334634Y-47989165D01*
X172663233Y-48993988D01*
X172200764Y-50110486D01*
X171965000Y-51295755D01*
X166241041Y-51295755D01*
X166203937Y-51240226D01*
X166059774Y-51096063D01*
X165890256Y-50982795D01*
X165701898Y-50904774D01*
X165501939Y-50865000D01*
X165298061Y-50865000D01*
X165098102Y-50904774D01*
X164909744Y-50982795D01*
X164740226Y-51096063D01*
X164596063Y-51240226D01*
X164482795Y-51409744D01*
X164404774Y-51598102D01*
X164365000Y-51798061D01*
X153735000Y-51798061D01*
X153695226Y-51598102D01*
X153617205Y-51409744D01*
X153503937Y-51240226D01*
X153359774Y-51096063D01*
X153190256Y-50982795D01*
X153001898Y-50904774D01*
X152801939Y-50865000D01*
X152598061Y-50865000D01*
X152398102Y-50904774D01*
X152209744Y-50982795D01*
X152040226Y-51096063D01*
X151896063Y-51240226D01*
X151782795Y-51409744D01*
X151704774Y-51598102D01*
X151665000Y-51798061D01*
X141035000Y-51798061D01*
X140995226Y-51598102D01*
X140917205Y-51409744D01*
X140803937Y-51240226D01*
X140659774Y-51096063D01*
X140490256Y-50982795D01*
X140301898Y-50904774D01*
X140101939Y-50865000D01*
X139898061Y-50865000D01*
X139698102Y-50904774D01*
X139509744Y-50982795D01*
X139340226Y-51096063D01*
X139196063Y-51240226D01*
X139082795Y-51409744D01*
X139004774Y-51598102D01*
X138965000Y-51798061D01*
X128335000Y-51798061D01*
X128295226Y-51598102D01*
X128217205Y-51409744D01*
X128103937Y-51240226D01*
X127959774Y-51096063D01*
X127790256Y-50982795D01*
X127601898Y-50904774D01*
X127401939Y-50865000D01*
X127198061Y-50865000D01*
X126998102Y-50904774D01*
X126809744Y-50982795D01*
X126640226Y-51096063D01*
X126496063Y-51240226D01*
X126382795Y-51409744D01*
X126304774Y-51598102D01*
X126265000Y-51798061D01*
X115635000Y-51798061D01*
X115595226Y-51598102D01*
X115517205Y-51409744D01*
X115403937Y-51240226D01*
X115259774Y-51096063D01*
X115090256Y-50982795D01*
X114901898Y-50904774D01*
X114701939Y-50865000D01*
X114498061Y-50865000D01*
X114298102Y-50904774D01*
X114109744Y-50982795D01*
X113940226Y-51096063D01*
X113796063Y-51240226D01*
X113682795Y-51409744D01*
X113604774Y-51598102D01*
X113565000Y-51798061D01*
X108035000Y-51798061D01*
X108035000Y-51295755D01*
X107799236Y-50110486D01*
X107336767Y-48993988D01*
X106665366Y-47989165D01*
X105810835Y-47134634D01*
X104806012Y-46463233D01*
X103689514Y-46000764D01*
X102504245Y-45765000D01*
X101295755Y-45765000D01*
X100110486Y-46000764D01*
X98993988Y-46463233D01*
X97989165Y-47134634D01*
X97134634Y-47989165D01*
X96463233Y-48993988D01*
X96000764Y-50110486D01*
X95765000Y-51295755D01*
X90660000Y-51295755D01*
X90660000Y-50020747D01*
X90734944Y-48829551D01*
X90954698Y-47677556D01*
X91317100Y-46562199D01*
X91816441Y-45501045D01*
X92444836Y-44510854D01*
X93192383Y-43607224D01*
X94047292Y-42804412D01*
X94996079Y-42115078D01*
X96023774Y-41550097D01*
X97114186Y-41118373D01*
X98250103Y-40826719D01*
X99423941Y-40678429D01*
X100010358Y-40660000D01*
X179979253Y-40660000D01*
X181170449Y-40734944D01*
M02*
